<svg width="165" height="52" viewBox="0 0 165 52" fill="none" xmlns="http://www.w3.org/2000/svg">
<rect width="52" height="52" rx="8" fill="url(#paint0_linear_1021_384)"/>
<path d="M24.2956 6.23077C22.6752 7.00382 22.2991 9.00002 23.553 10.2232C24.0738 10.7222 24.5175 10.8886 25.3469 10.8886H26.051L29.07 13.9514L32.0792 17.0044V20.2629C32.0792 22.8952 32.1082 23.5704 32.2143 23.7857C32.2914 23.9324 32.6097 24.3043 32.928 24.6272L33.5067 25.1948L33.4585 25.7721C33.362 26.7702 33.9118 27.7487 34.8185 28.238C35.6576 28.6881 36.9018 28.4435 37.6059 27.6998C37.9917 27.2986 38.3486 26.4766 38.3389 26.0069C38.3293 25.185 37.7892 24.2945 37.0175 23.8346C36.6221 23.5997 36.4581 23.5606 35.7926 23.5606C35.0499 23.5606 35.0114 23.5508 34.6641 23.2083L34.2976 22.8561V19.4899V16.1335L30.9315 12.6989L27.5653 9.27401L27.6136 8.73582C27.71 7.62029 27.2567 6.79832 26.2825 6.29927C25.5399 5.91764 24.9997 5.90786 24.2956 6.23077ZM25.6074 8.26612C25.7424 8.50097 25.7424 8.54011 25.5784 8.72603C25.1444 9.2153 24.45 8.68689 24.8165 8.15849C25.019 7.86493 25.4241 7.92364 25.6074 8.26612ZM36.2074 25.684C36.352 25.8112 36.3617 26.1733 36.2074 26.3298C36.1398 26.3983 35.9759 26.4473 35.8408 26.4473C35.3779 26.4473 35.1946 26.0069 35.5225 25.6449C35.6865 25.4687 35.9469 25.4785 36.2074 25.684Z" fill="white"/>
<path d="M16.1739 6.29941C15.7592 6.46576 15.1033 7.07245 14.8911 7.49322C14.5921 8.06077 14.5921 9.1078 14.8815 9.67535C15.3734 10.6245 16.3958 11.1725 17.3892 11.0355L17.8522 10.9768L21.5945 14.7246L25.3368 18.4724L25.3271 19.1476V19.813L24.8835 20.2142C23.4946 21.4569 23.7646 23.4629 25.4525 24.3631C25.9058 24.6078 26.9089 24.5784 27.4008 24.324C28.3075 23.8445 28.7897 23.0617 28.7994 22.0831C28.7994 21.3492 28.4618 20.6056 27.9217 20.1652L27.5455 19.8619V18.9421C27.5455 18.3843 27.4973 17.9048 27.4105 17.7091C27.3333 17.533 25.6068 15.7031 23.3595 13.4329L19.4436 9.46986L19.5015 8.92188C19.5497 8.52068 19.5208 8.22712 19.3954 7.86506C19.1832 7.21923 18.4887 6.47554 17.939 6.30919C17.4664 6.1722 16.5019 6.16241 16.1739 6.29941ZM17.4181 8.28583C17.5918 8.51089 17.4953 8.86317 17.2059 9.01973C16.9745 9.15673 16.9359 9.15673 16.7526 8.99038C16.5308 8.78488 16.4922 8.4424 16.6658 8.26626C16.8298 8.09991 17.2735 8.11948 17.4181 8.28583ZM26.6003 21.6722C26.9475 21.9657 26.8511 22.5333 26.446 22.5333C26.0312 22.5333 25.9058 22.4354 25.9058 22.0831C25.9058 21.633 26.2724 21.4177 26.6003 21.6722Z" fill="white"/>
<path d="M34.0304 7.41498C32.873 7.92381 32.2364 9.25462 32.6029 10.3799C33.0273 11.6716 34.3583 12.4153 35.6218 12.0532C35.9691 11.9652 36.2295 11.7792 36.6442 11.3585L37.2133 10.7909H38.4864H39.7596L41.7561 12.8165L43.7527 14.8323V15.8793V16.9361L43.4151 17.1905C43.01 17.5037 42.6435 18.1299 42.5085 18.717C42.2963 19.676 42.8171 20.7622 43.7527 21.3004C44.9294 21.9658 46.4437 21.5059 47.0995 20.2631C47.2153 20.0381 47.2635 19.7249 47.2731 19.2063C47.2731 18.3158 47.0224 17.7385 46.3954 17.2101L45.9807 16.8578L45.9903 15.4292L46 14.0005L45.5274 13.5112C45.267 13.2373 44.0999 12.0532 42.9328 10.879C41.3318 9.25462 40.7338 8.70664 40.4733 8.63814C40.2901 8.58922 39.4799 8.54029 38.6697 8.54029H37.2036L36.6925 8.02167C36.3645 7.69875 36.0269 7.4639 35.7762 7.38562C35.2553 7.22906 34.4258 7.23884 34.0304 7.41498ZM35.3228 9.4699C35.5929 9.88088 35.0046 10.4191 34.6284 10.1059C34.4644 9.95916 34.4548 9.49925 34.6091 9.34269C34.7827 9.16655 35.1685 9.23505 35.3228 9.4699ZM45.1994 18.8149C45.5467 19.1672 45.3441 19.6369 44.8715 19.5781C44.2349 19.5096 44.2928 18.7366 44.939 18.629C44.9776 18.629 45.0934 18.7073 45.1994 18.8149Z" fill="white"/>
<path d="M8.9619 8.2761C8.44106 8.4718 7.89129 8.96107 7.61158 9.46991C7.3801 9.89068 7.34152 10.0668 7.34152 10.7126V11.4759L4.68911 14.1669L2.0367 16.8578L2.00776 20.1653C1.98847 21.9756 2.00776 23.5706 2.0367 23.7076C2.10422 23.9816 4.2165 26.193 4.61195 26.4083C4.82414 26.516 5.54752 26.5453 8.42177 26.5453H11.9712L13.9195 28.522L15.8774 30.5084L20.0152 30.5573L24.1626 30.6062L24.5098 31.0172C24.6931 31.2423 25.0885 31.5456 25.3875 31.6924C26.95 32.4654 28.8019 31.2227 28.8019 29.3928C28.8019 28.473 28.0496 27.4456 27.1719 27.1422C26.2556 26.8291 25.2236 27.1227 24.5677 27.8859L24.1915 28.3165L20.5167 28.336L16.842 28.3556L14.8647 26.3496L12.8875 24.3436L9.19338 24.3143L5.50894 24.2849L4.86272 23.6293L4.20685 22.9835V20.3806V17.7874L6.5892 15.3705L8.9619 12.9633L9.47309 13.0122C10.2736 13.1003 10.8234 12.8948 11.4118 12.2979C12.4148 11.2802 12.3956 9.75368 11.3442 8.8045C10.6691 8.18803 9.7528 7.98254 8.9619 8.2761ZM10.0711 10.2234C10.2351 10.3897 10.2158 10.6931 10.0229 10.9084C9.82996 11.1236 9.62741 11.1334 9.39593 10.9181C9.20302 10.742 9.17409 10.5659 9.31877 10.2919C9.43451 10.0766 9.88783 10.0375 10.0711 10.2234ZM26.7861 29.2461C26.8536 29.4418 26.8439 29.5592 26.7282 29.7353C26.4774 30.1365 25.9084 29.9702 25.9084 29.5005C25.9084 29.1482 26.0723 28.9916 26.4099 28.9916C26.6221 28.9916 26.7089 29.0504 26.7861 29.2461Z" fill="white"/>
<path d="M11.5853 14.6266C10.8426 14.8908 10.1675 15.6834 9.98421 16.5152C9.82024 17.2784 10.0614 18.0123 10.7172 18.6777C11.2959 19.2649 11.8361 19.4606 12.6559 19.3725L13.196 19.3138L15.3951 21.5155L17.5942 23.7172L17.546 24.2847C17.3531 26.369 19.5715 27.7585 21.2497 26.6137C22.5614 25.7232 22.7736 24.0988 21.732 22.9539C21.1725 22.3277 20.671 22.1222 19.8222 22.1515L19.1374 22.1711L16.948 19.9498L14.7585 17.7384L14.7971 17.0534C14.8261 16.5054 14.7971 16.2901 14.6235 15.9379C14.3631 15.3899 13.6976 14.7734 13.196 14.6266C12.7427 14.4896 11.9807 14.4896 11.5853 14.6266ZM12.7331 16.6228C12.9356 16.8185 12.926 16.9849 12.7041 17.2589C12.5498 17.4546 12.4823 17.4742 12.2508 17.3959C11.7589 17.2197 11.8457 16.4663 12.3665 16.4663C12.4823 16.4663 12.6559 16.5348 12.7331 16.6228ZM20.2948 24.2162C20.4202 24.3435 20.4492 24.6762 20.3334 24.8523C20.208 25.0578 19.774 25.1067 19.6004 24.9306C19.2725 24.5979 19.4654 24.0988 19.9283 24.0988C20.0634 24.0988 20.2273 24.1477 20.2948 24.2162Z" fill="white"/>
<path d="M43.8366 24.5391C43.3254 24.8033 42.8239 25.3513 42.6213 25.8406C42.4091 26.3494 42.4477 27.2203 42.6985 27.7585C42.8142 28.0129 43.1036 28.3946 43.3447 28.6098L43.7884 29.0012L41.2228 31.6139C39.8146 33.0524 38.609 34.3245 38.5511 34.4419C38.4932 34.5593 38.445 34.8137 38.445 34.9997C38.445 35.2443 38.3871 35.3715 38.2521 35.4498C38.146 35.5085 37.8856 35.7727 37.683 36.0369C37.1718 36.6925 37.0175 37.3873 37.2297 38.1212C37.3937 38.6887 37.7698 39.2465 38.1749 39.5205C38.4064 39.6868 38.445 39.7749 38.445 40.1957C38.445 40.6654 38.4161 40.7143 38.0206 41.047C36.352 42.4757 37.2876 45.2743 39.4674 45.3525C40.2293 45.3721 40.7309 45.1764 41.2421 44.6578C41.7243 44.1685 42.0137 43.4738 42.0137 42.8475C42.004 42.1821 41.4928 41.2427 40.9527 40.8806C40.7019 40.7143 40.6634 40.6262 40.6634 40.2348C40.6634 39.8336 40.7019 39.7553 41.0492 39.4716C41.2614 39.3052 41.5507 38.9529 41.6954 38.6985C41.9269 38.3169 41.9655 38.131 41.9655 37.5536C41.9558 36.7414 41.7147 36.1837 41.1167 35.6161L40.7212 35.2443L43.3447 32.5827C44.8493 31.0464 45.9778 29.833 45.9778 29.7254C45.9875 29.6177 45.9971 29.4122 46.0068 29.2655C46.0164 29.0893 46.1804 28.8643 46.4987 28.5609L46.9713 28.1108H51.4852H52V26.4864V25.3709H51.4852H46.9713L46.6337 25.0186C46.1611 24.5098 45.6595 24.2945 44.9072 24.3043C44.4346 24.3043 44.1742 24.363 43.8366 24.5391ZM45.3123 26.4864C45.4377 26.6626 45.3991 26.8289 45.1966 27.0344C44.9651 27.2692 44.7818 27.279 44.5793 27.0735C44.2128 26.7017 44.5986 26.0363 45.0422 26.2711C45.158 26.3299 45.2737 26.4277 45.3123 26.4864ZM39.94 37.2111C40.2004 37.4949 40.0364 37.9353 39.6699 37.9744C39.1684 38.0331 38.9369 37.5732 39.2841 37.1916C39.4867 36.9567 39.7181 36.9665 39.94 37.2111ZM39.8918 42.5931C40.1522 42.8573 40.1329 43.1411 39.8435 43.3368C39.6217 43.4835 39.5831 43.4835 39.3613 43.3368C39.0526 43.1313 39.043 42.7594 39.3323 42.5539C39.612 42.3582 39.6603 42.3582 39.8918 42.5931Z" fill="white"/>
<path d="M10.8393 29.52C10.1834 29.6961 9.55649 30.2245 9.25749 30.8214C8.90062 31.5455 8.87169 31.9663 9.12246 32.6415C9.38288 33.3363 9.68188 33.7081 10.2702 34.0604C10.6464 34.2854 10.82 34.3246 11.4759 34.3246H12.2378L13.4531 35.5673C14.1186 36.2425 14.7649 36.8492 14.8806 36.9079C15.0156 36.9764 15.8162 37.0155 17.07 37.0155H19.0569L19.6164 37.5831C20.224 38.1996 20.6484 38.3855 21.4393 38.3855C22.0662 38.3855 22.8185 38.0039 23.2815 37.4461L23.6287 37.0155H26.7344H29.8402L30.0138 37.2798C30.197 37.5733 30.7275 38.0919 30.8529 38.0919C30.8915 38.0919 30.9204 39.0411 30.9204 40.1958V42.2898L30.5829 42.5638C29.1168 43.7381 29.3097 45.9202 30.9397 46.7422C32.1743 47.3684 33.6114 46.8205 34.2866 45.4603C34.7303 44.56 34.4313 43.3564 33.5825 42.6323L33.1388 42.2605V40.1958V38.1311L33.5535 37.8375C34.3637 37.2504 34.711 35.9881 34.3059 35.0389C33.5535 33.258 31.2484 32.9155 30.1488 34.4322L29.9077 34.7551L26.7537 34.7649H23.5901L23.0886 34.2365C22.5292 33.6592 22.1434 33.4928 21.3235 33.4928C20.6773 33.4928 19.9443 33.8549 19.5392 34.3637L19.2209 34.7649H17.5234H15.8258L14.7841 33.7179L13.7425 32.6806L13.81 32.2599C13.9547 31.2618 13.3856 30.1854 12.479 29.7353C11.8134 29.4221 11.3987 29.3634 10.8393 29.52ZM11.7942 31.7119C11.8713 32.0446 11.717 32.2599 11.3601 32.299C11.0225 32.3382 10.8007 32.0544 10.9068 31.7217C11.0418 31.3009 11.6881 31.2911 11.7942 31.7119ZM21.6804 35.6162C21.8926 35.8119 21.9022 36.0174 21.6901 36.2523C21.3718 36.6143 20.8895 36.3795 20.8895 35.8707C20.8895 35.4695 21.3525 35.3129 21.6804 35.6162ZM32.3286 35.6162C32.5215 35.8804 32.4926 36.2131 32.2611 36.3306C31.9621 36.4969 31.6052 36.3697 31.5377 36.0762C31.422 35.5967 32.0393 35.2346 32.3286 35.6162ZM32.2804 44.1588C32.4926 44.2763 32.5312 44.7362 32.3479 44.9221C32.0778 45.1961 31.4991 44.9417 31.4991 44.5503C31.4991 44.335 31.7499 44.061 31.9428 44.061C32.0296 44.061 32.1743 44.1099 32.2804 44.1588Z" fill="white"/>
<path d="M69.3418 15.8418L73.5312 3.78125H75.5723L70.3086 18H68.8535L69.3418 15.8418ZM65.4258 3.78125L69.5762 15.8418L70.0938 18H68.6387L63.3848 3.78125H65.4258ZM79.1758 7.43359V18H77.3594V7.43359H79.1758ZM77.2227 4.63086C77.2227 4.33789 77.3105 4.09049 77.4863 3.88867C77.6686 3.68685 77.9355 3.58594 78.2871 3.58594C78.6322 3.58594 78.8958 3.68685 79.0781 3.88867C79.2669 4.09049 79.3613 4.33789 79.3613 4.63086C79.3613 4.91081 79.2669 5.15169 79.0781 5.35352C78.8958 5.54883 78.6322 5.64648 78.2871 5.64648C77.9355 5.64648 77.6686 5.54883 77.4863 5.35352C77.3105 5.15169 77.2227 4.91081 77.2227 4.63086ZM83.8828 9.68945V18H82.0762V7.43359H83.7852L83.8828 9.68945ZM83.4531 12.3164L82.7012 12.2871C82.7077 11.5645 82.8151 10.8971 83.0234 10.2852C83.2318 9.66667 83.5247 9.12956 83.9023 8.67383C84.2799 8.2181 84.7292 7.86654 85.25 7.61914C85.7773 7.36523 86.36 7.23828 86.998 7.23828C87.5189 7.23828 87.9876 7.3099 88.4043 7.45312C88.821 7.58984 89.1758 7.8112 89.4688 8.11719C89.7682 8.42318 89.9961 8.82031 90.1523 9.30859C90.3086 9.79036 90.3867 10.3796 90.3867 11.0762V18H88.5703V11.0566C88.5703 10.5033 88.4889 10.0605 88.3262 9.72852C88.1634 9.38997 87.9258 9.14583 87.6133 8.99609C87.3008 8.83984 86.9167 8.76172 86.4609 8.76172C86.0117 8.76172 85.6016 8.85612 85.2305 9.04492C84.8659 9.23372 84.5501 9.49414 84.2832 9.82617C84.0228 10.1582 83.8177 10.5391 83.668 10.9688C83.5247 11.3919 83.4531 11.8411 83.4531 12.3164ZM94.9375 9.68945V18H93.1309V7.43359H94.8398L94.9375 9.68945ZM94.5078 12.3164L93.7559 12.2871C93.7624 11.5645 93.8698 10.8971 94.0781 10.2852C94.2865 9.66667 94.5794 9.12956 94.957 8.67383C95.3346 8.2181 95.7839 7.86654 96.3047 7.61914C96.832 7.36523 97.4147 7.23828 98.0527 7.23828C98.5736 7.23828 99.0423 7.3099 99.459 7.45312C99.8757 7.58984 100.23 7.8112 100.523 8.11719C100.823 8.42318 101.051 8.82031 101.207 9.30859C101.363 9.79036 101.441 10.3796 101.441 11.0762V18H99.625V11.0566C99.625 10.5033 99.5436 10.0605 99.3809 9.72852C99.2181 9.38997 98.9805 9.14583 98.668 8.99609C98.3555 8.83984 97.9714 8.76172 97.5156 8.76172C97.0664 8.76172 96.6562 8.85612 96.2852 9.04492C95.9206 9.23372 95.6048 9.49414 95.3379 9.82617C95.0775 10.1582 94.8724 10.5391 94.7227 10.9688C94.5794 11.3919 94.5078 11.8411 94.5078 12.3164ZM107.154 16.9062L110.094 7.43359H112.027L107.789 19.6309C107.691 19.8913 107.561 20.1712 107.398 20.4707C107.242 20.7767 107.04 21.0664 106.793 21.3398C106.546 21.6133 106.246 21.8346 105.895 22.0039C105.549 22.1797 105.136 22.2676 104.654 22.2676C104.511 22.2676 104.329 22.248 104.107 22.209C103.886 22.1699 103.73 22.1374 103.639 22.1113L103.629 20.6465C103.681 20.653 103.762 20.6595 103.873 20.666C103.99 20.679 104.072 20.6855 104.117 20.6855C104.527 20.6855 104.876 20.6302 105.162 20.5195C105.449 20.4154 105.689 20.2363 105.885 19.9824C106.087 19.735 106.259 19.3932 106.402 18.957L107.154 16.9062ZM104.996 7.43359L107.74 15.6367L108.209 17.541L106.91 18.2051L103.023 7.43359H104.996ZM118.082 7.43359V8.82031H112.369V7.43359H118.082ZM114.303 4.86523H116.109V15.3828C116.109 15.7409 116.165 16.0111 116.275 16.1934C116.386 16.3757 116.529 16.4961 116.705 16.5547C116.881 16.6133 117.07 16.6426 117.271 16.6426C117.421 16.6426 117.577 16.6296 117.74 16.6035C117.91 16.571 118.036 16.5449 118.121 16.5254L118.131 18C117.988 18.0456 117.799 18.0879 117.564 18.127C117.337 18.1725 117.06 18.1953 116.734 18.1953C116.292 18.1953 115.885 18.1074 115.514 17.9316C115.143 17.7559 114.846 17.4629 114.625 17.0527C114.41 16.6361 114.303 16.0762 114.303 15.373V4.86523ZM126.354 15.1973C126.354 14.9368 126.295 14.696 126.178 14.4746C126.067 14.2467 125.836 14.0417 125.484 13.8594C125.139 13.6706 124.618 13.5078 123.922 13.3711C123.336 13.2474 122.805 13.1009 122.33 12.9316C121.861 12.7624 121.461 12.5573 121.129 12.3164C120.803 12.0755 120.553 11.7923 120.377 11.4668C120.201 11.1413 120.113 10.7604 120.113 10.3242C120.113 9.90755 120.204 9.51367 120.387 9.14258C120.576 8.77148 120.839 8.44271 121.178 8.15625C121.523 7.86979 121.936 7.64518 122.418 7.48242C122.9 7.31966 123.437 7.23828 124.029 7.23828C124.876 7.23828 125.598 7.38802 126.197 7.6875C126.796 7.98698 127.255 8.38737 127.574 8.88867C127.893 9.38346 128.053 9.93359 128.053 10.5391H126.246C126.246 10.2461 126.158 9.96289 125.982 9.68945C125.813 9.40951 125.562 9.17839 125.23 8.99609C124.905 8.8138 124.505 8.72266 124.029 8.72266C123.528 8.72266 123.121 8.80078 122.809 8.95703C122.503 9.10677 122.278 9.29883 122.135 9.5332C121.998 9.76758 121.93 10.015 121.93 10.2754C121.93 10.4707 121.962 10.6465 122.027 10.8027C122.099 10.9525 122.223 11.0924 122.398 11.2227C122.574 11.3464 122.822 11.4635 123.141 11.5742C123.46 11.6849 123.867 11.7956 124.361 11.9062C125.227 12.1016 125.94 12.3359 126.5 12.6094C127.06 12.8828 127.477 13.2181 127.75 13.6152C128.023 14.0124 128.16 14.4941 128.16 15.0605C128.16 15.5228 128.062 15.946 127.867 16.3301C127.678 16.7142 127.402 17.0462 127.037 17.3262C126.679 17.5996 126.249 17.8145 125.748 17.9707C125.253 18.1204 124.697 18.1953 124.078 18.1953C123.147 18.1953 122.359 18.0293 121.715 17.6973C121.07 17.3652 120.582 16.9355 120.25 16.4082C119.918 15.8809 119.752 15.3242 119.752 14.7383H121.568C121.594 15.2331 121.738 15.627 121.998 15.9199C122.258 16.2064 122.577 16.4115 122.955 16.5352C123.333 16.6523 123.707 16.7109 124.078 16.7109C124.573 16.7109 124.986 16.6458 125.318 16.5156C125.657 16.3854 125.914 16.2064 126.09 15.9785C126.266 15.7507 126.354 15.4902 126.354 15.1973ZM132.496 7.43359V18H130.68V7.43359H132.496ZM130.543 4.63086C130.543 4.33789 130.631 4.09049 130.807 3.88867C130.989 3.68685 131.256 3.58594 131.607 3.58594C131.952 3.58594 132.216 3.68685 132.398 3.88867C132.587 4.09049 132.682 4.33789 132.682 4.63086C132.682 4.91081 132.587 5.15169 132.398 5.35352C132.216 5.54883 131.952 5.64648 131.607 5.64648C131.256 5.64648 130.989 5.54883 130.807 5.35352C130.631 5.15169 130.543 4.91081 130.543 4.63086ZM141.627 16.1934V10.7539C141.627 10.3372 141.542 9.97591 141.373 9.66992C141.21 9.35742 140.963 9.11654 140.631 8.94727C140.299 8.77799 139.889 8.69336 139.4 8.69336C138.945 8.69336 138.544 8.77148 138.199 8.92773C137.861 9.08398 137.594 9.28906 137.398 9.54297C137.21 9.79688 137.115 10.0703 137.115 10.3633H135.309C135.309 9.98568 135.406 9.61133 135.602 9.24023C135.797 8.86914 136.077 8.53385 136.441 8.23438C136.812 7.92839 137.255 7.6875 137.77 7.51172C138.29 7.32943 138.87 7.23828 139.508 7.23828C140.276 7.23828 140.953 7.36849 141.539 7.62891C142.132 7.88932 142.594 8.2832 142.926 8.81055C143.264 9.33138 143.434 9.98568 143.434 10.7734V15.6953C143.434 16.0469 143.463 16.4212 143.521 16.8184C143.587 17.2155 143.681 17.5573 143.805 17.8438V18H141.92C141.829 17.7917 141.757 17.515 141.705 17.1699C141.653 16.8184 141.627 16.4928 141.627 16.1934ZM141.939 11.5938L141.959 12.8633H140.133C139.618 12.8633 139.16 12.9056 138.756 12.9902C138.352 13.0684 138.014 13.1888 137.74 13.3516C137.467 13.5143 137.258 13.7194 137.115 13.9668C136.972 14.2077 136.9 14.4909 136.9 14.8164C136.9 15.1484 136.975 15.4512 137.125 15.7246C137.275 15.998 137.499 16.2161 137.799 16.3789C138.105 16.5352 138.479 16.6133 138.922 16.6133C139.475 16.6133 139.964 16.4961 140.387 16.2617C140.81 16.0273 141.145 15.7409 141.393 15.4023C141.646 15.0638 141.783 14.735 141.803 14.416L142.574 15.2852C142.529 15.5586 142.405 15.8613 142.203 16.1934C142.001 16.5254 141.731 16.8444 141.393 17.1504C141.061 17.4499 140.663 17.7005 140.201 17.9023C139.745 18.0977 139.231 18.1953 138.658 18.1953C137.942 18.1953 137.314 18.0553 136.773 17.7754C136.24 17.4954 135.823 17.1211 135.523 16.6523C135.23 16.1771 135.084 15.6465 135.084 15.0605C135.084 14.4941 135.195 13.9961 135.416 13.5664C135.637 13.1302 135.956 12.7689 136.373 12.4824C136.79 12.1895 137.291 11.9681 137.877 11.8184C138.463 11.6686 139.117 11.5938 139.84 11.5938H141.939Z" fill="white"/>
<path d="M63.6914 31.7812V46H61.8066V31.7812H63.6914ZM72.0801 31.7812V46H70.2246V31.7812H72.0801ZM76.6504 31.7812V33.3242H65.6641V31.7812H76.6504ZM88.5938 33.041L83.8867 46H81.9629L87.3828 31.7812H88.623L88.5938 33.041ZM92.5391 46L87.8223 33.041L87.793 31.7812H89.0332L94.4727 46H92.5391ZM92.2949 40.7363V42.2793H84.3066V40.7363H92.2949ZM100.332 44.7109C100.762 44.7109 101.159 44.623 101.523 44.4473C101.888 44.2715 102.188 44.0306 102.422 43.7246C102.656 43.4121 102.79 43.0573 102.822 42.6602H104.541C104.508 43.2852 104.297 43.8678 103.906 44.4082C103.522 44.9421 103.018 45.375 102.393 45.707C101.768 46.0326 101.081 46.1953 100.332 46.1953C99.5378 46.1953 98.8444 46.0553 98.252 45.7754C97.666 45.4954 97.1777 45.1113 96.7871 44.623C96.403 44.1348 96.1133 43.5749 95.918 42.9434C95.7292 42.3053 95.6348 41.6315 95.6348 40.9219V40.5117C95.6348 39.8021 95.7292 39.1315 95.918 38.5C96.1133 37.862 96.403 37.2988 96.7871 36.8105C97.1777 36.3223 97.666 35.9382 98.252 35.6582C98.8444 35.3783 99.5378 35.2383 100.332 35.2383C101.159 35.2383 101.882 35.4076 102.5 35.7461C103.118 36.0781 103.604 36.5339 103.955 37.1133C104.313 37.6862 104.508 38.3372 104.541 39.0664H102.822C102.79 38.6302 102.666 38.2363 102.451 37.8848C102.243 37.5332 101.956 37.2533 101.592 37.0449C101.234 36.8301 100.814 36.7227 100.332 36.7227C99.7786 36.7227 99.3132 36.8333 98.9355 37.0547C98.5645 37.2695 98.2682 37.5625 98.0469 37.9336C97.832 38.2982 97.6758 38.7051 97.5781 39.1543C97.487 39.597 97.4414 40.0495 97.4414 40.5117V40.9219C97.4414 41.3841 97.487 41.8398 97.5781 42.2891C97.6693 42.7383 97.8223 43.1452 98.0371 43.5098C98.2585 43.8743 98.5547 44.1673 98.9258 44.3887C99.3034 44.6035 99.7721 44.7109 100.332 44.7109ZM112.803 44.1934V38.7539C112.803 38.3372 112.718 37.9759 112.549 37.6699C112.386 37.3574 112.139 37.1165 111.807 36.9473C111.475 36.778 111.064 36.6934 110.576 36.6934C110.12 36.6934 109.72 36.7715 109.375 36.9277C109.036 37.084 108.77 37.2891 108.574 37.543C108.385 37.7969 108.291 38.0703 108.291 38.3633H106.484C106.484 37.9857 106.582 37.6113 106.777 37.2402C106.973 36.8691 107.253 36.5339 107.617 36.2344C107.988 35.9284 108.431 35.6875 108.945 35.5117C109.466 35.3294 110.046 35.2383 110.684 35.2383C111.452 35.2383 112.129 35.3685 112.715 35.6289C113.307 35.8893 113.77 36.2832 114.102 36.8105C114.44 37.3314 114.609 37.9857 114.609 38.7734V43.6953C114.609 44.0469 114.639 44.4212 114.697 44.8184C114.762 45.2155 114.857 45.5573 114.98 45.8438V46H113.096C113.005 45.7917 112.933 45.515 112.881 45.1699C112.829 44.8184 112.803 44.4928 112.803 44.1934ZM113.115 39.5938L113.135 40.8633H111.309C110.794 40.8633 110.335 40.9056 109.932 40.9902C109.528 41.0684 109.189 41.1888 108.916 41.3516C108.643 41.5143 108.434 41.7194 108.291 41.9668C108.148 42.2077 108.076 42.4909 108.076 42.8164C108.076 43.1484 108.151 43.4512 108.301 43.7246C108.451 43.998 108.675 44.2161 108.975 44.3789C109.281 44.5352 109.655 44.6133 110.098 44.6133C110.651 44.6133 111.139 44.4961 111.562 44.2617C111.986 44.0273 112.321 43.7409 112.568 43.4023C112.822 43.0638 112.959 42.735 112.979 42.416L113.75 43.2852C113.704 43.5586 113.581 43.8613 113.379 44.1934C113.177 44.5254 112.907 44.8444 112.568 45.1504C112.236 45.4499 111.839 45.7005 111.377 45.9023C110.921 46.0977 110.407 46.1953 109.834 46.1953C109.118 46.1953 108.49 46.0553 107.949 45.7754C107.415 45.4954 106.999 45.1211 106.699 44.6523C106.406 44.1771 106.26 43.6465 106.26 43.0605C106.26 42.4941 106.37 41.9961 106.592 41.5664C106.813 41.1302 107.132 40.7689 107.549 40.4824C107.965 40.1895 108.467 39.9681 109.053 39.8184C109.639 39.6686 110.293 39.5938 111.016 39.5938H113.115ZM124.111 43.9492V31H125.928V46H124.268L124.111 43.9492ZM117.002 40.834V40.6289C117.002 39.8216 117.1 39.0892 117.295 38.4316C117.497 37.7676 117.78 37.1979 118.145 36.7227C118.516 36.2474 118.955 35.8828 119.463 35.6289C119.977 35.3685 120.55 35.2383 121.182 35.2383C121.846 35.2383 122.425 35.3555 122.92 35.5898C123.421 35.8177 123.844 36.153 124.189 36.5957C124.541 37.0319 124.818 37.5592 125.02 38.1777C125.221 38.7962 125.361 39.4961 125.439 40.2773V41.1758C125.368 41.9505 125.228 42.6471 125.02 43.2656C124.818 43.8841 124.541 44.4115 124.189 44.8477C123.844 45.2839 123.421 45.6191 122.92 45.8535C122.419 46.0814 121.833 46.1953 121.162 46.1953C120.544 46.1953 119.977 46.0618 119.463 45.7949C118.955 45.528 118.516 45.1536 118.145 44.6719C117.78 44.1901 117.497 43.6237 117.295 42.9727C117.1 42.3151 117.002 41.6022 117.002 40.834ZM118.818 40.6289V40.834C118.818 41.3613 118.87 41.8561 118.975 42.3184C119.085 42.7806 119.255 43.1875 119.482 43.5391C119.71 43.8906 120 44.1673 120.352 44.3691C120.703 44.5645 121.123 44.6621 121.611 44.6621C122.21 44.6621 122.702 44.5352 123.086 44.2812C123.477 44.0273 123.789 43.6921 124.023 43.2754C124.258 42.8587 124.44 42.4062 124.57 41.918V39.5645C124.492 39.2064 124.378 38.8613 124.229 38.5293C124.085 38.1908 123.896 37.8913 123.662 37.6309C123.434 37.3639 123.151 37.1523 122.812 36.9961C122.48 36.8398 122.087 36.7617 121.631 36.7617C121.136 36.7617 120.71 36.8659 120.352 37.0742C120 37.276 119.71 37.556 119.482 37.9141C119.255 38.2656 119.085 38.6758 118.975 39.1445C118.87 39.6068 118.818 40.1016 118.818 40.6289ZM133.125 46.1953C132.389 46.1953 131.722 46.0716 131.123 45.8242C130.531 45.5703 130.02 45.2155 129.59 44.7598C129.167 44.304 128.841 43.7637 128.613 43.1387C128.385 42.5137 128.271 41.8301 128.271 41.0879V40.6777C128.271 39.8184 128.398 39.0534 128.652 38.3828C128.906 37.7057 129.251 37.1328 129.688 36.6641C130.124 36.1953 130.618 35.8405 131.172 35.5996C131.725 35.3587 132.298 35.2383 132.891 35.2383C133.646 35.2383 134.297 35.3685 134.844 35.6289C135.397 35.8893 135.85 36.2539 136.201 36.7227C136.553 37.1849 136.813 37.7318 136.982 38.3633C137.152 38.9883 137.236 39.6719 137.236 40.4141V41.2246H129.346V39.75H135.43V39.6133C135.404 39.1445 135.306 38.6888 135.137 38.2461C134.974 37.8034 134.714 37.4388 134.355 37.1523C133.997 36.8659 133.509 36.7227 132.891 36.7227C132.48 36.7227 132.103 36.8105 131.758 36.9863C131.413 37.1556 131.117 37.4095 130.869 37.748C130.622 38.0866 130.43 38.5 130.293 38.9883C130.156 39.4766 130.088 40.0397 130.088 40.6777V41.0879C130.088 41.5892 130.156 42.0612 130.293 42.5039C130.436 42.9401 130.641 43.3242 130.908 43.6562C131.182 43.9883 131.51 44.2487 131.895 44.4375C132.285 44.6263 132.728 44.7207 133.223 44.7207C133.861 44.7207 134.401 44.5905 134.844 44.3301C135.286 44.0697 135.674 43.7214 136.006 43.2852L137.1 44.1543C136.872 44.4993 136.582 44.8281 136.23 45.1406C135.879 45.4531 135.446 45.707 134.932 45.9023C134.424 46.0977 133.822 46.1953 133.125 46.1953ZM141.143 37.5332V46H139.326V35.4336H141.045L141.143 37.5332ZM140.771 40.3164L139.932 40.2871C139.938 39.5645 140.033 38.8971 140.215 38.2852C140.397 37.6667 140.667 37.1296 141.025 36.6738C141.383 36.2181 141.829 35.8665 142.363 35.6191C142.897 35.3652 143.516 35.2383 144.219 35.2383C144.714 35.2383 145.169 35.3099 145.586 35.4531C146.003 35.5898 146.364 35.8079 146.67 36.1074C146.976 36.4069 147.214 36.791 147.383 37.2598C147.552 37.7285 147.637 38.2949 147.637 38.959V46H145.83V39.0469C145.83 38.4935 145.736 38.0508 145.547 37.7188C145.365 37.3867 145.104 37.1458 144.766 36.9961C144.427 36.8398 144.03 36.7617 143.574 36.7617C143.04 36.7617 142.594 36.8561 142.236 37.0449C141.878 37.2337 141.592 37.4941 141.377 37.8262C141.162 38.1582 141.006 38.5391 140.908 38.9688C140.817 39.3919 140.771 39.8411 140.771 40.3164ZM147.617 39.3203L146.406 39.6914C146.413 39.112 146.507 38.5553 146.689 38.0215C146.878 37.4876 147.148 37.0124 147.5 36.5957C147.858 36.179 148.298 35.8503 148.818 35.6094C149.339 35.362 149.935 35.2383 150.605 35.2383C151.172 35.2383 151.673 35.3132 152.109 35.4629C152.552 35.6126 152.923 35.8438 153.223 36.1562C153.529 36.4622 153.76 36.8561 153.916 37.3379C154.072 37.8197 154.15 38.3926 154.15 39.0566V46H152.334V39.0371C152.334 38.4447 152.24 37.9857 152.051 37.6602C151.868 37.3281 151.608 37.097 151.27 36.9668C150.938 36.8301 150.54 36.7617 150.078 36.7617C149.681 36.7617 149.329 36.8301 149.023 36.9668C148.717 37.1035 148.46 37.2923 148.252 37.5332C148.044 37.7676 147.884 38.0378 147.773 38.3438C147.669 38.6497 147.617 38.9753 147.617 39.3203ZM159.854 44.9062L162.793 35.4336H164.727L160.488 47.6309C160.391 47.8913 160.26 48.1712 160.098 48.4707C159.941 48.7767 159.74 49.0664 159.492 49.3398C159.245 49.6133 158.945 49.8346 158.594 50.0039C158.249 50.1797 157.835 50.2676 157.354 50.2676C157.21 50.2676 157.028 50.248 156.807 50.209C156.585 50.1699 156.429 50.1374 156.338 50.1113L156.328 48.6465C156.38 48.653 156.462 48.6595 156.572 48.666C156.689 48.679 156.771 48.6855 156.816 48.6855C157.227 48.6855 157.575 48.6302 157.861 48.5195C158.148 48.4154 158.389 48.2363 158.584 47.9824C158.786 47.735 158.958 47.3932 159.102 46.957L159.854 44.9062ZM157.695 35.4336L160.439 43.6367L160.908 45.541L159.609 46.2051L155.723 35.4336H157.695Z" fill="white"/>
<defs>
<linearGradient id="paint0_linear_1021_384" x1="7.82584e-07" y1="26.4906" x2="52" y2="26.4906" gradientUnits="userSpaceOnUse">
<stop stop-color="#00C99F"/>
<stop offset="1" stop-color="#009ACB"/>
</linearGradient>
</defs>
</svg>
