<svg width="39" height="38" viewBox="0 0 39 38" fill="none" xmlns="http://www.w3.org/2000/svg">
<g clip-path="url(#clip0_1300_21)">
<path d="M29.5938 0H9.40625C4.48746 0 0.5 3.98746 0.5 8.90625V29.0938C0.5 34.0125 4.48746 38 9.40625 38H29.5938C34.5125 38 38.5 34.0125 38.5 29.0938V8.90625C38.5 3.98746 34.5125 0 29.5938 0Z" fill="url(#paint0_radial_1300_21)"/>
<path d="M29.5938 0H9.40625C4.48746 0 0.5 3.98746 0.5 8.90625V29.0938C0.5 34.0125 4.48746 38 9.40625 38H29.5938C34.5125 38 38.5 34.0125 38.5 29.0938V8.90625C38.5 3.98746 34.5125 0 29.5938 0Z" fill="url(#paint1_radial_1300_21)"/>
<path d="M19.5013 4.15625C15.4701 4.15625 14.964 4.17391 13.3808 4.24591C11.8005 4.31834 10.7219 4.56846 9.77809 4.93555C8.80166 5.31466 7.97353 5.82187 7.14852 6.64718C6.32276 7.47234 5.81555 8.30048 5.43525 9.27645C5.06713 10.2205 4.81671 11.2997 4.74561 12.8792C4.6748 14.4626 4.65625 14.9687 4.65625 19.0001C4.65625 23.0316 4.67406 23.536 4.74591 25.1192C4.81864 26.6995 5.06876 27.7781 5.43555 28.7219C5.81495 29.6983 6.32216 30.5265 7.14748 31.3515C7.97234 32.1772 8.80048 32.6856 9.77616 33.0648C10.7207 33.4318 11.7995 33.682 13.3795 33.7544C14.9629 33.8264 15.4684 33.844 19.4996 33.844C23.5313 33.844 24.0357 33.8264 25.6189 33.7544C27.1992 33.682 28.279 33.4318 29.2235 33.0648C30.1995 32.6856 31.0265 32.1772 31.8512 31.3515C32.6769 30.5265 33.184 29.6983 33.5645 28.7224C33.9293 27.7781 34.1799 26.6992 34.2541 25.1195C34.3252 23.5362 34.3438 23.0316 34.3438 19.0001C34.3438 14.9687 34.3252 14.4629 34.2541 12.8795C34.1799 11.2992 33.9293 10.2207 33.5645 9.2769C33.184 8.30048 32.6769 7.47234 31.8512 6.64718C31.0256 5.82157 30.1998 5.31436 29.2227 4.9357C28.2764 4.56846 27.1971 4.3182 25.6168 4.24591C24.0334 4.17391 23.5293 4.15625 19.4967 4.15625H19.5013ZM18.1697 6.83124C18.565 6.83065 19.006 6.83124 19.5013 6.83124C23.4648 6.83124 23.9344 6.84549 25.4995 6.91659C26.9468 6.9828 27.7323 7.2246 28.2556 7.42781C28.9483 7.69678 29.4422 8.01845 29.9614 8.53813C30.481 9.05766 30.8025 9.5524 31.0722 10.2452C31.2754 10.7677 31.5175 11.5532 31.5834 13.0005C31.6545 14.5653 31.6699 15.0352 31.6699 18.9967C31.6699 22.9582 31.6545 23.4283 31.5834 24.993C31.5172 26.4403 31.2754 27.2258 31.0722 27.7485C30.8032 28.4412 30.481 28.9345 29.9614 29.4537C29.4419 29.9732 28.9486 30.2948 28.2556 30.5639C27.7329 30.768 26.9468 31.0092 25.4995 31.0754C23.9347 31.1465 23.4648 31.1619 19.5013 31.1619C15.5378 31.1619 15.068 31.1465 13.5033 31.0754C12.056 31.0086 11.2705 30.7668 10.7468 30.5636C10.0542 30.2945 9.55929 29.9729 9.03976 29.4534C8.52023 28.9339 8.19871 28.4403 7.929 27.7473C7.72579 27.2246 7.48369 26.4391 7.41778 24.9918C7.34668 23.427 7.33243 22.957 7.33243 18.993C7.33243 15.0291 7.34668 14.5616 7.41778 12.9967C7.48398 11.5495 7.72579 10.7639 7.929 10.2407C8.19812 9.54795 8.52023 9.0532 9.03991 8.53367C9.55944 8.01414 10.0542 7.69248 10.7469 7.42291C11.2702 7.21881 12.056 6.9776 13.5033 6.9111C14.8726 6.8492 15.4033 6.83065 18.1697 6.82753V6.83124ZM27.4249 9.2959C26.4415 9.2959 25.6437 10.093 25.6437 11.0766C25.6437 12.06 26.4415 12.8578 27.4249 12.8578C28.4083 12.8578 29.2062 12.06 29.2062 11.0766C29.2062 10.0932 28.4083 9.2953 27.4249 9.2953V9.2959ZM19.5013 11.3771C15.2916 11.3771 11.8785 14.7903 11.8785 19.0001C11.8785 23.21 15.2916 26.6215 19.5013 26.6215C23.7112 26.6215 27.1232 23.21 27.1232 19.0001C27.1232 14.7905 23.7109 11.3771 19.501 11.3771H19.5013ZM19.5013 14.0521C22.2339 14.0521 24.4494 16.2673 24.4494 19.0001C24.4494 21.7327 22.2339 23.9482 19.5013 23.9482C16.7686 23.9482 14.5535 21.7327 14.5535 19.0001C14.5535 16.2673 16.7686 14.0521 19.5013 14.0521Z" fill="white"/>
</g>
<defs>
<radialGradient id="paint0_radial_1300_21" cx="0" cy="0" r="1" gradientUnits="userSpaceOnUse" gradientTransform="translate(10.5937 40.9267) rotate(-90) scale(37.6608 35.0275)">
<stop stop-color="#FFDD55"/>
<stop offset="0.1" stop-color="#FFDD55"/>
<stop offset="0.5" stop-color="#FF543E"/>
<stop offset="1" stop-color="#C837AB"/>
</radialGradient>
<radialGradient id="paint1_radial_1300_21" cx="0" cy="0" r="1" gradientUnits="userSpaceOnUse" gradientTransform="translate(-5.86515 2.73734) rotate(78.681) scale(16.8346 69.3927)">
<stop stop-color="#3771C8"/>
<stop offset="0.128" stop-color="#3771C8"/>
<stop offset="1" stop-color="#6600FF" stop-opacity="0"/>
</radialGradient>
<clipPath id="clip0_1300_21">
<rect width="38" height="38" fill="white" transform="translate(0.5)"/>
</clipPath>
</defs>
</svg>
