<svg width="49" height="48" viewBox="0 0 49 48" fill="none" xmlns="http://www.w3.org/2000/svg">
<path d="M26.8631 7.5C35.6905 9.10575 42.1105 16.3316 43.7155 24.3603" stroke="black" stroke-width="2"/>
<path d="M26.8631 14.9941C31.5443 15.7747 35.6014 19.9898 36.2255 24.361" stroke="black" stroke-width="2"/>
<path d="M26.8631 22.4888C27.7993 22.6449 28.6107 23.4879 28.7356 24.3621" stroke="black" stroke-width="2"/>
<path d="M17.5598 25.5668C19.0452 28.7892 22.8178 32.1966 25.9291 34.2983C26.6819 34.8068 27.68 34.6793 28.3266 34.041L30.112 32.2789C30.5178 31.8783 31.4236 31.6892 32.1758 31.6124C32.6989 31.5589 33.2046 31.7747 33.5789 32.1441L38.0395 36.5467C38.5745 37.0748 39.3578 37.8478 38.8919 39.0933C38.8163 39.2955 38.6819 39.4692 38.5283 39.6208L36.5981 41.5258C34.4361 43.6597 33.6424 44.9209 31.5534 44.371C20.7431 41.5258 13.5362 33.7015 9.21213 25.8772C8.22123 24.0838 7.77193 20.1871 8.49145 18.7641C8.8328 18.089 11.1231 15.4914 12.5876 14.0125C12.7383 13.8604 12.911 13.7276 13.1163 13.6669C14.179 13.3527 15.2594 14.0629 15.6983 14.4961L20.0224 18.764C21.1755 19.902 20.5029 21.135 20.0224 21.6092L17.9869 23.6182C17.4648 24.1335 17.2528 24.9006 17.5598 25.5668Z" stroke="black" stroke-width="2"/>
</svg>
