<svg width="38" height="28" viewBox="0 0 38 28" fill="none" xmlns="http://www.w3.org/2000/svg">
<path fill-rule="evenodd" clip-rule="evenodd" d="M34.5 2H3.5C2.94772 2 2.5 2.44772 2.5 3V25C2.5 25.5523 2.94772 26 3.5 26H34.5C35.0523 26 35.5 25.5523 35.5 25V3C35.5 2.44772 35.0523 2 34.5 2ZM3.5 0C1.84315 0 0.5 1.34315 0.5 3V25C0.5 26.6569 1.84315 28 3.5 28H34.5C36.1569 28 37.5 26.6569 37.5 25V3C37.5 1.34315 36.1569 0 34.5 0H3.5Z" fill="black"/>
<path fill-rule="evenodd" clip-rule="evenodd" d="M36.7117 3.57329L20.9025 16.5338C19.7966 17.4404 18.2044 17.4404 17.0985 16.5337L1.28983 3.57328L2.55783 2.02662L18.3665 14.9871C18.7352 15.2893 19.2659 15.2893 19.6345 14.9871L35.4437 2.02661L36.7117 3.57329Z" fill="black"/>
</svg>
