<svg width="39" height="38" viewBox="0 0 39 38" fill="none" xmlns="http://www.w3.org/2000/svg">
<path fill-rule="evenodd" clip-rule="evenodd" d="M10.3657 0.966541C16.381 -0.32218 22.6191 -0.32218 28.6344 0.966541L29.2753 1.10243C31.0337 1.47919 32.6487 2.31583 33.9409 3.5194C35.233 4.72296 36.1517 6.24632 36.5948 7.9202C38.1217 13.6869 38.1217 19.7278 36.5948 25.4946C36.1517 27.1685 35.233 28.6918 33.9409 29.8954C32.6487 31.0989 31.0337 31.9356 29.2753 32.3124L28.6325 32.4482C24.865 33.2557 20.9991 33.56 17.1446 33.3523L12.1294 37.6535C11.9403 37.8158 11.7093 37.9264 11.4604 37.9739C11.2115 38.0213 10.9538 38.0039 10.7143 37.9234C10.4749 37.8429 10.2623 37.7022 10.0989 37.5161C9.93549 37.33 9.8272 37.1053 9.78532 36.8654L8.95543 32.1149C7.36407 31.6403 5.92629 30.7825 4.7795 29.6234C3.63271 28.4644 2.81525 27.0428 2.40523 25.4946C0.878271 19.7279 0.878271 13.6869 2.40523 7.9202C2.84837 6.24632 3.76706 4.72296 5.05921 3.5194C6.35137 2.31583 7.96639 1.47919 9.72482 1.10243L10.3657 0.966541Z" fill="#7360F2"/>
<path d="M11.3219 8.25579C10.9453 8.20682 10.5612 8.27454 10.2336 8.44766H10.2053C9.4453 8.8459 8.76032 9.3473 8.17667 9.93741C7.69029 10.4388 7.42683 10.9457 7.35793 11.4344C7.3174 11.724 7.34577 12.0173 7.44102 12.2942L7.4775 12.3123C8.02467 13.7478 8.73803 15.1289 9.60945 16.4286C10.7331 18.2541 12.1158 19.9424 13.7234 21.4517L13.772 21.5133L13.849 21.5639L13.8957 21.6128L13.9524 21.6563C15.6481 23.0965 17.5427 24.3374 19.5903 25.3489C21.931 26.4875 23.3517 27.0251 24.2048 27.2496V27.2604C24.4541 27.3292 24.6811 27.36 24.9101 27.36C25.6367 27.312 26.3244 27.0482 26.8637 26.6106C27.5223 26.0893 28.0797 25.4756 28.5133 24.7932V24.7806C28.9207 24.0927 28.7829 23.4447 28.1952 23.0048C27.0147 22.0835 25.7382 21.2652 24.3832 20.5611C23.4753 20.1213 22.5532 20.3873 22.1803 20.8326L21.3839 21.7305C20.9745 22.1758 20.2328 22.1142 20.2328 22.1142L20.2125 22.1251C14.6779 20.8634 13.2005 15.8584 13.2005 15.8584C13.2005 15.8584 13.1316 15.1778 13.6444 14.8302L14.6414 14.1134C15.1197 13.7659 15.4521 12.9441 14.9393 12.1331C14.1563 10.9217 13.242 9.78187 12.2095 8.73005C11.9844 8.4825 11.6686 8.31391 11.3179 8.25398L11.3219 8.25579ZM20.6746 6.08C20.4058 6.08 20.1481 6.17536 19.958 6.34509C19.768 6.51482 19.6613 6.74503 19.6613 6.98507C19.6613 7.22511 19.768 7.45532 19.958 7.62505C20.1481 7.79479 20.4058 7.89014 20.6746 7.89014C23.2361 7.89014 25.364 8.63773 27.0481 10.0714C27.9135 10.8551 28.5883 11.7838 29.0301 12.8011C29.4739 13.8202 29.6766 14.9081 29.6239 15.9978C29.6126 16.2378 29.7086 16.472 29.8906 16.6489C30.0726 16.8257 30.3259 16.9308 30.5946 16.9408C30.8634 16.9509 31.1256 16.8652 31.3236 16.7026C31.5216 16.54 31.6392 16.3138 31.6505 16.0738C31.7133 14.7333 31.4642 13.3958 30.9189 12.1458C30.3712 10.8898 29.5407 9.74756 28.4789 8.78978L28.4586 8.77168C26.3692 6.98869 23.7266 6.08 20.6746 6.08Z" fill="white"/>
<path d="M21.062 9.12175C20.8493 9.12175 20.6453 9.21435 20.4949 9.37917C20.3445 9.544 20.26 9.76755 20.26 10.0006C20.26 10.2337 20.3445 10.4573 20.4949 10.6221C20.6453 10.7869 20.8493 10.8795 21.062 10.8795H21.0893C22.5522 10.9938 23.6173 11.5282 24.3632 12.4053C25.1283 13.3088 25.5245 14.432 25.494 15.8207C25.4891 16.0538 25.5689 16.2794 25.7159 16.448C25.8628 16.6167 26.0649 16.7144 26.2776 16.7198C26.4903 16.7251 26.6963 16.6377 26.8501 16.4766C27.004 16.3156 27.0932 16.0942 27.0981 15.8611C27.1366 14.0383 26.6008 12.4651 25.5389 11.21V11.2065C24.453 9.93033 22.9628 9.25534 21.1695 9.12351L21.1422 9.12L21.062 9.12175Z" fill="white"/>
<path d="M21.1915 12.1633C21.0769 12.1532 20.9615 12.1663 20.852 12.2016C20.7426 12.2368 20.6415 12.2937 20.5546 12.3687C20.4678 12.4438 20.3971 12.5354 20.3466 12.6383C20.2962 12.7411 20.2672 12.853 20.2612 12.9672C20.2552 13.0814 20.2724 13.1957 20.3118 13.3032C20.3512 13.4107 20.412 13.5091 20.4905 13.5927C20.569 13.6763 20.6637 13.7433 20.7688 13.7898C20.874 13.8362 20.9874 13.861 21.1024 13.8629C21.8182 13.9004 22.2755 14.1149 22.5632 14.4027C22.8526 14.6922 23.0683 15.1572 23.1077 15.8843C23.1099 15.9986 23.1351 16.1113 23.1819 16.2156C23.2288 16.32 23.2963 16.4139 23.3804 16.4918C23.4645 16.5697 23.5636 16.6299 23.6716 16.6689C23.7796 16.7079 23.8944 16.7249 24.0092 16.7188C24.124 16.7127 24.2363 16.6838 24.3396 16.6336C24.4428 16.5834 24.5349 16.5131 24.6103 16.4268C24.6856 16.3405 24.7427 16.2401 24.7782 16.1313C24.8137 16.0226 24.8268 15.9079 24.8167 15.7941C24.7619 14.7723 24.44 13.8697 23.7807 13.2055C23.118 12.5414 22.2155 12.2178 21.1915 12.1633Z" fill="white"/>
<path fill-rule="evenodd" clip-rule="evenodd" d="M10.3657 0.966541C16.381 -0.32218 22.6191 -0.32218 28.6344 0.966541L29.2753 1.10243C31.0337 1.47919 32.6487 2.31583 33.9409 3.5194C35.233 4.72296 36.1517 6.24632 36.5948 7.9202C38.1217 13.6869 38.1217 19.7278 36.5948 25.4946C36.1517 27.1685 35.233 28.6918 33.9409 29.8954C32.6487 31.0989 31.0337 31.9356 29.2753 32.3124L28.6325 32.4482C24.865 33.2557 20.9991 33.56 17.1446 33.3523L12.1294 37.6535C11.9403 37.8158 11.7093 37.9264 11.4604 37.9739C11.2115 38.0213 10.9538 38.0039 10.7143 37.9234C10.4749 37.8429 10.2623 37.7022 10.0989 37.5161C9.93549 37.33 9.8272 37.1053 9.78532 36.8654L8.95543 32.1149C7.36407 31.6403 5.92629 30.7825 4.7795 29.6234C3.63271 28.4644 2.81525 27.0428 2.40523 25.4946C0.878271 19.7279 0.878271 13.6869 2.40523 7.9202C2.84837 6.24632 3.76706 4.72296 5.05921 3.5194C6.35137 2.31583 7.96639 1.47919 9.72482 1.10243L10.3657 0.966541ZM28.0163 3.61719C22.408 2.41562 16.5921 2.41562 10.9838 3.61719L10.3411 3.75489C9.09479 4.02241 7.95025 4.61577 7.03456 5.46908C6.11887 6.32239 5.46787 7.40225 5.15386 8.58875C3.74308 13.9167 3.74308 19.4981 5.15386 24.826C5.46802 26.0128 6.1193 27.0928 7.03535 27.9461C7.95139 28.7994 9.09634 29.3927 10.343 29.6599L10.5131 29.6961C10.7883 29.7551 11.039 29.8914 11.2329 30.0877C11.4269 30.2839 11.5554 30.5311 11.602 30.7977L12.1578 33.9828L15.6966 30.9481C15.8379 30.8265 16.0032 30.7334 16.1828 30.6743C16.3624 30.6152 16.5525 30.5912 16.742 30.6038C20.521 30.8608 24.3189 30.5892 28.0163 29.7976L28.6571 29.6599C29.9037 29.3927 31.0487 28.7994 31.9647 27.9461C32.8808 27.0928 33.5321 26.0128 33.8462 24.826C35.2565 19.4994 35.2565 13.9172 33.8462 8.58875C33.5321 7.40202 32.8808 6.322 31.9647 5.46867C31.0487 4.61534 29.9037 4.02211 28.6571 3.75489L28.0163 3.61719Z" fill="white"/>
</svg>
