<svg width="39" height="38" viewBox="0 0 39 38" fill="none" xmlns="http://www.w3.org/2000/svg">
<g clip-path="url(#clip0_1300_6)">
<path d="M19.5 0C14.462 0 9.62594 2.00302 6.06641 5.56492C2.5032 9.12824 0.500987 13.9608 0.5 19C0.5 24.0371 2.50391 28.8732 6.06641 32.4351C9.62594 35.997 14.462 38 19.5 38C24.538 38 29.3741 35.997 32.9336 32.4351C36.4961 28.8732 38.5 24.0371 38.5 19C38.5 13.9629 36.4961 9.12683 32.9336 5.56492C29.3741 2.00302 24.538 0 19.5 0Z" fill="url(#paint0_linear_1300_6)"/>
<path d="M9.10046 18.7993C14.6401 16.3863 18.3333 14.7954 20.1798 14.0268C25.4583 11.832 26.5537 11.4508 27.2692 11.4379C27.4266 11.4353 27.7769 11.4742 28.0055 11.659C28.1955 11.8149 28.2489 12.0257 28.2756 12.1737C28.2994 12.3215 28.332 12.6585 28.3053 12.9215C28.0203 15.9259 26.7823 23.2165 26.153 26.5816C25.8887 28.0054 25.3633 28.4828 24.8556 28.5294C23.7512 28.6309 22.9141 27.8003 21.8453 27.0999C20.1739 26.0036 19.2298 25.3214 17.6059 24.2517C15.7297 23.0155 16.9469 22.336 18.0156 21.2257C18.2947 20.935 23.1575 16.5131 23.2495 16.112C23.2614 16.0618 23.2733 15.8748 23.1605 15.7762C23.0506 15.6774 22.8873 15.7112 22.7686 15.7379C22.5994 15.7759 19.9305 17.5418 14.753 21.0351C13.9959 21.5558 13.3101 21.8096 12.6926 21.7963C12.0158 21.7817 10.7095 21.4127 9.73874 21.0974C8.55124 20.7106 7.60421 20.5061 7.68733 19.8491C7.7289 19.5071 8.20093 19.1571 9.10046 18.7993Z" fill="white"/>
</g>
<defs>
<linearGradient id="paint0_linear_1300_6" x1="1900.5" y1="0" x2="1900.5" y2="3800" gradientUnits="userSpaceOnUse">
<stop stop-color="#2AABEE"/>
<stop offset="1" stop-color="#229ED9"/>
</linearGradient>
<clipPath id="clip0_1300_6">
<rect width="38" height="38" fill="white" transform="translate(0.5)"/>
</clipPath>
</defs>
</svg>
