<svg width="37" height="36" viewBox="0 0 37 36" fill="none" xmlns="http://www.w3.org/2000/svg">
<rect x="0.5" width="36.0606" height="36" rx="8" fill="url(#paint0_linear_131_68)"/>
<path d="M16.887 4.87166C15.7687 5.3773 15.5091 6.683 16.3744 7.48305C16.7339 7.80948 17.0401 7.91829 17.6125 7.91829H18.0985L20.182 9.92163L22.2588 11.9186V14.0499C22.2588 15.7717 22.2788 16.2133 22.352 16.3541C22.4053 16.4501 22.6249 16.6933 22.8446 16.9045L23.244 17.2758L23.2107 17.6534C23.1442 18.3062 23.5236 18.9463 24.1493 19.2663C24.7284 19.5607 25.5871 19.4007 26.073 18.9143C26.3393 18.6519 26.5856 18.1142 26.5789 17.807C26.5723 17.2694 26.1995 16.6869 25.667 16.3861C25.3941 16.2325 25.2809 16.2069 24.8216 16.2069C24.3091 16.2069 24.2824 16.2005 24.0428 15.9765L23.7898 15.7461V13.5443V11.3489L21.4667 9.10237L19.1436 6.86221L19.1768 6.51018C19.2434 5.78053 18.9305 5.24289 18.2582 4.91647C17.7457 4.66685 17.3729 4.66045 16.887 4.87166ZM17.7923 6.20296C17.8855 6.35657 17.8855 6.38217 17.7723 6.50378C17.4728 6.82381 16.9935 6.47818 17.2464 6.13256C17.3862 5.94054 17.6658 5.97894 17.7923 6.20296ZM25.1078 17.5958C25.2077 17.679 25.2143 17.9158 25.1078 18.0182C25.0612 18.063 24.9481 18.095 24.8549 18.095C24.5354 18.095 24.4089 17.807 24.6352 17.5702C24.7484 17.455 24.9281 17.4614 25.1078 17.5958Z" fill="white"/>
<path d="M11.2821 4.91635C10.9959 5.02516 10.5433 5.42198 10.3968 5.6972C10.1905 6.06843 10.1905 6.75328 10.3902 7.12451C10.7296 7.74535 11.4352 8.10378 12.1209 8.01417L12.4404 7.97577L15.0231 10.4272L17.6059 12.8785L17.5992 13.3202V13.7554L17.293 14.0178C16.3345 14.8307 16.5209 16.1428 17.6858 16.7316C17.9986 16.8916 18.6909 16.8724 19.0304 16.706C19.6561 16.3924 19.9889 15.8804 19.9956 15.2403C19.9956 14.7603 19.7626 14.2738 19.3898 13.9858L19.1302 13.7874V13.1858C19.1302 12.8209 19.097 12.5073 19.037 12.3793C18.9838 12.2641 17.7923 11.0672 16.2413 9.58229L13.5387 6.9901L13.5787 6.63167C13.6119 6.36925 13.592 6.17724 13.5054 5.94042C13.359 5.51799 12.8797 5.03156 12.5003 4.92275C12.1741 4.83314 11.5085 4.82674 11.2821 4.91635ZM12.1408 6.21564C12.2607 6.36285 12.1941 6.59327 11.9944 6.69568C11.8346 6.78528 11.808 6.78528 11.6815 6.67648C11.5284 6.54207 11.5018 6.31805 11.6216 6.20284C11.7348 6.09403 12.041 6.10683 12.1408 6.21564ZM18.4779 14.9715C18.7175 15.1635 18.651 15.5347 18.3714 15.5347C18.0852 15.5347 17.9986 15.4707 17.9986 15.2403C17.9986 14.9459 18.2516 14.8051 18.4779 14.9715Z" fill="white"/>
<path d="M23.6055 5.64623C22.8067 5.97906 22.3674 6.84952 22.6203 7.58557C22.9132 8.43044 23.8318 8.91687 24.7038 8.68005C24.9435 8.62245 25.1232 8.50084 25.4094 8.22562L25.8022 7.85439H26.6808H27.5595L28.9374 9.17929L30.3153 10.4978V11.1826V11.8739L30.0823 12.0403C29.8028 12.2451 29.5498 12.6547 29.4566 13.0388C29.3102 13.666 29.6696 14.3765 30.3153 14.7285C31.1274 15.1637 32.1725 14.8629 32.6251 14.05C32.705 13.9028 32.7383 13.698 32.745 13.3588C32.745 12.7764 32.5719 12.3987 32.1392 12.0531L31.853 11.8227L31.8596 10.8882L31.8663 9.95375L31.5401 9.63372C31.3604 9.45451 30.555 8.68006 29.7495 7.912C28.6445 6.84952 28.2318 6.49109 28.0521 6.44629C27.9256 6.41429 27.3665 6.38229 26.8073 6.38229H25.7955L25.4427 6.04306C25.2164 5.83185 24.9834 5.67824 24.8103 5.62703C24.4509 5.52462 23.8784 5.53102 23.6055 5.64623ZM24.4975 6.99033C24.6839 7.25915 24.2778 7.61118 24.0182 7.40636C23.905 7.31035 23.8984 7.00953 24.0049 6.90712C24.1247 6.79192 24.391 6.83672 24.4975 6.99033ZM31.3138 13.1028C31.5534 13.3332 31.4137 13.6404 31.0875 13.602C30.6481 13.5572 30.6881 13.0516 31.1341 12.9812C31.1607 12.9812 31.2406 13.0324 31.3138 13.1028Z" fill="white"/>
<path d="M6.30426 6.20958C5.9448 6.33759 5.56538 6.65762 5.37234 6.99044C5.21258 7.26566 5.18595 7.38087 5.18595 7.8033V8.30254L3.3554 10.0627L1.52484 11.8228L1.50487 13.9862C1.49156 15.1702 1.50487 16.2135 1.52484 16.3031C1.57144 16.4823 3.02923 17.9288 3.30214 18.0697C3.44859 18.1401 3.94783 18.1593 5.93149 18.1593H8.38111L9.72574 19.4522L11.077 20.7515L13.9327 20.7835L16.795 20.8155L17.0347 21.0843C17.1611 21.2315 17.434 21.4299 17.6404 21.5259C18.7188 22.0315 19.9968 21.2187 19.9968 20.0218C19.9968 19.4202 19.4776 18.7481 18.8719 18.5497C18.2395 18.3449 17.5272 18.5369 17.0746 19.0361L16.815 19.3177L14.2788 19.3305L11.7427 19.3434L10.3781 18.0313L9.01348 16.7192L6.46402 16.7L3.92121 16.6808L3.47522 16.2519L3.02257 15.8295V14.127V12.4308L4.66674 10.8499L6.30426 9.27541L6.65706 9.30741C7.20955 9.36502 7.58898 9.23061 7.99503 8.84018C8.68731 8.17453 8.674 7.17606 7.94843 6.55521C7.48247 6.15198 6.8501 6.01757 6.30426 6.20958ZM7.06976 7.48328C7.18293 7.59209 7.16961 7.7905 7.03648 7.93131C6.90335 8.07212 6.76356 8.07852 6.6038 7.93771C6.47067 7.8225 6.4507 7.70729 6.55055 7.52808C6.63043 7.38727 6.94329 7.36167 7.06976 7.48328ZM18.6056 19.9258C18.6522 20.0538 18.6455 20.1306 18.5657 20.2458C18.3926 20.5082 17.9999 20.3994 17.9999 20.0922C17.9999 19.8618 18.113 19.7594 18.346 19.7594C18.4924 19.7594 18.5524 19.7978 18.6056 19.9258Z" fill="white"/>
<path d="M8.11487 10.3632C7.60232 10.536 7.13636 11.0544 7.00988 11.5985C6.89672 12.0977 7.06314 12.5777 7.51578 13.013C7.91518 13.397 8.28795 13.525 8.85375 13.4674L9.22652 13.429L10.7442 14.8691L12.2619 16.3092L12.2286 16.6804C12.0955 18.0437 13.6265 18.9526 14.7848 18.2038C15.6901 17.6213 15.8365 16.5588 15.1176 15.81C14.7315 15.4004 14.3854 15.2659 13.7996 15.2851L13.327 15.2979L11.8159 13.845L10.3049 12.3985L10.3315 11.9505C10.3515 11.5921 10.3315 11.4513 10.2117 11.2208C10.032 10.8624 9.57266 10.4592 9.22652 10.3632C8.91366 10.2736 8.38779 10.2736 8.11487 10.3632ZM8.90701 11.6689C9.04679 11.7969 9.04014 11.9057 8.88704 12.0849C8.78053 12.2129 8.73394 12.2257 8.57418 12.1745C8.23469 12.0593 8.2946 11.5665 8.65406 11.5665C8.73394 11.5665 8.85375 11.6113 8.90701 11.6689ZM14.1258 16.6356C14.2123 16.7188 14.2323 16.9365 14.1524 17.0517C14.0658 17.1861 13.7663 17.2181 13.6465 17.1029C13.4202 16.8853 13.5533 16.5588 13.8728 16.5588C13.966 16.5588 14.0792 16.5908 14.1258 16.6356Z" fill="white"/>
<path d="M30.373 16.8468C30.0202 17.0196 29.6741 17.378 29.5343 17.698C29.3878 18.0308 29.4145 18.6005 29.5875 18.9525C29.6674 19.1189 29.8671 19.3685 30.0335 19.5094L30.3397 19.7654L28.5691 21.4743C27.5972 22.4152 26.7652 23.2472 26.7252 23.324C26.6853 23.4008 26.652 23.5673 26.652 23.6889C26.652 23.8489 26.6121 23.9321 26.5189 23.9833C26.4456 24.0217 26.2659 24.1945 26.1261 24.3673C25.7733 24.7961 25.6668 25.2506 25.8133 25.7306C25.9264 26.1018 26.186 26.4667 26.4656 26.6459C26.6254 26.7547 26.652 26.8123 26.652 27.0875C26.652 27.3947 26.632 27.4267 26.3591 27.6444C25.2075 28.5788 25.8532 30.4094 27.3576 30.4606C27.8835 30.4734 28.2296 30.3454 28.5824 30.0061C28.9152 29.6861 29.1149 29.2317 29.1149 28.822C29.1083 28.3868 28.7555 27.7724 28.3827 27.5355C28.2096 27.4267 28.183 27.3691 28.183 27.1131C28.183 26.8507 28.2096 26.7995 28.4493 26.6139C28.5957 26.5051 28.7954 26.2747 28.8953 26.1082C29.055 25.8586 29.0816 25.737 29.0816 25.3594C29.075 24.8281 28.9086 24.4633 28.4959 24.0921L28.2229 23.8489L30.0335 22.1079C31.072 21.1031 31.8508 20.3094 31.8508 20.239C31.8574 20.1686 31.8641 20.0342 31.8707 19.9382C31.8774 19.823 31.9906 19.6758 32.2102 19.4774L32.5364 19.1829H35.6517L36.5607 19.1829V18.5V17.3908L35.6517 17.3908H32.5364L32.3034 17.1604C31.9772 16.8276 31.6311 16.6867 31.1119 16.6931C30.7857 16.6931 30.606 16.7315 30.373 16.8468ZM31.3915 18.1205C31.478 18.2357 31.4514 18.3445 31.3116 18.4789C31.1518 18.6325 31.0254 18.6389 30.8856 18.5045C30.6326 18.2613 30.8989 17.826 31.2051 17.9796C31.285 18.018 31.3648 18.082 31.3915 18.1205ZM27.6838 25.1354C27.8635 25.321 27.7503 25.609 27.4974 25.6346C27.1512 25.673 26.9915 25.3722 27.2311 25.1226C27.3709 24.969 27.5307 24.9754 27.6838 25.1354ZM27.6505 28.6556C27.8302 28.8284 27.8169 29.0141 27.6172 29.1421C27.4641 29.2381 27.4375 29.2381 27.2844 29.1421C27.0714 29.0077 27.0647 28.7644 27.2644 28.63C27.4574 28.502 27.4907 28.502 27.6505 28.6556Z" fill="white"/>
<path d="M7.60017 20.1049C7.14752 20.2201 6.71484 20.5657 6.50849 20.9561C6.2622 21.4298 6.24223 21.705 6.4153 22.1466C6.59502 22.601 6.80138 22.8443 7.20743 23.0747C7.46703 23.2219 7.58685 23.2475 8.0395 23.2475H8.56537L9.4041 24.0603C9.8634 24.502 10.3094 24.8988 10.3893 24.9372C10.4825 24.982 11.035 25.0076 11.9003 25.0076H13.2716L13.6576 25.3788C14.077 25.7821 14.3699 25.9037 14.9157 25.9037C15.3484 25.9037 15.8676 25.6541 16.1871 25.2892L16.4268 25.0076H18.5702H20.7136L20.8334 25.1804C20.9599 25.3724 21.326 25.7117 21.4126 25.7117C21.4392 25.7117 21.4591 26.3325 21.4591 27.0878V28.4575L21.2262 28.6367C20.2144 29.4047 20.3475 30.832 21.4725 31.3697C22.3245 31.7793 23.3163 31.4209 23.7823 30.5312C24.0885 29.9424 23.8821 29.1551 23.2964 28.6815L22.9902 28.4383V27.0878V25.7373L23.2764 25.5453C23.8355 25.1612 24.0752 24.3356 23.7956 23.7147C23.2764 22.5498 21.6855 22.3258 20.9266 23.3179L20.7602 23.5291L18.5835 23.5355H16.4002L16.054 23.1899C15.6679 22.8123 15.4017 22.7034 14.8359 22.7034C14.3899 22.7034 13.884 22.9403 13.6044 23.2731L13.3847 23.5355H12.2132H11.0416L10.3227 22.8507L9.60379 22.1722L9.65039 21.897C9.75024 21.2441 9.3575 20.5401 8.73178 20.2457C8.27248 20.0409 7.98625 20.0025 7.60017 20.1049ZM8.25917 21.5386C8.31242 21.7562 8.20591 21.897 7.95962 21.9226C7.72664 21.9482 7.57354 21.7626 7.64676 21.545C7.73995 21.2697 8.18594 21.2633 8.25917 21.5386ZM15.0822 24.0924C15.2286 24.2204 15.2353 24.3548 15.0888 24.5084C14.8691 24.7452 14.5363 24.5916 14.5363 24.2588C14.5363 23.9963 14.8558 23.8939 15.0822 24.0924ZM22.431 24.0924C22.5641 24.2652 22.5442 24.4828 22.3844 24.5596C22.1781 24.6684 21.9318 24.5852 21.8852 24.3932C21.8053 24.0795 22.2313 23.8427 22.431 24.0924ZM22.3977 29.68C22.5442 29.7568 22.5708 30.0576 22.4443 30.1792C22.2579 30.3584 21.8585 30.192 21.8585 29.936C21.8585 29.7952 22.0316 29.616 22.1647 29.616C22.2247 29.616 22.3245 29.648 22.3977 29.68Z" fill="white"/>
<defs>
<linearGradient id="paint0_linear_131_68" x1="0.500001" y1="18.3396" x2="36.5606" y2="18.3396" gradientUnits="userSpaceOnUse">
<stop stop-color="#00C99F"/>
<stop offset="1" stop-color="#009ACB"/>
</linearGradient>
</defs>
</svg>
