<svg width="114" height="36" viewBox="0 0 114 36" fill="none" xmlns="http://www.w3.org/2000/svg">
<rect width="36.0529" height="36" rx="8" fill="url(#paint0_linear_170_1273)"/>
<path d="M16.8448 4.31361C15.7213 4.84879 15.4605 6.23078 16.3299 7.07759C16.691 7.42309 16.9986 7.53825 17.5737 7.53825H18.0618L20.1549 9.65866L22.2413 11.7723V14.0282C22.2413 15.8505 22.2614 16.318 22.335 16.467C22.3885 16.5686 22.6091 16.826 22.8298 17.0496L23.231 17.4425L23.1976 17.8422C23.1307 18.5332 23.5119 19.2106 24.1405 19.5494C24.7223 19.861 25.5849 19.6916 26.0731 19.1768C26.3406 18.899 26.588 18.33 26.5813 18.0048C26.5746 17.4357 26.2002 16.8193 25.6652 16.5009C25.391 16.3383 25.2773 16.3112 24.8159 16.3112C24.301 16.3112 24.2743 16.3044 24.0335 16.0673L23.7794 15.8234V13.493V11.1694L21.4456 8.79153L19.1117 6.42046L19.1452 6.04787C19.212 5.27558 18.8977 4.70653 18.2223 4.36103C17.7074 4.09682 17.3329 4.09005 16.8448 4.31361ZM17.7542 5.7227C17.8478 5.88528 17.8478 5.91238 17.7342 6.04109C17.4332 6.37982 16.9518 6.014 17.2059 5.64818C17.3463 5.44494 17.6272 5.48559 17.7542 5.7227ZM25.1035 17.7812C25.2038 17.8693 25.2105 18.12 25.1035 18.2284C25.0567 18.2758 24.943 18.3096 24.8494 18.3096C24.5284 18.3096 24.4013 18.0048 24.6287 17.7541C24.7424 17.6322 24.9229 17.639 25.1035 17.7812Z" fill="white"/>
<path d="M11.2138 4.36112C10.9263 4.47629 10.4715 4.8963 10.3244 5.1876C10.1171 5.58052 10.1171 6.30539 10.3177 6.69831C10.6588 7.35543 11.3676 7.7348 12.0564 7.63996L12.3774 7.59931L14.972 10.1939L17.5667 12.7886L17.56 13.256V13.7167L17.2524 13.9944C16.2894 14.8548 16.4766 16.2435 17.6469 16.8668C17.9612 17.0361 18.6567 17.0158 18.9977 16.8397C19.6263 16.5077 19.9607 15.9658 19.9674 15.2883C19.9674 14.7802 19.7333 14.2654 19.3588 13.9605L19.098 13.7505V13.1137C19.098 12.7276 19.0646 12.3956 19.0044 12.2601C18.9509 12.1382 17.7539 10.8714 16.1958 9.2997L13.4808 6.55605L13.5209 6.17668C13.5543 5.89892 13.5343 5.69569 13.4473 5.44503C13.3002 4.99792 12.8187 4.48306 12.4376 4.3679C12.1099 4.27305 11.4412 4.26628 11.2138 4.36112ZM12.0765 5.73634C12.1968 5.89215 12.13 6.13603 11.9293 6.24442C11.7689 6.33926 11.7421 6.33926 11.615 6.2241C11.4612 6.08183 11.4345 5.84473 11.5549 5.72279C11.6685 5.60762 11.9762 5.62117 12.0765 5.73634ZM18.4427 15.0038C18.6834 15.207 18.6165 15.6 18.3357 15.6C18.0481 15.6 17.9612 15.5322 17.9612 15.2883C17.9612 14.9767 18.2153 14.8277 18.4427 15.0038Z" fill="white"/>
<path d="M23.5942 5.13347C22.7917 5.48574 22.3503 6.40707 22.6044 7.18613C22.8987 8.08036 23.8215 8.59522 24.6975 8.34456C24.9383 8.28359 25.1188 8.15488 25.4064 7.86358L25.8009 7.47066H26.6836H27.5664L28.9506 8.87297L30.3349 10.2685V10.9934V11.725L30.1008 11.9012C29.8199 12.1179 29.5658 12.5515 29.4722 12.958C29.3251 13.6219 29.6862 14.3738 30.3349 14.7464C31.1507 15.2071 32.2006 14.8887 32.6553 14.0283C32.7356 13.8725 32.769 13.6557 32.7757 13.2967C32.7757 12.6802 32.6018 12.2805 32.1671 11.9147L31.8796 11.6708L31.8863 10.6818L31.893 9.69268L31.5653 9.35396C31.3847 9.16427 30.5756 8.34456 29.7664 7.53163C28.6564 6.40707 28.2418 6.0277 28.0612 5.98028C27.9341 5.9464 27.3724 5.91253 26.8107 5.91253H25.7942L25.4398 5.55348C25.2125 5.32993 24.9784 5.16734 24.8045 5.11314C24.4434 5.00475 23.8683 5.01153 23.5942 5.13347ZM24.4902 6.5561C24.6775 6.84063 24.2696 7.21323 24.0088 6.99645C23.8951 6.89483 23.8884 6.57643 23.9954 6.46804C24.1158 6.3461 24.3832 6.39352 24.4902 6.5561ZM31.3379 13.0257C31.5787 13.2696 31.4382 13.5948 31.1106 13.5541C30.6692 13.5067 30.7093 12.9715 31.1574 12.897C31.1841 12.897 31.2644 12.9512 31.3379 13.0257Z" fill="white"/>
<path d="M6.21351 5.72964C5.85241 5.86513 5.47123 6.20386 5.27731 6.55613C5.11681 6.84743 5.09006 6.96937 5.09006 7.41648V7.94489L3.25108 9.80787L1.4121 11.6708L1.39204 13.9606C1.37867 15.2139 1.39204 16.3181 1.4121 16.413C1.45891 16.6027 2.92341 18.1337 3.19759 18.2827C3.3447 18.3572 3.84624 18.3776 5.83903 18.3776H8.29992L9.65074 19.746L11.0082 21.1212L13.877 21.1551L16.7525 21.189L16.9933 21.4735C17.1203 21.6293 17.3945 21.8393 17.6018 21.9409C18.6851 22.4761 19.9691 21.6158 19.9691 20.3489C19.9691 19.7121 19.4475 19.0008 18.839 18.7908C18.2037 18.574 17.4881 18.7773 17.0334 19.3057L16.7726 19.6037L14.2248 19.6173L11.677 19.6308L10.3061 18.2421L8.9352 16.8533L6.37401 16.833L3.8195 16.8127L3.37145 16.3588L2.91672 15.9117V14.1097V12.3144L4.56846 10.6411L6.21351 8.97461L6.56794 9.00848C7.12297 9.06945 7.50414 8.92719 7.91206 8.51395C8.60753 7.8094 8.59416 6.75259 7.86525 6.09546C7.39715 5.66867 6.76186 5.52641 6.21351 5.72964ZM6.98254 7.07776C7.09622 7.19293 7.08285 7.40294 6.94911 7.55197C6.81536 7.70101 6.67493 7.70779 6.51444 7.55875C6.38069 7.43681 6.36063 7.31487 6.46094 7.12518C6.54119 6.97614 6.85549 6.94905 6.98254 7.07776ZM18.5715 20.2473C18.6183 20.3828 18.6116 20.4641 18.5313 20.586C18.3575 20.8638 17.9629 20.7486 17.9629 20.4235C17.9629 20.1796 18.0766 20.0712 18.3107 20.0712C18.4578 20.0712 18.518 20.1118 18.5715 20.2473Z" fill="white"/>
<path d="M8.03235 10.1261C7.51743 10.309 7.04933 10.8578 6.92227 11.4336C6.80859 11.962 6.97577 12.4701 7.4305 12.9308C7.83173 13.3372 8.20622 13.4727 8.77463 13.4117L9.14911 13.3711L10.6738 14.8954L12.1985 16.4196L12.165 16.8125C12.0313 18.2555 13.5694 19.2175 14.7329 18.4248C15.6424 17.8084 15.7895 16.6838 15.0673 15.8912C14.6794 15.4576 14.3317 15.3154 13.7432 15.3357L13.2684 15.3492L11.7504 13.8114L10.2324 12.2804L10.2592 11.8062C10.2792 11.4268 10.2592 11.2778 10.1388 11.0339C9.95826 10.6545 9.49685 10.2277 9.14911 10.1261C8.83481 10.0313 8.30652 10.0313 8.03235 10.1261ZM8.82813 11.5081C8.96856 11.6436 8.96187 11.7588 8.80806 11.9485C8.70107 12.084 8.65426 12.0975 8.49377 12.0433C8.15272 11.9214 8.2129 11.3997 8.57401 11.3997C8.65426 11.3997 8.77463 11.4472 8.82813 11.5081ZM14.0709 16.7651C14.1578 16.8532 14.1779 17.0835 14.0976 17.2054C14.0107 17.3477 13.7098 17.3816 13.5894 17.2596C13.362 17.0293 13.4958 16.6838 13.8168 16.6838C13.9104 16.6838 14.0241 16.7177 14.0709 16.7651Z" fill="white"/>
<path d="M30.393 16.9887C30.0386 17.1716 29.6909 17.5509 29.5505 17.8897C29.4033 18.2419 29.4301 18.8449 29.6039 19.2175C29.6842 19.3936 29.8848 19.6578 30.052 19.8068L30.3596 20.0778L28.5808 21.8866C27.6045 22.8824 26.7686 23.7631 26.7285 23.8444C26.6883 23.9257 26.6549 24.1019 26.6549 24.2306C26.6549 24.3999 26.6148 24.488 26.5211 24.5422C26.4476 24.5828 26.267 24.7657 26.1266 24.9487C25.7722 25.4025 25.6652 25.8835 25.8123 26.3916C25.926 26.7845 26.1868 27.1707 26.4676 27.3604C26.6281 27.4755 26.6549 27.5365 26.6549 27.8278C26.6549 28.153 26.6348 28.1869 26.3607 28.4172C25.2038 29.4063 25.8524 31.3438 27.3637 31.3979C27.892 31.4115 28.2398 31.276 28.5942 30.917C28.9285 30.5782 29.1292 30.0973 29.1292 29.6637C29.1225 29.203 28.768 28.5527 28.3936 28.302C28.2197 28.1869 28.1929 28.1259 28.1929 27.8549C28.1929 27.5772 28.2197 27.523 28.4604 27.3265C28.6076 27.2113 28.8082 26.9674 28.9085 26.7913C29.069 26.5271 29.0957 26.3984 29.0957 25.9987C29.089 25.4364 28.9219 25.0503 28.5072 24.6574L28.2331 24.3999L30.052 22.5573C31.0952 21.4937 31.8776 20.6536 31.8776 20.5791C31.8843 20.5046 31.891 20.3623 31.8977 20.2607C31.9043 20.1388 32.018 19.983 32.2387 19.773L32.5664 19.4613H35.696H36.0529V18.3368V17.5645H35.696H32.5664L32.3323 17.3206C32.0047 16.9683 31.6569 16.8193 31.1353 16.8261C30.8076 16.8261 30.6271 16.8667 30.393 16.9887ZM31.4162 18.3368C31.5031 18.4587 31.4764 18.5739 31.3359 18.7162C31.1754 18.8787 31.0484 18.8855 30.908 18.7433C30.6538 18.4858 30.9213 18.0252 31.2289 18.1877C31.3092 18.2284 31.3894 18.2961 31.4162 18.3368ZM27.6914 25.7616C27.872 25.9581 27.7583 26.2629 27.5042 26.29C27.1564 26.3306 26.9959 26.0122 27.2367 25.748C27.3771 25.5855 27.5376 25.5922 27.6914 25.7616ZM27.658 29.4875C27.8385 29.6705 27.8252 29.8669 27.6245 30.0024C27.4707 30.104 27.444 30.104 27.2902 30.0024C27.0762 29.8601 27.0695 29.6027 27.2701 29.4605C27.464 29.325 27.4975 29.325 27.658 29.4875Z" fill="white"/>
<path d="M7.51517 20.4369C7.06044 20.5588 6.62577 20.9247 6.41847 21.3379C6.17104 21.8392 6.15098 22.1305 6.32485 22.598C6.5054 23.0789 6.7127 23.3364 7.12062 23.5802C7.38142 23.7361 7.50179 23.7632 7.95652 23.7632H8.48481L9.3274 24.6235C9.78882 25.091 10.2369 25.511 10.3171 25.5516C10.4107 25.599 10.9658 25.6261 11.8351 25.6261H13.2127L13.6005 26.0191C14.0218 26.4458 14.3161 26.5746 14.8644 26.5746C15.2991 26.5746 15.8207 26.3104 16.1417 25.9242L16.3824 25.6261H18.5357H20.689L20.8093 25.809C20.9364 26.0123 21.3042 26.3713 21.3911 26.3713C21.4179 26.3713 21.4379 27.0285 21.4379 27.8278V29.2776L21.2039 29.4673C20.1874 30.2802 20.3212 31.7909 21.4513 32.36C22.3073 32.7935 23.3037 32.4141 23.7718 31.4725C24.0794 30.8492 23.8721 30.016 23.2836 29.5147L22.976 29.2572V27.8278V26.3984L23.2635 26.1952C23.8253 25.7887 24.066 24.9148 23.7851 24.2577C23.2635 23.0247 21.6653 22.7876 20.9029 23.8377L20.7358 24.0612L18.5491 24.068H16.3556L16.0079 23.7022C15.6201 23.3025 15.3526 23.1873 14.7842 23.1873C14.3361 23.1873 13.8279 23.438 13.547 23.7903L13.3263 24.068H12.1494H10.9725L10.2502 23.3431L9.52802 22.6251L9.57483 22.3337C9.67513 21.6428 9.28059 20.8976 8.65199 20.5859C8.19058 20.3692 7.90303 20.3285 7.51517 20.4369ZM8.1772 21.9544C8.2307 22.1847 8.1237 22.3337 7.87628 22.3608C7.64222 22.3879 7.48842 22.1915 7.56198 21.9612C7.6556 21.6699 8.10364 21.6631 8.1772 21.9544ZM15.0316 24.6574C15.1787 24.7929 15.1854 24.9351 15.0383 25.0977C14.8176 25.3484 14.4832 25.1858 14.4832 24.8335C14.4832 24.5558 14.8042 24.4474 15.0316 24.6574ZM22.4143 24.6574C22.548 24.8403 22.5279 25.0706 22.3674 25.1519C22.1601 25.2671 21.9127 25.179 21.8659 24.9758C21.7857 24.6438 22.2136 24.3932 22.4143 24.6574ZM22.3808 30.5715C22.5279 30.6528 22.5547 30.9712 22.4276 31.0999C22.2404 31.2896 21.8392 31.1135 21.8392 30.8425C21.8392 30.6934 22.013 30.5038 22.1468 30.5038C22.207 30.5038 22.3073 30.5376 22.3808 30.5715Z" fill="white"/>
<path d="M48.405 10.7564C48.405 11.2567 48.3103 11.6984 48.1207 12.0816C47.9311 12.4647 47.6761 12.7802 47.3556 13.0281C46.9764 13.3256 46.5702 13.5374 46.1368 13.6636C45.7035 13.7853 45.1438 13.8461 44.4577 13.8461H41.5666V3.77928H44.241C44.9587 3.77928 45.4959 3.80407 45.8525 3.85365C46.2136 3.89872 46.5589 4.00915 46.8884 4.18493C47.2495 4.37874 47.5136 4.63339 47.6806 4.9489C47.8476 5.2599 47.9311 5.62723 47.9311 6.05091C47.9311 6.52417 47.8047 6.94785 47.5519 7.32195C47.3037 7.69604 46.9584 7.98901 46.516 8.20085V8.25494C47.1163 8.4172 47.5813 8.71467 47.9108 9.14737C48.2403 9.57555 48.405 10.1119 48.405 10.7564ZM46.5363 6.24022C46.5363 5.99683 46.4957 5.78724 46.4144 5.61146C46.3332 5.43117 46.2023 5.28919 46.0217 5.18553C45.8051 5.06383 45.5636 4.98946 45.2973 4.96242C45.031 4.93538 44.6631 4.92186 44.1936 4.92186H42.9072V7.86957H44.4306C44.8504 7.86957 45.1596 7.84929 45.3582 7.80873C45.5568 7.76365 45.7622 7.67351 45.9743 7.53829C46.1775 7.40758 46.3219 7.23631 46.4077 7.02447C46.4934 6.81263 46.5363 6.55121 46.5363 6.24022ZM47.0103 10.8105C47.0103 10.4319 46.9561 10.1209 46.8478 9.87754C46.7394 9.62964 46.5205 9.42005 46.191 9.24878C45.9789 9.1361 45.7464 9.06398 45.4936 9.03243C45.2454 9.00088 44.891 8.98511 44.4306 8.98511H42.9072V12.7036H43.9973C44.5841 12.7036 45.0468 12.6765 45.3853 12.6224C45.7238 12.5683 46.0217 12.4534 46.279 12.2776C46.5318 12.1018 46.7169 11.9035 46.8342 11.6827C46.9516 11.4573 47.0103 11.1666 47.0103 10.8105Z" fill="white"/>
<path d="M50.9441 13.8461H49.6712V6.2943H50.9441V13.8461ZM51.0321 5.03003H49.5832V3.71167H51.0321V5.03003Z" fill="white"/>
<path d="M58.7846 13.8461H57.5117V10.4454H54.0857V13.8461H52.8128V6.2943H54.0857V9.35019H57.5117V6.2943H58.7846V13.8461Z" fill="white"/>
<path d="M66.5981 13.8461H65.3252V10.4454H61.8992V13.8461H60.6263V6.2943H61.8992V9.35019H65.3252V6.2943H66.5981V13.8461Z" fill="white"/>
<path d="M74.4115 13.8461H73.1521V8.21437L69.5907 13.8461H68.4397V6.2943H69.6991V11.8382L73.2199 6.2943H74.4115V13.8461Z" fill="white"/>
<path d="M82.9291 15.658H81.7442V13.8461H76.2532V6.2943H77.5261V12.7509H80.9047V6.2943H82.1776V12.7509H82.9291V15.658Z" fill="white"/>
<path d="M89.9165 11.5069C89.9165 11.872 89.8421 12.2033 89.6931 12.5007C89.5487 12.7982 89.35 13.0393 89.0973 13.2241C88.7994 13.4495 88.4811 13.6095 88.1426 13.7042C87.8041 13.7988 87.3685 13.8461 86.8358 13.8461H84.1885V6.2943H85.4614V9.23526H86.8697C87.4384 9.23526 87.8785 9.26455 88.19 9.32315C88.506 9.38174 88.8197 9.52597 89.1311 9.75584C89.3929 9.94965 89.5893 10.1975 89.7202 10.4995C89.8511 10.8015 89.9165 11.1373 89.9165 11.5069ZM88.603 11.5272C88.603 11.2973 88.5624 11.0967 88.4811 10.9255C88.4044 10.7497 88.2758 10.6077 88.0952 10.4995C87.9056 10.3869 87.689 10.3192 87.4452 10.2967C87.206 10.2742 86.8607 10.2629 86.4093 10.2629H85.4614V12.832H86.3822C86.8336 12.832 87.1834 12.814 87.4317 12.7779C87.6799 12.7374 87.8943 12.663 88.0749 12.5548C88.26 12.4376 88.3931 12.3002 88.4744 12.1424C88.5601 11.9801 88.603 11.7751 88.603 11.5272Z" fill="white"/>
<path d="M97.2222 13.8461H95.6378L93.0446 10.3643H92.4082V13.8461H91.1353V6.2943H92.4082V9.58006C92.7377 9.57555 93.0175 9.50794 93.2477 9.37723C93.4825 9.24202 93.6811 8.98285 93.8436 8.59974C93.8932 8.48706 93.9474 8.35635 94.0061 8.20761C94.0693 8.05888 94.1189 7.92817 94.155 7.81549C94.3536 7.2611 94.629 6.86897 94.9811 6.6391C95.3331 6.40924 95.7913 6.2943 96.3555 6.2943H96.7008V7.38955H96.4097C96.0531 7.38955 95.7845 7.46392 95.604 7.61266C95.4279 7.75689 95.279 8.02282 95.1571 8.41044C95.0307 8.80257 94.8818 9.10906 94.7102 9.32991C94.5387 9.54626 94.3491 9.71302 94.1415 9.83021L97.2222 13.8461Z" fill="white"/>
<path d="M102.266 11.9869V9.89106C101.964 9.9181 101.58 9.95641 101.115 10.006C100.655 10.0511 100.283 10.1164 99.9982 10.2021C99.6596 10.3057 99.3798 10.4657 99.1586 10.6821C98.9374 10.8939 98.8268 11.1914 98.8268 11.5745C98.8268 12.0072 98.9487 12.334 99.1925 12.5548C99.4362 12.7757 99.7928 12.8861 100.262 12.8861C100.664 12.8861 101.027 12.8005 101.352 12.6292C101.677 12.4534 101.982 12.2393 102.266 11.9869ZM102.266 13.0416C102.163 13.1182 102.023 13.2264 101.847 13.3661C101.675 13.5013 101.508 13.6095 101.346 13.6906C101.12 13.8078 100.901 13.898 100.689 13.9611C100.481 14.0242 100.188 14.0557 99.8086 14.0557C99.4971 14.0557 99.2015 13.9971 98.9216 13.8799C98.6418 13.7628 98.3958 13.5982 98.1836 13.3864C97.9805 13.1791 97.818 12.9244 97.6961 12.6224C97.5743 12.3159 97.5133 11.9937 97.5133 11.6556C97.5133 11.1328 97.6239 10.6888 97.8451 10.3237C98.0663 9.95416 98.4161 9.66119 98.8946 9.44484C99.3189 9.25103 99.8199 9.11807 100.398 9.04595C100.975 8.96933 101.598 8.91299 102.266 8.87693V8.63354C102.266 8.33607 102.221 8.09719 102.131 7.9169C102.041 7.7321 101.914 7.59013 101.752 7.49097C101.589 7.3873 101.391 7.31969 101.156 7.28814C100.921 7.25208 100.68 7.23406 100.432 7.23406C100.138 7.23406 99.7928 7.27913 99.3956 7.36927C98.9984 7.45491 98.6012 7.58111 98.2039 7.74788H98.1295V6.45656C98.3642 6.38895 98.7005 6.31458 99.1383 6.23345C99.5761 6.15233 100.009 6.11176 100.438 6.11176C100.957 6.11176 101.395 6.15233 101.752 6.23345C102.108 6.31458 102.429 6.46107 102.713 6.67291C102.989 6.88024 103.194 7.14842 103.329 7.47745C103.465 7.80647 103.533 8.20761 103.533 8.68087V13.8461H102.266V13.0416Z" fill="white"/>
<path d="M44.9654 33.2308H41.0519V32.2031H42.3384V24.1916H41.0519V23.1639H44.9654V24.1916H43.679V32.2031H44.9654V33.2308Z" fill="white"/>
<path d="M48.9737 33.2308V24.3538H45.5883V23.1639H53.6997V24.3538H50.3143V33.2308H48.9737Z" fill="white"/>
<path d="M57.9585 33.2308L61.3574 23.1639H63.0095L66.4084 33.2308H64.9933L64.0792 30.4183H60.2267L59.3126 33.2308H57.9585ZM63.7068 29.2757L62.1496 24.5296L60.5991 29.2757H63.7068Z" fill="white"/>
<path d="M73.3484 33.2308H71.764L69.1708 29.749H68.5344V33.2308H67.2615V25.6789H68.5344V28.9647C68.8639 28.9602 69.1438 28.8926 69.374 28.7619C69.6087 28.6267 69.8073 28.3675 69.9698 27.9844C70.0194 27.8717 70.0736 27.741 70.1323 27.5923C70.1955 27.4435 70.2451 27.3128 70.2812 27.2001C70.4799 26.6457 70.7552 26.2536 71.1073 26.0237C71.4594 25.7939 71.9175 25.6789 72.4817 25.6789H72.827V26.7742H72.5359C72.1793 26.7742 71.9107 26.8486 71.7302 26.9973C71.5541 27.1415 71.4052 27.4075 71.2833 27.7951C71.1569 28.1872 71.008 28.4937 70.8364 28.7146C70.6649 28.9309 70.4753 29.0977 70.2677 29.2149L73.3484 33.2308Z" fill="white"/>
<path d="M78.3926 31.3716V29.2757C78.0902 29.3027 77.7065 29.3411 77.2416 29.3906C76.7812 29.4357 76.4088 29.5011 76.1244 29.5867C75.7859 29.6904 75.506 29.8504 75.2848 30.0667C75.0637 30.2786 74.9531 30.576 74.9531 30.9591C74.9531 31.3918 75.0749 31.7186 75.3187 31.9395C75.5624 32.1603 75.919 32.2707 76.3885 32.2707C76.7902 32.2707 77.1536 32.1851 77.4786 32.0138C77.8036 31.8381 78.1082 31.624 78.3926 31.3716ZM78.3926 32.4262C78.2888 32.5029 78.1489 32.611 77.9728 32.7508C77.8013 32.886 77.6343 32.9942 77.4718 33.0753C77.2461 33.1925 77.0272 33.2826 76.815 33.3457C76.6074 33.4088 76.314 33.4404 75.9348 33.4404C75.6234 33.4404 75.3277 33.3818 75.0479 33.2646C74.768 33.1474 74.522 32.9829 74.3098 32.771C74.1067 32.5637 73.9442 32.3091 73.8223 32.0071C73.7005 31.7006 73.6395 31.3783 73.6395 31.0403C73.6395 30.5174 73.7501 30.0735 73.9713 29.7084C74.1925 29.3388 74.5423 29.0458 75.0208 28.8295C75.4451 28.6357 75.9461 28.5027 76.5239 28.4306C77.1017 28.354 77.7246 28.2976 78.3926 28.2616V28.0182C78.3926 27.7207 78.3475 27.4818 78.2572 27.3015C78.1669 27.1167 78.0405 26.9748 77.878 26.8756C77.7155 26.7719 77.5169 26.7043 77.2822 26.6728C77.0475 26.6367 76.806 26.6187 76.5577 26.6187C76.2643 26.6187 75.919 26.6638 75.5218 26.7539C75.1246 26.8396 74.7274 26.9658 74.3302 27.1325H74.2557V25.8412C74.4904 25.7736 74.8267 25.6992 75.2645 25.6181C75.7024 25.537 76.1357 25.4964 76.5645 25.4964C77.0836 25.4964 77.5214 25.537 77.878 25.6181C78.2346 25.6992 78.5551 25.8457 78.8395 26.0576C79.1148 26.2649 79.3202 26.5331 79.4556 26.8621C79.591 27.1911 79.6587 27.5923 79.6587 28.0655V33.2308H78.3926V32.4262Z" fill="white"/>
<path d="M87.9394 35.0427H86.7545V33.2105H81.7712V35.0427H80.5863V32.149H81.0874C81.5162 31.4459 81.866 30.5287 82.1368 29.3974C82.4122 28.2616 82.5498 27.0221 82.5498 25.6789H87.1878V32.149H87.9394V35.0427ZM85.9149 32.149V26.7472H83.7483C83.6896 27.874 83.5339 28.9039 83.2811 29.8368C83.0328 30.7653 82.7191 31.5361 82.34 32.149H85.9149Z" fill="white"/>
<path d="M92.4825 33.4066C91.2773 33.4066 90.3407 33.0685 89.6727 32.3924C89.0091 31.7118 88.6774 30.7473 88.6774 29.4988C88.6774 28.2683 89.0001 27.2903 89.6456 26.5646C90.2911 25.8344 91.1352 25.4694 92.1779 25.4694C92.6473 25.4694 93.0626 25.537 93.4237 25.6722C93.7848 25.8074 94.1007 26.0192 94.3716 26.3077C94.6424 26.5962 94.85 26.95 94.9945 27.3692C95.1389 27.7838 95.2112 28.2931 95.2112 28.8971V29.5867H89.9706C89.9706 30.4656 90.1918 31.1372 90.6341 31.6014C91.0765 32.0657 91.6881 32.2978 92.469 32.2978C92.7489 32.2978 93.0219 32.2662 93.2883 32.2031C93.5591 32.14 93.8028 32.0589 94.0195 31.9597C94.2497 31.8561 94.4438 31.7569 94.6018 31.6623C94.7598 31.5631 94.8907 31.4707 94.9945 31.3851H95.069V32.771C94.92 32.8296 94.7349 32.904 94.5138 32.9942C94.2926 33.0798 94.094 33.1474 93.9179 33.197C93.6697 33.2646 93.444 33.3164 93.2409 33.3525C93.0423 33.3885 92.7895 33.4066 92.4825 33.4066ZM93.9721 28.6131C93.9631 28.2706 93.9225 27.9754 93.8502 27.7275C93.778 27.4796 93.6742 27.27 93.5388 27.0987C93.3898 26.9094 93.198 26.7652 92.9633 26.666C92.7331 26.5669 92.4464 26.5173 92.1034 26.5173C91.7648 26.5173 91.476 26.5691 91.2367 26.6728C91.002 26.7719 90.7876 26.9184 90.5935 27.1122C90.4039 27.3106 90.2595 27.5314 90.1602 27.7748C90.0609 28.0137 89.9977 28.2931 89.9706 28.6131H93.9721Z" fill="white"/>
<path d="M103.512 33.2308H102.253V27.2948L100.438 31.1484H99.4903L97.6893 27.2948V33.2308H96.4976V25.6789H98.0346L100.025 29.8707L101.948 25.6789H103.512V33.2308Z" fill="white"/>
<path d="M106.654 33.2308H105.381V25.6789H106.654V33.2308ZM106.742 24.4147H105.293V23.0963H106.742V24.4147Z" fill="white"/>
<path d="M114 33.2308H112.727V30.2357H111.468L109.227 33.2308H107.744L110.175 30.1208C109.547 29.936 109.087 29.6611 108.793 29.296C108.504 28.9309 108.36 28.4419 108.36 27.8289C108.36 27.4548 108.441 27.128 108.604 26.8486C108.771 26.5646 108.994 26.3257 109.274 26.1319C109.5 25.9787 109.784 25.866 110.127 25.7939C110.47 25.7173 110.854 25.6789 111.278 25.6789H114V33.2308ZM112.727 29.2351V26.6931H111.346C111.052 26.6931 110.82 26.7088 110.648 26.7404C110.481 26.7719 110.319 26.8328 110.161 26.9229C109.998 27.0221 109.874 27.1573 109.789 27.3286C109.707 27.4954 109.667 27.6756 109.667 27.8695C109.667 28.1173 109.694 28.3202 109.748 28.4779C109.807 28.6312 109.91 28.7731 110.059 28.9039C110.217 29.0391 110.409 29.1292 110.635 29.1743C110.865 29.2149 111.116 29.2351 111.386 29.2351H112.727Z" fill="white"/>
<defs>
<linearGradient id="paint0_linear_170_1273" x1="5.42585e-07" y1="18.3396" x2="36.0529" y2="18.3396" gradientUnits="userSpaceOnUse">
<stop stop-color="#00C99F"/>
<stop offset="1" stop-color="#009ACB"/>
</linearGradient>
</defs>
</svg>
