<svg width="27" height="32" viewBox="0 0 27 32" fill="none" xmlns="http://www.w3.org/2000/svg">
<path fill-rule="evenodd" clip-rule="evenodd" d="M16.3131 5.27727C16.3131 2.36393 18.6881 1.52027e-05 21.6141 1.52027e-05C22.3088 -0.0016502 22.997 0.133529 23.6394 0.397835C24.2819 0.662141 24.8659 1.0504 25.3583 1.54043C25.8507 2.03047 26.2418 2.6127 26.5092 3.25386C26.7765 3.89503 26.915 4.58258 26.9167 5.27727C26.9167 8.19218 24.5417 10.5561 21.6141 10.5561C20.912 10.557 20.2168 10.4183 19.5688 10.1481C18.9208 9.87791 18.3329 9.48162 17.8394 8.98226L10.5007 13.9793C10.7051 14.9973 10.6048 16.0531 10.2125 17.0145L18.259 22.3028C19.2067 21.5299 20.3927 21.1087 21.6157 21.1106C22.3104 21.1091 22.9985 21.2445 23.6409 21.509C24.2832 21.7735 24.8672 22.162 25.3595 22.6521C25.8517 23.1423 26.2426 23.7247 26.5098 24.3659C26.7769 25.0072 26.9152 25.6947 26.9167 26.3894C26.9167 29.3028 24.5417 31.6667 21.6141 31.6667C20.2114 31.6696 18.8649 31.1153 17.8709 30.1257C16.8768 29.1361 16.3164 27.7921 16.3131 26.3894C16.3119 25.6494 16.4678 24.9176 16.7707 24.2424L8.7875 19C7.82073 19.8406 6.58211 20.3024 5.301 20.2999C4.60626 20.3016 3.918 20.1664 3.27555 19.9019C2.63309 19.6375 2.04904 19.2491 1.55675 18.7589C1.06447 18.2686 0.6736 17.6862 0.406486 17.0449C0.139372 16.4035 0.00124604 15.7158 0 15.0211C0.00145377 14.3265 0.139733 13.639 0.40694 12.9978C0.674147 12.3567 1.06505 11.7744 1.55731 11.2844C2.04957 10.7943 2.63356 10.406 3.27591 10.1417C3.91826 9.87737 4.60639 9.74218 5.301 9.74385C6.98567 9.74385 8.4835 10.5244 9.45408 11.7404L16.568 6.89701C16.3987 6.37377 16.3127 5.8272 16.3131 5.27727Z" fill="#E24077"/>
</svg>
