<svg width="180" height="45" viewBox="0 0 180 45" fill="none" xmlns="http://www.w3.org/2000/svg">
<g clip-path="url(#clip0_16_1583)">
<path d="M7.90215 4.35088C7.90215 6.55866 6.15332 8.31189 3.95107 8.31189C1.74883 8.31189 0 6.55866 0 4.35088C0 2.14311 1.74883 0.389871 3.95107 0.389871C6.08854 0.324936 7.90215 2.14311 7.90215 4.35088Z" fill="#8BC53F"/>
<path d="M31.9324 18.6349V29.544C31.9324 31.3622 32.1915 32.7907 32.7096 33.8297C31.8677 34.5439 30.9608 34.8686 29.8598 34.8686C28.8233 34.8686 28.0461 34.6089 27.6574 34.0894C27.2689 33.57 27.0744 32.7907 27.0744 31.7518V19.8686C27.0744 18.2453 26.8802 17.0765 26.4268 16.4272C26.0381 15.7129 25.2609 15.3882 24.2246 15.3882C23.1881 15.3882 22.1518 15.648 21.0508 16.1674C19.9496 16.6869 19.0429 17.4012 18.2008 18.3103V34.5439C17.6826 34.6738 16.9053 34.7387 15.8042 34.7387C15.2861 34.7387 14.8326 34.7387 14.444 34.6738C14.0554 34.6738 13.6668 34.6089 13.3429 34.5439V11.4921L13.602 11.2324H15.4156C17.0997 11.2324 18.0065 12.2064 18.0712 14.1545C20.3383 12.0766 22.7996 11.0376 25.5201 11.0376C27.5927 11.0376 29.1473 11.7519 30.1836 13.1155C31.4141 14.4142 31.9324 16.2973 31.9324 18.6349Z" fill="#4B4D4D"/>
<path d="M6.2829 14.0896C6.21812 12.1415 5.31133 11.1675 3.62726 11.1675H1.81365L1.55457 11.4272V34.4791C1.87843 34.544 2.20228 34.6088 2.65567 34.6088C3.04431 34.6088 3.49772 34.6739 4.01589 34.6739C5.05224 34.6739 5.89427 34.6088 6.41244 34.4791V18.2454C6.2829 17.2064 6.2829 15.0636 6.2829 14.0896Z" fill="#4B4D4D"/>
<path d="M40.0933 34.5452V14.87L36.0774 14.935C36.0127 14.6752 35.9479 14.4155 35.9479 14.0908C35.8832 13.7662 35.8832 13.4415 35.8832 13.1817C35.8832 12.4675 35.9479 11.8831 36.0774 11.3636L39.8342 11.4285C39.6399 9.5454 39.5752 8.11684 39.5752 7.27267C39.5752 6.23374 39.7695 5.25971 40.0933 4.35062C40.4171 3.44154 40.8707 2.66233 41.5183 2.01298C42.1661 1.36363 42.8784 0.844151 43.7854 0.519478C44.6274 0.12987 45.6637 0 46.7001 0C48.9022 0 50.9102 0.389608 52.7886 1.10389C52.7886 2.53245 52.3999 3.57141 51.6876 4.35062C50.9751 4.15582 50.2626 3.96101 49.6796 3.83115C49.0318 3.70127 48.4489 3.63634 47.9306 3.63634C46.6352 3.63634 45.6637 3.96101 45.0808 4.67529C44.4979 5.38957 44.2387 6.42853 44.2387 7.85709C44.2387 8.37658 44.2387 8.96098 44.3034 9.5454C44.3683 10.1298 44.433 10.7791 44.5626 11.4934L51.1693 11.4285C51.234 11.6882 51.2989 12.0129 51.2989 12.2727C51.3636 12.5973 51.3636 12.922 51.3636 13.2467C51.3636 13.5713 51.3636 13.896 51.2989 14.1558C51.2989 14.4804 51.234 14.7402 51.1693 14.9999L44.8864 14.935V34.6102C44.5626 34.6751 44.1739 34.74 43.7854 34.74C43.3967 34.74 42.9433 34.8051 42.5546 34.8051C42.1012 34.8051 41.7126 34.8051 41.3241 34.74C40.7411 34.6102 40.4171 34.5452 40.0933 34.5452Z" fill="#4B4D4D"/>
<path d="M62.6987 14.4789C59.3306 14.4789 57.6465 17.336 57.6465 22.9853C57.6465 28.6347 59.3306 31.4918 62.6987 31.4918C66.1316 31.4918 67.8155 28.6347 67.8155 22.9853C67.8155 17.2711 66.0667 14.4789 62.6987 14.4789ZM69.435 32.5308C67.7509 34.219 65.4838 35.1282 62.634 35.1282C61.0145 35.1282 59.5895 34.8683 58.359 34.2839C57.1282 33.6996 56.0919 32.8553 55.1852 31.8164C54.3431 30.7126 53.6955 29.4788 53.2419 27.9854C52.7885 26.4918 52.5943 24.8684 52.5943 22.9853C52.5943 21.1671 52.7885 19.5438 53.2419 18.0503C53.6955 16.5568 54.3431 15.2581 55.1852 14.2192C56.0272 13.1152 57.0635 12.336 58.359 11.7516C59.5895 11.1672 61.0145 10.9075 62.634 10.9075C64.2532 10.9075 65.6782 11.1672 66.9088 11.7516C68.1395 12.336 69.1759 13.1802 70.0826 14.2192C70.9247 15.323 71.5725 16.5568 72.0259 18.0503C72.4792 19.5438 72.6735 21.232 72.6735 22.9853C72.7384 27.1411 71.6372 30.3229 69.435 32.5308Z" fill="#4B4D4D"/>
<path d="M87.9591 14.8695C85.9511 14.8695 84.2023 15.9084 82.842 17.9214V29.4148C83.6194 29.9344 84.4613 30.3889 85.1738 30.6486C85.9511 30.9733 86.6637 31.1031 87.3762 31.1031C88.8658 31.1031 90.0317 30.3889 90.8738 28.9603C91.7805 27.5318 92.2339 25.4539 92.2339 22.7916C92.2339 20.0642 91.8454 18.0513 91.0033 16.7526C90.226 15.5188 89.1896 14.8695 87.9591 14.8695ZM88.1533 34.9343C86.4045 34.9343 84.6557 34.4149 82.842 33.3758V41.9473C82.842 43.0511 82.6478 43.8304 82.2591 44.2849C81.8706 44.7394 81.2228 44.9991 80.2511 44.9991H78.3728L78.1136 44.7394V11.4929L78.3728 11.2331H79.8626C81.417 11.2331 82.3887 12.0123 82.7125 13.6357C84.5262 11.7526 86.6636 10.8435 89.1896 10.8435C90.4204 10.8435 91.5863 11.1032 92.5579 11.6877C93.5293 12.2721 94.3714 13.0513 95.0839 14.0902C95.7317 15.1292 96.2498 16.4279 96.6385 17.9214C97.0272 19.4149 97.1565 21.1031 97.1565 22.9864C97.1565 24.8694 96.8976 26.5577 96.4442 28.0511C95.9907 29.5448 95.343 30.8434 94.501 31.8174C93.6589 32.8564 92.6875 33.6356 91.651 34.155C90.55 34.6746 89.3841 34.9343 88.1533 34.9343Z" fill="#2978A1"/>
<path d="M102.663 27.2722V16.3632C102.663 14.4801 102.403 13.1165 101.885 12.1425C102.663 11.4282 103.699 11.1035 104.93 11.1035C106.614 11.1035 107.521 12.1425 107.521 14.1554V26.0385C107.521 27.6619 107.715 28.8307 108.103 29.4801C108.492 30.1942 109.204 30.519 110.241 30.519C111.277 30.519 112.314 30.2593 113.35 29.7397C114.386 29.2204 115.358 28.506 116.2 27.6619V11.3632C117.042 11.2334 117.884 11.1684 118.596 11.1684C119.309 11.1684 120.151 11.2334 121.058 11.3632V27.9216C121.058 30.1294 121.511 31.5579 122.353 32.3372C122.029 33.441 121.382 34.2851 120.54 34.8047C118.596 34.4799 117.301 33.3112 116.589 31.428C114.127 33.7657 111.536 34.8696 108.816 34.8696C106.743 34.8696 105.253 34.1554 104.217 32.7917C103.181 31.428 102.663 29.5449 102.663 27.2722Z" fill="#2978A1"/>
<path d="M134.855 30.844H136.604C136.863 31.6233 137.057 32.3374 137.057 32.9219C137.057 33.5063 136.993 34.0259 136.928 34.3504C135.697 34.5452 134.337 34.6752 132.977 34.6752C129.868 34.6752 128.378 33.0518 128.378 29.8699V0.389621L128.702 0.129883H130.515C131.487 0.129883 132.135 0.389621 132.523 0.844164C132.912 1.29871 133.106 2.14285 133.106 3.18181V28.7661C133.042 30.1947 133.689 30.844 134.855 30.844Z" fill="#2978A1"/>
<path d="M139.907 32.7915C139.907 32.2719 140.101 31.6875 140.425 30.9733C140.749 30.324 141.073 29.8044 141.526 29.4148C143.988 30.7785 145.996 31.4927 147.55 31.4927C149.105 31.4927 150.335 31.233 151.048 30.7134C151.825 30.1941 152.214 29.4797 152.214 28.6356C152.214 27.2721 151.242 26.2329 149.299 25.4539L146.708 24.4798C142.757 22.9864 140.814 20.7786 140.814 17.7915C140.814 15.6487 141.591 13.9604 143.146 12.7266C144.7 11.4929 146.708 10.8435 149.17 10.8435C151.696 10.8435 154.222 11.4279 156.683 12.5318C156.683 13.1812 156.553 13.8305 156.294 14.4799C156.035 15.1941 155.711 15.7136 155.258 16.1032C153.056 15.0643 150.983 14.5448 149.04 14.5448C148.004 14.5448 147.226 14.8045 146.579 15.324C145.996 15.8435 145.672 16.4279 145.672 17.2071C145.672 17.9863 145.866 18.5058 146.32 18.9604C146.773 19.35 147.485 19.8045 148.522 20.1941L151.307 21.2979C155.258 22.8564 157.266 25.194 157.266 28.311C157.266 30.4538 156.424 32.142 154.805 33.4408C153.185 34.6746 150.918 35.3239 148.068 35.3239C145.219 35.1291 142.498 34.3498 139.907 32.7915Z" fill="#2978A1"/>
<path d="M170.673 14.3507C167.693 14.3507 166.139 16.5585 165.88 20.974H175.336V20.3896C175.336 18.6364 174.948 17.1429 174.17 16.039C173.458 14.9351 172.292 14.3507 170.673 14.3507ZM179.676 24.4804H165.944C166.009 26.6234 166.527 28.3116 167.305 29.4156C168.147 30.5843 169.507 31.1688 171.515 31.1688C172.422 31.1688 173.458 31.039 174.494 30.7791C175.595 30.5194 176.697 30.0649 177.863 29.4156C178.64 30.1298 179.158 31.1688 179.417 32.5324C176.956 34.2856 173.976 35.1299 170.608 35.1299C168.859 35.1299 167.369 34.8051 166.139 34.2207C164.908 33.5714 163.937 32.7273 163.159 31.6233C162.382 30.5194 161.864 29.2208 161.475 27.7272C161.151 26.2338 160.957 24.6104 160.957 22.8571C160.957 21.1688 161.151 19.5454 161.605 18.052C162.058 16.5585 162.641 15.3247 163.483 14.2208C164.26 13.1819 165.297 12.3377 166.527 11.6884C167.693 11.104 169.054 10.7793 170.543 10.7793C172.033 10.7793 173.393 11.039 174.559 11.5585C175.725 12.078 176.697 12.7273 177.539 13.6364C178.381 14.5455 178.964 15.5845 179.352 16.8182C179.741 18.052 180 19.4157 180 20.8443C180 21.4936 180 22.078 179.935 22.6623C179.87 23.2467 179.806 23.8962 179.676 24.4804Z" fill="#2978A1"/>
<path d="M44.8223 34.2207C44.7572 34.3505 44.6923 34.4155 44.6274 34.5453C44.6923 34.5453 44.7572 34.5453 44.8223 34.4804V34.2207Z" fill="#4B4D4D"/>
</g>
<defs>
<clipPath id="clip0_16_1583">
<rect width="180" height="45" fill="white"/>
</clipPath>
</defs>
</svg>
