<svg width="167" height="57" viewBox="0 0 167 57" fill="none" xmlns="http://www.w3.org/2000/svg">
<g clip-path="url(#clip0_1692_271)">
<path d="M63.1638 20.6526V5.20435H68.6734C69.7713 5.20435 70.6767 5.39041 71.3898 5.76254C72.1029 6.12964 72.6338 6.62497 72.9826 7.24853C73.3315 7.86707 73.5059 8.55351 73.5059 9.30781C73.5059 9.97159 73.3853 10.5197 73.1442 10.9522C72.9083 11.3847 72.5953 11.7267 72.2054 11.9781C71.8207 12.2295 71.4026 12.4156 70.9512 12.5363V12.6871C71.4334 12.7173 71.9182 12.8832 72.4055 13.1849C72.8929 13.4867 73.3007 13.9192 73.629 14.4823C73.9573 15.0456 74.1215 15.7345 74.1215 16.5492C74.1215 17.3236 73.9419 18.0201 73.5828 18.6386C73.2237 19.2572 72.6569 19.7475 71.8823 20.1095C71.1077 20.4716 70.0995 20.6526 68.8581 20.6526H63.1638ZM65.0722 18.9932H68.8581C70.1047 18.9932 70.9896 18.7568 71.5129 18.2841C72.0412 17.8064 72.3055 17.2281 72.3055 16.5492C72.3055 16.0262 72.1695 15.5435 71.8977 15.1009C71.6257 14.6533 71.2384 14.2963 70.7357 14.0298C70.233 13.7582 69.6379 13.6225 68.9505 13.6225H65.0722V18.9932ZM65.0722 11.9931H68.6119C69.1865 11.9931 69.7045 11.8825 70.1663 11.6612C70.6331 11.44 71.0025 11.1282 71.2743 10.7259C71.5514 10.3236 71.6899 9.8509 71.6899 9.30781C71.6899 8.6289 71.4487 8.05312 70.9666 7.58042C70.4843 7.1027 69.72 6.86383 68.6734 6.86383H65.0722V11.9931Z" fill="black"/>
<path d="M77.0107 20.6525V9.06628H78.8271V20.6525H77.0107ZM77.9342 7.13523C77.5803 7.13523 77.2753 7.01706 77.0183 6.78071C76.7675 6.54436 76.6416 6.26023 76.6416 5.92834C76.6416 5.59644 76.7675 5.31231 77.0183 5.07596C77.2753 4.83962 77.5803 4.72144 77.9342 4.72144C78.288 4.72144 78.5907 4.83962 78.8424 5.07596C79.0986 5.31231 79.2275 5.59644 79.2275 5.92834C79.2275 6.26023 79.0986 6.54436 78.8424 6.78071C78.5907 7.01706 78.288 7.13523 77.9342 7.13523Z" fill="black"/>
<path d="M90.0633 14.0446V15.7041H83.5381V14.0446H90.0633ZM83.9689 9.06616V20.6524H82.1533V9.06616H83.9689ZM91.4488 9.06616V20.6524H89.6324V9.06616H91.4488Z" fill="black"/>
<path d="M102.676 14.0446V15.7041H96.15V14.0446H102.676ZM96.5809 9.06616V20.6524H94.7652V9.06616H96.5809ZM104.061 9.06616V20.6524H102.244V9.06616H104.061Z" fill="black"/>
<path d="M109.194 18.0274L114.888 9.06616H116.981V20.6524H115.164V11.6911L109.501 20.6524H107.377V9.06616H109.194V18.0274Z" fill="black"/>
<path d="M129.603 9.06616V18.9929H131.264V24.3938H129.449V20.6524H120.307V9.06616H122.123V18.9929H127.786V9.06616H129.603Z" fill="black"/>
<path d="M135.631 13.2601H139.017C140.402 13.2601 141.462 13.6046 142.196 14.2935C142.929 14.9825 143.296 15.8549 143.296 16.911C143.296 17.605 143.131 18.2361 142.803 18.8043C142.475 19.3675 141.993 19.8176 141.357 20.1546C140.721 20.4865 139.941 20.6524 139.017 20.6524H134.061V9.06616H135.878V18.9929H139.017C139.736 18.9929 140.326 18.8069 140.787 18.4347C141.248 18.0626 141.479 17.5849 141.479 17.0015C141.479 16.388 141.248 15.8876 140.787 15.5004C140.326 15.1133 139.736 14.9196 139.017 14.9196H135.631V13.2601Z" fill="black"/>
<path d="M146.06 20.6524V9.06616H147.876V14.105H149.077L153.324 9.06616H155.663L150.893 14.6481L155.725 20.6524H153.386L149.508 15.7644H147.876V20.6524H146.06Z" fill="black"/>
<path d="M161.177 20.9239C160.428 20.9239 159.748 20.7856 159.138 20.509C158.527 20.2274 158.042 19.8227 157.683 19.2946C157.324 18.7615 157.145 18.1179 157.145 17.3636C157.145 16.6997 157.278 16.1617 157.545 15.7494C157.812 15.332 158.168 15.0051 158.614 14.7687C159.061 14.5324 159.554 14.3564 160.092 14.2407C160.636 14.12 161.182 14.0245 161.731 13.9541C162.449 13.8636 163.032 13.7957 163.478 13.7504C163.929 13.7001 164.258 13.6172 164.463 13.5015C164.673 13.3858 164.778 13.1847 164.778 12.8981V12.8377C164.778 12.0935 164.57 11.5152 164.155 11.1028C163.745 10.6904 163.121 10.4842 162.285 10.4842C161.418 10.4842 160.739 10.6703 160.246 11.0424C159.753 11.4145 159.407 11.8118 159.207 12.2343L157.483 11.6308C157.791 10.9268 158.202 10.3787 158.715 9.98643C159.233 9.5891 159.797 9.31254 160.408 9.15666C161.023 8.99577 161.628 8.91528 162.223 8.91528C162.603 8.91528 163.039 8.9605 163.532 9.05102C164.029 9.13652 164.509 9.31504 164.971 9.58659C165.437 9.85814 165.825 10.268 166.132 10.8161C166.44 11.3643 166.594 12.0985 166.594 13.0188V20.6523H164.778V19.0834H164.686C164.563 19.3348 164.358 19.6038 164.07 19.8905C163.783 20.1771 163.401 20.421 162.923 20.6222C162.447 20.8233 161.864 20.9239 161.177 20.9239ZM161.454 19.3248C162.172 19.3248 162.778 19.1865 163.27 18.9099C163.767 18.6333 164.142 18.2763 164.394 17.8387C164.65 17.4013 164.778 16.9411 164.778 16.4584V14.8291C164.701 14.9196 164.532 15.0026 164.27 15.078C164.014 15.1484 163.716 15.2113 163.378 15.2666C163.044 15.3168 162.718 15.3621 162.4 15.4023C162.088 15.4375 161.834 15.4677 161.638 15.4929C161.166 15.5532 160.726 15.6512 160.315 15.7871C159.91 15.9178 159.582 16.1164 159.33 16.383C159.084 16.6445 158.961 17.0015 158.961 17.4541C158.961 18.0726 159.194 18.5403 159.661 18.8571C160.133 19.1689 160.73 19.3248 161.454 19.3248Z" fill="black"/>
<path d="M64.7737 32.7563V48.5437H63.1638V32.7563H64.7737Z" fill="black"/>
<path d="M67.2746 34.4523V32.7563H77.2456V34.4523H73.0652V48.5437H71.4553V34.4523H67.2746Z" fill="black"/>
<path d="M83.8782 39.802V41.4979H78.0621V39.802H83.8782Z" fill="black"/>
<path d="M87.3272 48.5437H85.6389L90.5208 32.7563H92.1824L97.0643 48.5437H95.3768L91.4038 35.2539H91.3001L87.3272 48.5437ZM87.9502 42.3767H94.7538V44.0727H87.9502V42.3767Z" fill="black"/>
<path d="M98.9273 48.5436V36.7031H100.459V41.8525H101.472L105.056 36.7031H107.029L103.004 42.4075L107.081 48.5436H105.108L101.836 43.5484H100.459V48.5436H98.9273Z" fill="black"/>
<path d="M111.68 48.821C111.048 48.821 110.475 48.6797 109.96 48.397C109.445 48.1093 109.036 47.6955 108.733 47.1559C108.43 46.6112 108.278 45.9534 108.278 45.1825C108.278 44.5042 108.391 43.9543 108.616 43.5329C108.841 43.1063 109.142 42.7723 109.518 42.5308C109.895 42.2893 110.311 42.1094 110.765 41.9912C111.223 41.8678 111.685 41.7702 112.148 41.6982C112.753 41.6057 113.245 41.5363 113.621 41.4901C114.002 41.4387 114.279 41.3539 114.452 41.2357C114.63 41.1175 114.718 40.912 114.718 40.619V40.5574C114.718 39.7968 114.543 39.2058 114.192 38.7844C113.846 38.3629 113.32 38.1523 112.615 38.1523C111.884 38.1523 111.31 38.3424 110.895 38.7227C110.479 39.103 110.187 39.509 110.019 39.9406L108.564 39.324C108.824 38.6045 109.17 38.0444 109.603 37.6435C110.04 37.2375 110.516 36.9548 111.031 36.7955C111.551 36.6311 112.061 36.5488 112.563 36.5488C112.884 36.5488 113.251 36.5951 113.667 36.6876C114.086 36.775 114.491 36.9574 114.881 37.235C115.274 37.5124 115.601 37.9313 115.861 38.4915C116.121 39.0516 116.25 39.8019 116.25 40.7424V48.5435H114.718V46.9401H114.64C114.537 47.197 114.364 47.472 114.121 47.7649C113.879 48.0579 113.556 48.3071 113.153 48.5127C112.752 48.7183 112.26 48.821 111.68 48.821ZM111.914 47.1868C112.52 47.1868 113.031 47.0455 113.446 46.7628C113.866 46.4801 114.181 46.1153 114.393 45.6681C114.61 45.2211 114.718 44.7508 114.718 44.2575V42.5924C114.653 42.6849 114.511 42.7697 114.29 42.8468C114.073 42.9188 113.822 42.983 113.537 43.0395C113.256 43.0909 112.98 43.1372 112.712 43.1783C112.448 43.2143 112.234 43.2451 112.07 43.2708C111.672 43.3324 111.3 43.4327 110.953 43.5715C110.611 43.7051 110.334 43.9081 110.122 44.1804C109.914 44.4477 109.81 44.8125 109.81 45.2751C109.81 45.9072 110.007 46.3851 110.401 46.7088C110.799 47.0275 111.304 47.1868 111.914 47.1868Z" fill="black"/>
<path d="M117.982 51.9354V46.8477H118.813C119.016 46.5959 119.191 46.3235 119.339 46.0306C119.486 45.7376 119.613 45.3908 119.721 44.9899C119.834 44.5839 119.93 44.0906 120.007 43.5098C120.085 42.924 120.155 42.2174 120.215 41.39L120.553 36.7031H126.889V46.8477H128.421V51.9354H126.889V48.5436H119.514V51.9354H117.982ZM120.553 46.8477H125.357V38.3991H121.981L121.721 41.39C121.613 42.6285 121.478 43.7102 121.318 44.6353C121.158 45.5603 120.903 46.2978 120.553 46.8477Z" fill="black"/>
<path d="M134.635 48.7901C133.674 48.7901 132.845 48.5384 132.148 48.0347C131.456 47.526 130.921 46.8167 130.544 45.9072C130.172 44.9924 129.986 43.9286 129.986 42.7158C129.986 41.503 130.172 40.434 130.544 39.509C130.921 38.5788 131.445 37.8542 132.116 37.3351C132.791 36.811 133.579 36.5488 134.478 36.5488C134.998 36.5488 135.511 36.6517 136.017 36.8572C136.524 37.0627 136.984 37.3968 137.4 37.8593C137.815 38.3167 138.146 38.9231 138.393 39.6786C138.64 40.434 138.763 41.3642 138.763 42.4691V43.2399H131.077V41.6674H137.205C137.205 40.9993 137.092 40.4032 136.868 39.879C136.647 39.3548 136.331 38.9411 135.92 38.6379C135.513 38.3347 135.033 38.1831 134.478 38.1831C133.868 38.1831 133.341 38.3629 132.895 38.7227C132.453 39.0773 132.114 39.5398 131.876 40.1103C131.637 40.6807 131.518 41.2922 131.518 41.9449V42.9932C131.518 43.8875 131.649 44.6455 131.908 45.2673C132.172 45.8841 132.538 46.3543 133.005 46.678C133.473 46.9966 134.016 47.1559 134.635 47.1559C135.037 47.1559 135.4 47.0891 135.725 46.9555C136.054 46.8167 136.338 46.6112 136.575 46.3388C136.813 46.0613 136.997 45.717 137.128 45.3059L138.608 45.7992C138.451 46.3954 138.19 46.9196 137.821 47.3718C137.454 47.8189 136.999 48.1683 136.459 48.4202C135.917 48.6669 135.31 48.7901 134.635 48.7901Z" fill="black"/>
<path d="M146.547 46.0768L150.026 36.7031H151.481L147.17 48.5436H145.924L141.691 36.7031H143.119L146.547 46.0768ZM142.626 36.7031V48.5436H141.094V36.7031H142.626ZM150.468 48.5436V36.7031H152V48.5436H150.468Z" fill="black"/>
<path d="M154.804 48.5436V36.7031H156.336V48.5436H154.804ZM155.583 34.7297C155.284 34.7297 155.027 34.6089 154.81 34.3674C154.598 34.1259 154.492 33.8355 154.492 33.4963C154.492 33.1572 154.598 32.8668 154.81 32.6252C155.027 32.3837 155.284 32.2629 155.583 32.2629C155.881 32.2629 156.137 32.3837 156.349 32.6252C156.565 32.8668 156.673 33.1572 156.673 33.4963C156.673 33.8355 156.565 34.1259 156.349 34.3674C156.137 34.6089 155.881 34.7297 155.583 34.7297Z" fill="black"/>
<path d="M165.14 48.5436V38.3682H162.492C161.894 38.3682 161.425 38.5327 161.083 38.8615C160.741 39.1905 160.57 39.6427 160.57 40.2183C160.57 40.7836 160.723 41.2281 161.031 41.5519C161.343 41.8756 161.769 42.0375 162.31 42.0375H165.53V43.7334H162.31C161.635 43.7334 161.053 43.5921 160.563 43.3094C160.074 43.0268 159.698 42.6234 159.434 42.0992C159.17 41.5699 159.038 40.9429 159.038 40.2183C159.038 39.4885 159.176 38.8615 159.454 38.3374C159.731 37.8132 160.126 37.4098 160.641 37.1271C161.161 36.8445 161.777 36.7031 162.492 36.7031H166.594V48.5436H165.14ZM158.493 48.5436L161.323 42.6542H162.985L160.155 48.5436H158.493Z" fill="black"/>
<path d="M0 8.76926C0 3.92611 3.93933 0 8.79877 0H48.393C53.2525 0 57.1918 3.92612 57.1918 8.76926V48.2307C57.1918 53.0739 53.2525 57 48.393 57H8.79877C3.93932 57 0 53.0739 0 48.2307V8.76926Z" fill="url(#paint0_linear_1692_271)"/>
<path d="M26.7216 6.82986C24.9394 7.67723 24.5258 9.86542 25.9048 11.2061C26.4776 11.7532 26.9656 11.9356 27.8779 11.9356H28.6523L31.9727 15.2929L35.2824 18.6395V22.2113C35.2824 25.0967 35.3142 25.8367 35.4309 26.0727C35.5157 26.2336 35.8658 26.6412 36.2159 26.9952L36.8523 27.6173L36.7993 28.2501C36.6933 29.3442 37.2979 30.4169 38.2951 30.9531C39.2179 31.4465 40.5864 31.1784 41.3608 30.3632C41.7851 29.9234 42.1777 29.0224 42.1671 28.5076C42.1564 27.6066 41.5623 26.6305 40.7137 26.1264C40.2788 25.8689 40.0985 25.826 39.3665 25.826C38.5496 25.826 38.5072 25.8153 38.1253 25.4399L37.7222 25.0537V21.3639V17.6848L34.02 13.9199L30.3178 10.1657L30.3708 9.57578C30.4769 8.35302 29.9783 7.45198 28.9069 6.90495C28.0901 6.48663 27.496 6.4759 26.7216 6.82986ZM28.1643 9.06096C28.3128 9.31837 28.3128 9.36123 28.1325 9.56507C27.6551 10.1014 26.8914 9.52213 27.2944 8.94293C27.5172 8.62115 27.9627 8.68552 28.1643 9.06096ZM39.8226 28.1536C39.9817 28.2931 39.9923 28.6899 39.8226 28.8615C39.7484 28.9366 39.568 28.9903 39.4195 28.9903C38.9103 28.9903 38.7088 28.5076 39.0695 28.1107C39.2498 27.9176 39.5362 27.9283 39.8226 28.1536Z" fill="white"/>
<path d="M17.7887 6.90574C17.3326 7.08809 16.6113 7.75314 16.3778 8.21431C16.049 8.83645 16.049 9.9842 16.3672 10.6063C16.9083 11.6468 18.0327 12.2474 19.1253 12.0972L19.6346 12.0329L23.7505 16.141L27.8664 20.2491L27.8558 20.9893V21.7187L27.3679 22.1584C25.8403 23.5207 26.1373 25.7195 27.9937 26.7064C28.4924 26.9745 29.5955 26.9423 30.1366 26.6635C31.1338 26.1378 31.6641 25.2798 31.6747 24.2071C31.6747 23.4027 31.3034 22.5875 30.7094 22.1048L30.2957 21.7723V20.764C30.2957 20.1526 30.2426 19.6271 30.1472 19.4125C30.0623 19.2195 28.1635 17.2136 25.6918 14.7252L21.3849 10.3811L21.4485 9.78037C21.5016 9.34063 21.4697 9.01885 21.3319 8.62198C21.0984 7.91404 20.3347 7.09881 19.73 6.91648C19.2102 6.76631 18.1494 6.75558 17.7887 6.90574ZM19.1572 9.08314C19.3481 9.32984 19.2421 9.716 18.9238 9.8876C18.6692 10.0378 18.6268 10.0378 18.4252 9.85546C18.1812 9.63019 18.1388 9.25475 18.3298 9.06171C18.5101 8.87939 18.9981 8.90082 19.1572 9.08314ZM29.2561 23.7566C29.638 24.0785 29.5319 24.7005 29.0864 24.7005C28.6302 24.7005 28.4924 24.5933 28.4924 24.2071C28.4924 23.7138 28.8954 23.4778 29.2561 23.7566Z" fill="white"/>
<path d="M37.4284 8.12844C36.1554 8.68621 35.4553 10.145 35.8584 11.3785C36.3252 12.7943 37.7891 13.6096 39.1787 13.2127C39.5606 13.1162 39.847 12.9123 40.3032 12.4511L40.9291 11.829H42.3294H43.7297L45.9255 14.0493L48.1214 16.2589V17.4066V18.5651L47.7501 18.8439C47.3045 19.1872 46.9015 19.8736 46.753 20.5172C46.5196 21.5684 47.0924 22.7591 48.1214 23.349C49.4156 24.0783 51.081 23.5742 51.8024 22.212C51.9297 21.9653 51.9828 21.622 51.9934 21.0535C51.9934 20.0775 51.7175 19.4446 51.028 18.8654L50.5719 18.4793L50.5825 16.9132L50.5931 15.3472L50.0733 14.8109C49.7869 14.5105 48.5033 13.2127 47.2197 11.9256C45.4588 10.145 44.8011 9.54432 44.5146 9.46924C44.3131 9.41558 43.422 9.36192 42.5309 9.36192H40.9185L40.3563 8.79344C39.9956 8.43951 39.6243 8.1821 39.3485 8.0963C38.7756 7.92461 37.8633 7.93533 37.4284 8.12844ZM38.8499 10.3809C39.1469 10.8315 38.4998 11.4214 38.0861 11.0782C37.9058 10.9173 37.8952 10.4132 38.0649 10.2415C38.2559 10.0484 38.6802 10.1235 38.8499 10.3809ZM49.7126 20.6245C50.0945 21.0107 49.8718 21.5255 49.3519 21.4611C48.6518 21.386 48.7154 20.5387 49.4262 20.4207C49.4686 20.4207 49.5959 20.5065 49.7126 20.6245Z" fill="white"/>
<path d="M9.85681 9.07176C9.28398 9.28631 8.67927 9.82264 8.37165 10.3804C8.11704 10.8416 8.07464 11.0347 8.07464 11.7426V12.5792L5.15739 15.5289L2.24016 18.4787L2.20834 22.1042C2.18712 24.0885 2.20834 25.8369 2.24016 25.9871C2.31442 26.2874 4.6376 28.7115 5.07253 28.9475C5.3059 29.0655 6.10152 29.0977 9.2627 29.0977H13.1665L15.3093 31.2644L17.4628 33.4418L22.0136 33.4954L26.5752 33.549L26.9571 33.9995C27.1586 34.2462 27.5935 34.5787 27.9224 34.7396C29.6409 35.587 31.6777 34.2248 31.6777 32.219C31.6777 31.2107 30.8502 30.0845 29.8849 29.752C28.8771 29.4087 27.7421 29.7305 27.0207 30.5671L26.607 31.0391L22.5653 31.0605L18.5236 31.082L16.3489 28.8831L14.1743 26.6842L10.1114 26.6521L6.05908 26.6199L5.34834 25.9012L4.62699 25.1933V22.3401V19.4977L7.24719 16.8483L9.85681 14.2097L10.419 14.2632C11.2995 14.3598 11.9041 14.1346 12.5512 13.4803C13.6545 12.3648 13.6333 10.6915 12.477 9.65103C11.7344 8.97524 10.7267 8.74998 9.85681 9.07176ZM11.0767 11.2063C11.257 11.3886 11.2358 11.7212 11.0237 11.9571C10.8115 12.1931 10.5887 12.2039 10.3342 11.9679C10.122 11.7748 10.0902 11.5817 10.2493 11.2814C10.3766 11.0454 10.8751 11.0025 11.0767 11.2063ZM29.4606 32.0581C29.5348 32.2726 29.5242 32.4013 29.3969 32.5944C29.1211 33.0342 28.4952 32.8519 28.4952 32.337C28.4952 31.9508 28.6756 31.7792 29.0469 31.7792C29.2802 31.7792 29.3757 31.8436 29.4606 32.0581Z" fill="white"/>
<path d="M12.7423 16.0335C11.9255 16.3232 11.183 17.192 10.9814 18.1037C10.8011 18.9404 11.0663 19.7448 11.7876 20.4742C12.4241 21.1178 13.0181 21.3323 13.9199 21.2358L14.5139 21.1714L16.9326 23.5848L19.3512 25.9982L19.2982 26.6203C19.086 28.905 21.5258 30.4282 23.3717 29.1732C24.8144 28.1971 25.0478 26.4166 23.9021 25.1616C23.2868 24.4751 22.7352 24.2498 21.8016 24.282L21.0485 24.3035L18.6405 21.8686L16.2324 19.4445L16.2749 18.6937C16.3067 18.093 16.2749 17.857 16.0839 17.4708C15.7975 16.8702 15.0655 16.1944 14.5139 16.0335C14.0153 15.8834 13.1773 15.8834 12.7423 16.0335ZM14.0047 18.2217C14.2275 18.4362 14.2169 18.6186 13.9729 18.9189C13.8032 19.1334 13.7289 19.1548 13.4743 19.069C12.9333 18.876 13.0287 18.0501 13.6016 18.0501C13.7289 18.0501 13.9199 18.1251 14.0047 18.2217ZM22.3215 26.5452C22.4594 26.6847 22.4912 27.0494 22.3639 27.2425C22.226 27.4677 21.7486 27.5213 21.5577 27.3283C21.197 26.9635 21.4092 26.4166 21.9184 26.4166C22.0669 26.4166 22.2472 26.4702 22.3215 26.5452Z" fill="white"/>
<path d="M48.2134 26.8989C47.6511 27.1885 47.0995 27.7891 46.8767 28.3255C46.6433 28.8832 46.6858 29.8379 46.9616 30.4278C47.0889 30.7067 47.4071 31.125 47.6723 31.361L48.1603 31.79L45.3386 34.6539C43.7898 36.2307 42.4638 37.6251 42.4001 37.7538C42.3365 37.8825 42.2834 38.1614 42.2834 38.3652C42.2834 38.6333 42.2198 38.7728 42.0713 38.8586C41.9546 38.923 41.6682 39.2126 41.4454 39.5022C40.8831 40.2208 40.7135 40.9824 40.9468 41.7869C41.1271 42.409 41.5408 43.0204 41.9864 43.3207C42.241 43.503 42.2834 43.5996 42.2834 44.0608C42.2834 44.5757 42.2516 44.6294 41.8166 44.994C39.9815 46.5601 41.0105 49.6277 43.4079 49.7135C44.2459 49.735 44.7976 49.5205 45.3598 48.952C45.8901 48.4157 46.2084 47.6542 46.2084 46.9677C46.1978 46.2383 45.6356 45.2086 45.0415 44.8117C44.7657 44.6294 44.7233 44.5328 44.7233 44.1038C44.7233 43.6639 44.7657 43.5781 45.1476 43.2671C45.381 43.0847 45.6992 42.6986 45.8584 42.4197C46.113 42.0014 46.1554 41.7976 46.1554 41.1648C46.1448 40.2745 45.8795 39.6631 45.2218 39.0409L44.787 38.6334L47.6723 35.7159C49.3272 34.0319 50.5684 32.7018 50.5684 32.5838C50.579 32.4658 50.5896 32.2405 50.6002 32.0796C50.6108 31.8866 50.7911 31.6399 51.1412 31.3073L51.661 30.8139H56.6256H57.1918V29.0334V27.8106H56.6256H51.661L51.2897 27.4245C50.7699 26.8667 50.2183 26.6307 49.3908 26.6415C48.8711 26.6415 48.5846 26.7058 48.2134 26.8989ZM49.8364 29.0334C49.9743 29.2265 49.9319 29.4088 49.7091 29.634C49.4545 29.8915 49.2529 29.9022 49.0302 29.677C48.627 29.2694 49.0514 28.54 49.5394 28.7974C49.6666 28.8618 49.794 28.969 49.8364 29.0334ZM43.9277 40.7893C44.2141 41.1004 44.0338 41.5831 43.6306 41.626C43.0791 41.6904 42.8244 41.1862 43.2063 40.7679C43.4291 40.5105 43.6837 40.5212 43.9277 40.7893ZM43.8746 46.6887C44.1611 46.9784 44.1399 47.2894 43.8216 47.504C43.5776 47.6649 43.5351 47.6649 43.2912 47.504C42.9517 47.2787 42.9411 46.8711 43.2594 46.6459C43.567 46.4313 43.62 46.4313 43.8746 46.6887Z" fill="white"/>
<path d="M11.9221 32.3585C11.2008 32.5515 10.5113 33.1308 10.1824 33.7851C9.78987 34.5788 9.75807 35.0401 10.0339 35.7802C10.3203 36.5417 10.6491 36.9493 11.2962 37.3355C11.71 37.5822 11.9009 37.625 12.6222 37.625H13.4603L14.7969 38.9873C15.5289 39.7274 16.2396 40.3924 16.3669 40.4568C16.5154 40.5319 17.3959 40.5748 18.7749 40.5748H20.9602L21.5755 41.1969C22.2438 41.8726 22.7106 42.0764 23.5804 42.0764C24.2699 42.0764 25.0974 41.6581 25.6066 41.0467L25.9885 40.5748H29.4043H32.8201L33.011 40.8644C33.2126 41.1862 33.796 41.7547 33.934 41.7547C33.9764 41.7547 34.0082 42.7951 34.0082 44.0608V46.3562L33.6369 46.6566C32.0245 47.9437 32.2367 50.3357 34.0294 51.2366C35.3872 51.9232 36.9679 51.3225 37.7104 49.8315C38.1984 48.8447 37.8695 47.5253 36.9361 46.7316L36.448 46.324V44.0608V41.7976L36.9042 41.4758C37.7953 40.8322 38.1772 39.4485 37.7316 38.4081C36.9042 36.4559 34.3688 36.0805 33.1596 37.7431L32.8944 38.097L29.4255 38.1077H25.946L25.3944 37.5285C24.7792 36.8957 24.3548 36.7134 23.4531 36.7134C22.7424 36.7134 21.9362 37.1102 21.4906 37.668L21.1405 38.1077H19.2736H17.4065L16.2609 36.96L15.1152 35.8231L15.1894 35.3618C15.3485 34.2678 14.7226 33.0879 13.7255 32.5945C12.9935 32.2512 12.5374 32.1869 11.9221 32.3585ZM12.9723 34.7611C13.0572 35.1259 12.8875 35.3618 12.495 35.4047C12.1237 35.4477 11.8797 35.1366 11.9964 34.7719C12.1449 34.3107 12.8557 34.2999 12.9723 34.7611ZM23.8456 39.0409C24.079 39.2555 24.0896 39.4807 23.8562 39.7382C23.5061 40.135 22.9758 39.8775 22.9758 39.3198C22.9758 38.88 23.4849 38.7084 23.8456 39.0409ZM35.557 39.0409C35.7691 39.3306 35.7373 39.6952 35.4827 39.824C35.1539 40.0063 34.7614 39.8668 34.6871 39.545C34.5598 39.0195 35.2388 38.6226 35.557 39.0409ZM35.5039 48.4049C35.7373 48.5336 35.7797 49.0377 35.5782 49.2416C35.2812 49.5419 34.6447 49.263 34.6447 48.834C34.6447 48.598 34.9205 48.2977 35.1326 48.2977C35.2281 48.2977 35.3872 48.3513 35.5039 48.4049Z" fill="white"/>
</g>
<defs>
<linearGradient id="paint0_linear_1692_271" x1="8.60721e-07" y1="29.0377" x2="57.1918" y2="29.0377" gradientUnits="userSpaceOnUse">
<stop stop-color="#00C99F"/>
<stop offset="1" stop-color="#009ACB"/>
</linearGradient>
<clipPath id="clip0_1692_271">
<rect width="167" height="57" fill="white"/>
</clipPath>
</defs>
</svg>
