<svg width="52" height="52" viewBox="0 0 52 52" fill="none" xmlns="http://www.w3.org/2000/svg">
<rect width="52" height="52" rx="8" fill="url(#paint0_linear_126_454)"/>
<path d="M24.2956 6.23077C22.6752 7.00382 22.2991 9.00002 23.5529 10.2232C24.0738 10.7222 24.5175 10.8886 25.3469 10.8886H26.051L29.0699 13.9514L32.0792 17.0044V20.2629C32.0792 22.8952 32.1082 23.5704 32.2143 23.7857C32.2914 23.9324 32.6097 24.3043 32.928 24.6272L33.5067 25.1948L33.4585 25.7721C33.362 26.7702 33.9118 27.7487 34.8184 28.238C35.6576 28.6881 36.9018 28.4435 37.6059 27.6998C37.9917 27.2986 38.3486 26.4766 38.3389 26.0069C38.3293 25.185 37.7891 24.2945 37.0175 23.8346C36.6221 23.5997 36.4581 23.5606 35.7926 23.5606C35.0499 23.5606 35.0113 23.5508 34.6641 23.2083L34.2976 22.8561V19.4899V16.1335L30.9315 12.6989L27.5653 9.27401L27.6135 8.73582C27.71 7.62029 27.2567 6.79832 26.2825 6.29927C25.5398 5.91764 24.9997 5.90786 24.2956 6.23077ZM25.6074 8.26612C25.7424 8.50097 25.7424 8.54011 25.5784 8.72603C25.1444 9.2153 24.4499 8.68689 24.8165 8.15849C25.019 7.86493 25.4241 7.92364 25.6074 8.26612ZM36.2073 25.684C36.352 25.8112 36.3617 26.1733 36.2073 26.3298C36.1398 26.3983 35.9759 26.4473 35.8408 26.4473C35.3779 26.4473 35.1946 26.0069 35.5225 25.6449C35.6865 25.4687 35.9469 25.4785 36.2073 25.684Z" fill="white"/>
<path d="M16.174 6.29941C15.7592 6.46576 15.1033 7.07245 14.8911 7.49322C14.5922 8.06077 14.5922 9.1078 14.8815 9.67535C15.3734 10.6245 16.3958 11.1725 17.3892 11.0355L17.8522 10.9768L21.5945 14.7246L25.3368 18.4724L25.3272 19.1476V19.813L24.8835 20.2142C23.4946 21.4569 23.7647 23.4629 25.4526 24.3631C25.9059 24.6078 26.909 24.5784 27.4009 24.324C28.3075 23.8445 28.7898 23.0617 28.7994 22.0831C28.7994 21.3492 28.4618 20.6056 27.9217 20.1652L27.5455 19.8619V18.9421C27.5455 18.3843 27.4973 17.9048 27.4105 17.7091C27.3334 17.533 25.6069 15.7031 23.3596 13.4329L19.4436 9.46986L19.5015 8.92188C19.5497 8.52068 19.5208 8.22712 19.3954 7.86506C19.1832 7.21923 18.4888 6.47554 17.939 6.30919C17.4664 6.1722 16.5019 6.16241 16.174 6.29941ZM17.4182 8.28583C17.5918 8.51089 17.4953 8.86317 17.206 9.01973C16.9745 9.15673 16.9359 9.15673 16.7527 8.99037C16.5308 8.78488 16.4922 8.4424 16.6659 8.26626C16.8298 8.09991 17.2735 8.11948 17.4182 8.28583ZM26.6003 21.6722C26.9475 21.9657 26.8511 22.5333 26.446 22.5333C26.0313 22.5333 25.9059 22.4354 25.9059 22.0831C25.9059 21.633 26.2724 21.4177 26.6003 21.6722Z" fill="white"/>
<path d="M34.0304 7.41499C32.873 7.92383 32.2364 9.25463 32.603 10.3799C33.0273 11.6716 34.3584 12.4153 35.6219 12.0532C35.9691 11.9652 36.2295 11.7793 36.6443 11.3585L37.2133 10.7909H38.4865H39.7596L41.7562 12.8165L43.7527 14.8323V15.8793V16.9361L43.4151 17.1905C43.01 17.5037 42.6435 18.1299 42.5085 18.7171C42.2963 19.676 42.8171 20.7622 43.7527 21.3004C44.9294 21.9658 46.4437 21.5059 47.0996 20.2631C47.2153 20.0381 47.2635 19.7249 47.2732 19.2063C47.2732 18.3159 47.0224 17.7385 46.3955 17.2101L45.9807 16.8578L45.9904 15.4292L46 14.0005L45.5274 13.5113C45.267 13.2373 44.0999 12.0532 42.9329 10.879C41.3318 9.25463 40.7338 8.70666 40.4734 8.63816C40.2901 8.58923 39.4799 8.54031 38.6697 8.54031H37.2037L36.6925 8.02168C36.3645 7.69877 36.027 7.46392 35.7762 7.38564C35.2554 7.22907 34.4259 7.23886 34.0304 7.41499ZM35.3229 9.46991C35.5929 9.8809 35.0046 10.4191 34.6284 10.106C34.4645 9.95918 34.4548 9.49927 34.6091 9.3427C34.7827 9.16657 35.1686 9.23506 35.3229 9.46991ZM45.1995 18.8149C45.5467 19.1672 45.3442 19.6369 44.8715 19.5782C44.235 19.5097 44.2928 18.7366 44.9391 18.629C44.9776 18.629 45.0934 18.7073 45.1995 18.8149Z" fill="white"/>
<path d="M8.9619 8.27611C8.44106 8.47182 7.89129 8.96108 7.61158 9.46992C7.3801 9.89069 7.34152 10.0668 7.34152 10.7127V11.4759L4.68911 14.1669L2.0367 16.8579L2.00776 20.1653C1.98847 21.9756 2.00776 23.5706 2.0367 23.7076C2.10422 23.9816 4.2165 26.1931 4.61195 26.4083C4.82414 26.516 5.54752 26.5453 8.42177 26.5453H11.9712L13.9195 28.522L15.8774 30.5084L20.0152 30.5573L24.1626 30.6062L24.5098 31.0172C24.6931 31.2423 25.0885 31.5456 25.3875 31.6924C26.95 32.4655 28.8019 31.2227 28.8019 29.3929C28.8019 28.473 28.0496 27.4456 27.1719 27.1422C26.2556 26.8291 25.2236 27.1227 24.5677 27.8859L24.1915 28.3165L20.5167 28.336L16.842 28.3556L14.8647 26.3496L12.8875 24.3436L9.19338 24.3143L5.50894 24.2849L4.86272 23.6293L4.20685 22.9835V20.3806V17.7875L6.5892 15.3705L8.9619 12.9633L9.47309 13.0122C10.2736 13.1003 10.8234 12.8948 11.4118 12.2979C12.4148 11.2802 12.3956 9.7537 11.3442 8.80452C10.6691 8.18804 9.7528 7.98255 8.9619 8.27611ZM10.0711 10.2234C10.2351 10.3897 10.2158 10.6931 10.0229 10.9084C9.82996 11.1236 9.62741 11.1334 9.39593 10.9182C9.20302 10.742 9.17409 10.5659 9.31877 10.2919C9.43451 10.0766 9.88783 10.0375 10.0711 10.2234ZM26.7861 29.2461C26.8536 29.4418 26.8439 29.5592 26.7282 29.7354C26.4774 30.1365 25.9084 29.9702 25.9084 29.5005C25.9084 29.1482 26.0723 28.9917 26.4099 28.9917C26.6221 28.9917 26.7089 29.0504 26.7861 29.2461Z" fill="white"/>
<path d="M11.5853 14.6266C10.8426 14.8908 10.1674 15.6834 9.98419 16.5152C9.82022 17.2784 10.0614 18.0123 10.7172 18.6777C11.2959 19.2649 11.8361 19.4606 12.6559 19.3725L13.196 19.3138L15.3951 21.5155L17.5942 23.7172L17.546 24.2847C17.3531 26.369 19.5714 27.7585 21.2497 26.6137C22.5614 25.7232 22.7736 24.0988 21.7319 22.9539C21.1725 22.3277 20.671 22.1222 19.8222 22.1515L19.1374 22.1711L16.948 19.9498L14.7585 17.7384L14.7971 17.0534C14.826 16.5054 14.7971 16.2901 14.6235 15.9379C14.3631 15.3899 13.6976 14.7734 13.196 14.6266C12.7427 14.4896 11.9807 14.4896 11.5853 14.6266ZM12.733 16.6228C12.9356 16.8185 12.926 16.9849 12.7041 17.2589C12.5498 17.4546 12.4823 17.4742 12.2508 17.3959C11.7589 17.2197 11.8457 16.4663 12.3665 16.4663C12.4823 16.4663 12.6559 16.5348 12.733 16.6228ZM20.2948 24.2162C20.4202 24.3435 20.4491 24.6762 20.3334 24.8523C20.208 25.0578 19.774 25.1067 19.6004 24.9306C19.2724 24.5979 19.4653 24.0988 19.9283 24.0988C20.0633 24.0988 20.2273 24.1477 20.2948 24.2162Z" fill="white"/>
<path d="M43.8366 24.5392C43.3254 24.8034 42.8239 25.3513 42.6214 25.8406C42.4092 26.3494 42.4477 27.2203 42.6985 27.7585C42.8143 28.0129 43.1036 28.3946 43.3447 28.6098L43.7884 29.0013L41.2228 31.6139C39.8146 33.0524 38.609 34.3245 38.5511 34.4419C38.4932 34.5593 38.445 34.8138 38.445 34.9997C38.445 35.2443 38.3871 35.3715 38.2521 35.4498C38.146 35.5085 37.8856 35.7727 37.6831 36.0369C37.1719 36.6925 37.0175 37.3873 37.2297 38.1212C37.3937 38.6887 37.7699 39.2465 38.175 39.5205C38.4064 39.6868 38.445 39.7749 38.445 40.1957C38.445 40.6654 38.4161 40.7143 38.0206 41.047C36.352 42.4757 37.2876 45.2743 39.4674 45.3526C40.2294 45.3721 40.7309 45.1764 41.2421 44.6578C41.7244 44.1685 42.0137 43.4738 42.0137 42.8475C42.0041 42.1821 41.4929 41.2427 40.9527 40.8807C40.702 40.7143 40.6634 40.6262 40.6634 40.2348C40.6634 39.8336 40.702 39.7553 41.0492 39.4716C41.2614 39.3052 41.5507 38.9529 41.6954 38.6985C41.9269 38.3169 41.9655 38.131 41.9655 37.5536C41.9558 36.7415 41.7147 36.1837 41.1167 35.6161L40.7213 35.2443L43.3447 32.5827C44.8494 31.0464 45.9779 29.833 45.9779 29.7254C45.9875 29.6177 45.9971 29.4122 46.0068 29.2655C46.0164 29.0893 46.1804 28.8643 46.4987 28.5609L46.9713 28.1108H51.4852H52V26.4864V25.3709H51.4852H46.9713L46.6337 25.0186C46.1611 24.5098 45.6596 24.2945 44.9072 24.3043C44.4346 24.3043 44.1742 24.363 43.8366 24.5392ZM45.3123 26.4864C45.4377 26.6626 45.3991 26.8289 45.1966 27.0344C44.9651 27.2693 44.7819 27.279 44.5793 27.0736C44.2128 26.7017 44.5986 26.0363 45.0423 26.2712C45.158 26.3299 45.2738 26.4277 45.3123 26.4864ZM39.94 37.2112C40.2004 37.4949 40.0365 37.9353 39.6699 37.9744C39.1684 38.0331 38.9369 37.5732 39.2841 37.1916C39.4867 36.9567 39.7182 36.9665 39.94 37.2112ZM39.8918 42.5931C40.1522 42.8573 40.1329 43.1411 39.8436 43.3368C39.6217 43.4836 39.5831 43.4836 39.3613 43.3368C39.0527 43.1313 39.043 42.7594 39.3324 42.554C39.6121 42.3582 39.6603 42.3582 39.8918 42.5931Z" fill="white"/>
<path d="M10.8393 29.52C10.1834 29.6961 9.55651 30.2245 9.25751 30.8214C8.90064 31.5455 8.8717 31.9663 9.12248 32.6415C9.38289 33.3363 9.68189 33.7081 10.2702 34.0604C10.6464 34.2854 10.82 34.3246 11.4759 34.3246H12.2378L13.4531 35.5673C14.1186 36.2425 14.7649 36.8492 14.8806 36.9079C15.0156 36.9764 15.8162 37.0155 17.0701 37.0155H19.0569L19.6164 37.5831C20.224 38.1996 20.6484 38.3855 21.4393 38.3855C22.0662 38.3855 22.8185 38.0039 23.2815 37.4461L23.6287 37.0155H26.7345H29.8402L30.0138 37.2798C30.1971 37.5733 30.7275 38.0919 30.8529 38.0919C30.8915 38.0919 30.9204 39.0411 30.9204 40.1958V42.2898L30.5829 42.5638C29.1168 43.7381 29.3097 45.9202 30.9397 46.7422C32.1743 47.3684 33.6114 46.8205 34.2866 45.4603C34.7303 44.56 34.4313 43.3564 33.5825 42.6323L33.1388 42.2605V40.1958V38.1311L33.5536 37.8375C34.3638 37.2504 34.711 35.9881 34.3059 35.0389C33.5536 33.258 31.2484 32.9155 30.1488 34.4322L29.9077 34.7551L26.7538 34.7649H23.5902L23.0886 34.2365C22.5292 33.6592 22.1434 33.4928 21.3236 33.4928C20.6773 33.4928 19.9443 33.8549 19.5392 34.3637L19.2209 34.7649H17.5234H15.8258L14.7842 33.7179L13.7425 32.6806L13.81 32.2599C13.9547 31.2618 13.3856 30.1854 12.479 29.7353C11.8135 29.4221 11.3987 29.3634 10.8393 29.52ZM11.7942 31.7119C11.8713 32.0446 11.717 32.2599 11.3601 32.299C11.0226 32.3382 10.8007 32.0544 10.9068 31.7217C11.0419 31.3009 11.6881 31.2911 11.7942 31.7119ZM21.6804 35.6162C21.8926 35.8119 21.9023 36.0174 21.6901 36.2523C21.3718 36.6143 20.8895 36.3795 20.8895 35.8707C20.8895 35.4695 21.3525 35.3129 21.6804 35.6162ZM32.3286 35.6162C32.5215 35.8804 32.4926 36.2131 32.2611 36.3306C31.9621 36.4969 31.6053 36.3697 31.5377 36.0762C31.422 35.5967 32.0393 35.2346 32.3286 35.6162ZM32.2804 44.1588C32.4926 44.2763 32.5312 44.7362 32.3479 44.9221C32.0779 45.1961 31.4992 44.9417 31.4992 44.5503C31.4992 44.335 31.7499 44.061 31.9428 44.061C32.0296 44.061 32.1743 44.1099 32.2804 44.1588Z" fill="white"/>
<defs>
<linearGradient id="paint0_linear_126_454" x1="7.82584e-07" y1="26.4906" x2="52" y2="26.4906" gradientUnits="userSpaceOnUse">
<stop stop-color="#00C99F"/>
<stop offset="1" stop-color="#009ACB"/>
</linearGradient>
</defs>
</svg>
