<svg width="150" height="50" viewBox="0 0 150 50" fill="none" xmlns="http://www.w3.org/2000/svg">
<rect width="50" height="50" rx="5" fill="url(#paint0_linear_225_200)"/>
<path d="M36.8924 8.45499H40.0054L44.5791 13.3879V15.8783" stroke="white" stroke-width="2"/>
<path d="M31.8663 35.9363V40.9094" stroke="white" stroke-width="2"/>
<path d="M13.0124 31.9353L15.4367 34.2449H19.0765" stroke="white" stroke-width="2"/>
<path d="M23.1776 34.2504H30.0154" stroke="white" stroke-width="2"/>
<path d="M12.1862 9.37515C12.1862 10.7559 11.0669 11.8752 9.68616 11.8752C8.30545 11.8752 7.18616 10.7559 7.18616 9.37515C7.18616 7.99444 8.30545 6.87515 9.68616 6.87515C11.0669 6.87515 12.1862 7.99444 12.1862 9.37515ZM9.18616 9.37515C9.18616 9.65129 9.41001 9.87515 9.68616 9.87515C9.9623 9.87515 10.1862 9.65129 10.1862 9.37515C10.1862 9.09901 9.9623 8.87515 9.68616 8.87515C9.41001 8.87515 9.18616 9.09901 9.18616 9.37515Z" fill="white"/>
<path d="M19.4568 7.34058C19.4568 8.72129 18.3376 9.84058 16.9568 9.84058C15.5761 9.84058 14.4568 8.72129 14.4568 7.34058C14.4568 5.95986 15.5761 4.84058 16.9568 4.84058C18.3376 4.84058 19.4568 5.95986 19.4568 7.34058ZM16.4568 7.34058C16.4568 7.61672 16.6807 7.84058 16.9568 7.84058C17.233 7.84058 17.4568 7.61672 17.4568 7.34058C17.4568 7.06443 17.233 6.84058 16.9568 6.84058C16.6807 6.84058 16.4568 7.06443 16.4568 7.34058Z" fill="white"/>
<path d="M27.5601 7.34058C27.5601 8.72129 26.4408 9.84058 25.0601 9.84058C23.6793 9.84058 22.5601 8.72129 22.5601 7.34058C22.5601 5.95986 23.6793 4.84058 25.0601 4.84058C26.4408 4.84058 27.5601 5.95986 27.5601 7.34058ZM24.5601 7.34058C24.5601 7.61672 24.7839 7.84058 25.0601 7.84058C25.3362 7.84058 25.5601 7.61672 25.5601 7.34058C25.5601 7.06443 25.3362 6.84058 25.0601 6.84058C24.7839 6.84058 24.5601 7.06443 24.5601 7.34058Z" fill="white"/>
<path d="M37.2478 8.53702C37.2478 9.91773 36.1285 11.037 34.7478 11.037C33.3671 11.037 32.2478 9.91773 32.2478 8.53702C32.2478 7.15631 33.3671 6.03702 34.7478 6.03702C36.1285 6.03702 37.2478 7.15631 37.2478 8.53702ZM34.2478 8.53702C34.2478 8.81316 34.4717 9.03702 34.7478 9.03702C35.0239 9.03702 35.2478 8.81316 35.2478 8.53702C35.2478 8.26088 35.0239 8.03702 34.7478 8.03702C34.4717 8.03702 34.2478 8.26088 34.2478 8.53702Z" fill="white"/>
<path d="M47.1949 17.7839C47.1949 19.1646 46.0756 20.2839 44.6949 20.2839C43.3142 20.2839 42.1949 19.1646 42.1949 17.7839C42.1949 16.4032 43.3142 15.2839 44.6949 15.2839C46.0756 15.2839 47.1949 16.4032 47.1949 17.7839ZM44.1949 17.7839C44.1949 18.06 44.4188 18.2839 44.6949 18.2839C44.9711 18.2839 45.1949 18.06 45.1949 17.7839C45.1949 17.5077 44.9711 17.2839 44.6949 17.2839C44.4188 17.2839 44.1949 17.5077 44.1949 17.7839Z" fill="white"/>
<path d="M34.3609 42.6594C34.3609 44.0401 33.2416 45.1594 31.8609 45.1594C30.4802 45.1594 29.3609 44.0401 29.3609 42.6594C29.3609 41.2787 30.4802 40.1594 31.8609 40.1594C33.2416 40.1594 34.3609 41.2787 34.3609 42.6594ZM31.3609 42.6594C31.3609 42.9356 31.5848 43.1594 31.8609 43.1594C32.137 43.1594 32.3609 42.9356 32.3609 42.6594C32.3609 42.3833 32.137 42.1594 31.8609 42.1594C31.5848 42.1594 31.3609 42.3833 31.3609 42.6594Z" fill="white"/>
<path d="M34.3609 34.1673C34.3609 35.548 33.2416 36.6673 31.8609 36.6673C30.4802 36.6673 29.3609 35.548 29.3609 34.1673C29.3609 32.7866 30.4802 31.6673 31.8609 31.6673C33.2416 31.6673 34.3609 32.7866 34.3609 34.1673ZM31.3609 34.1673C31.3609 34.4434 31.5848 34.6673 31.8609 34.6673C32.137 34.6673 32.3609 34.4434 32.3609 34.1673C32.3609 33.8912 32.137 33.6673 31.8609 33.6673C31.5848 33.6673 31.3609 33.8912 31.3609 34.1673Z" fill="white"/>
<path d="M23.7854 34.1673C23.7854 35.548 22.6661 36.6673 21.2854 36.6673C19.9047 36.6673 18.7854 35.548 18.7854 34.1673C18.7854 32.7866 19.9047 31.6673 21.2854 31.6673C22.6661 31.6673 23.7854 32.7866 23.7854 34.1673ZM20.7854 34.1673C20.7854 34.4434 21.0093 34.6673 21.2854 34.6673C21.5615 34.6673 21.7854 34.4434 21.7854 34.1673C21.7854 33.8912 21.5615 33.6673 21.2854 33.6673C21.0093 33.6673 20.7854 33.8912 20.7854 34.1673Z" fill="white"/>
<path d="M13.8959 30.2936C13.8959 31.6743 12.7766 32.7936 11.3959 32.7936C10.0152 32.7936 8.8959 31.6743 8.8959 30.2936C8.8959 28.9129 10.0152 27.7936 11.3959 27.7936C12.7766 27.7936 13.8959 28.9129 13.8959 30.2936ZM10.8959 30.2936C10.8959 30.5697 11.1198 30.7936 11.3959 30.7936C11.672 30.7936 11.8959 30.5697 11.8959 30.2936C11.8959 30.0174 11.672 29.7936 11.3959 29.7936C11.1198 29.7936 10.8959 30.0174 10.8959 30.2936Z" fill="white"/>
<path d="M28.7854 27.8962C28.7854 29.2769 27.6661 30.3962 26.2854 30.3962C24.9047 30.3962 23.7854 29.2769 23.7854 27.8962C23.7854 26.5155 24.9047 25.3962 26.2854 25.3962C27.6661 25.3962 28.7854 26.5155 28.7854 27.8962ZM25.7854 27.8962C25.7854 28.1723 26.0093 28.3962 26.2854 28.3962C26.5615 28.3962 26.7854 28.1723 26.7854 27.8962C26.7854 27.62 26.5615 27.3962 26.2854 27.3962C26.0093 27.3962 25.7854 27.62 25.7854 27.8962Z" fill="white"/>
<path d="M14.8617 15.545C14.8617 16.9257 13.7424 18.045 12.3617 18.045C10.981 18.045 9.86166 16.9257 9.86166 15.545C9.86166 14.1643 10.981 13.045 12.3617 13.045C13.7424 13.045 14.8617 14.1643 14.8617 15.545ZM11.8617 15.545C11.8617 15.8211 12.0855 16.045 12.3617 16.045C12.6378 16.045 12.8617 15.8211 12.8617 15.545C12.8617 15.2688 12.6378 15.045 12.3617 15.045C12.0855 15.045 11.8617 15.2688 11.8617 15.545Z" fill="white"/>
<path d="M22.3301 23.1801C22.3301 24.5608 21.2109 25.6801 19.8301 25.6801C18.4494 25.6801 17.3301 24.5608 17.3301 23.1801C17.3301 21.7994 18.4494 20.6801 19.8301 20.6801C21.2109 20.6801 22.3301 21.7994 22.3301 23.1801ZM19.3301 23.1801C19.3301 23.4563 19.554 23.6801 19.8301 23.6801C20.1063 23.6801 20.3301 23.4563 20.3301 23.1801C20.3301 22.904 20.1063 22.6801 19.8301 22.6801C19.554 22.6801 19.3301 22.904 19.3301 23.1801Z" fill="white"/>
<path d="M28.7854 20.6801C28.7854 22.0608 27.6661 23.1801 26.2854 23.1801C24.9047 23.1801 23.7854 22.0608 23.7854 20.6801C23.7854 19.2994 24.9047 18.1801 26.2854 18.1801C27.6661 18.1801 28.7854 19.2994 28.7854 20.6801ZM25.7854 20.6801C25.7854 20.9563 26.0093 21.1801 26.2854 21.1801C26.5615 21.1801 26.7854 20.9563 26.7854 20.6801C26.7854 20.404 26.5615 20.1801 26.2854 20.1801C26.0093 20.1801 25.7854 20.404 25.7854 20.6801Z" fill="white"/>
<path d="M38.0601 24.3962C38.0601 25.7769 36.9408 26.8962 35.5601 26.8962C34.1793 26.8962 33.0601 25.7769 33.0601 24.3962C33.0601 23.0155 34.1793 21.8962 35.5601 21.8962C36.9408 21.8962 38.0601 23.0155 38.0601 24.3962ZM35.0601 24.3962C35.0601 24.6723 35.2839 24.8962 35.5601 24.8962C35.8362 24.8962 36.0601 24.6723 36.0601 24.3962C36.0601 24.12 35.8362 23.8962 35.5601 23.8962C35.2839 23.8962 35.0601 24.12 35.0601 24.3962Z" fill="white"/>
<path d="M41.844 41.1533C41.844 42.534 40.7247 43.6533 39.344 43.6533C37.9633 43.6533 36.844 42.534 36.844 41.1533C36.844 39.7726 37.9633 38.6533 39.344 38.6533C40.7247 38.6533 41.844 39.7726 41.844 41.1533ZM38.844 41.1533C38.844 41.4295 39.0679 41.6533 39.344 41.6533C39.6201 41.6533 39.844 41.4295 39.844 41.1533C39.844 40.8772 39.6201 40.6533 39.344 40.6533C39.0679 40.6533 38.844 40.8772 38.844 41.1533Z" fill="white"/>
<path d="M41.844 35.8283C41.844 37.209 40.7247 38.3283 39.344 38.3283C37.9633 38.3283 36.844 37.209 36.844 35.8283C36.844 34.4476 37.9633 33.3283 39.344 33.3283C40.7247 33.3283 41.844 34.4476 41.844 35.8283ZM38.844 35.8283C38.844 36.1045 39.0679 36.3283 39.344 36.3283C39.6201 36.3283 39.844 36.1045 39.844 35.8283C39.844 35.5522 39.6201 35.3283 39.344 35.3283C39.0679 35.3283 38.844 35.5522 38.844 35.8283Z" fill="white"/>
<path d="M47.1443 25.1939C47.1443 26.5746 46.0251 27.6939 44.6443 27.6939C43.2636 27.6939 42.1443 26.5746 42.1443 25.1939C42.1443 23.8132 43.2636 22.6939 44.6443 22.6939C46.0251 22.6939 47.1443 23.8132 47.1443 25.1939ZM44.1443 25.1939C44.1443 25.4701 44.3682 25.6939 44.6443 25.6939C44.9205 25.6939 45.1443 25.4701 45.1443 25.1939C45.1443 24.9178 44.9205 24.6939 44.6443 24.6939C44.3682 24.6939 44.1443 24.9178 44.1443 25.1939Z" fill="white"/>
<path d="M13.3593 16.663L18.9044 22.1444" stroke="white" stroke-width="2"/>
<path d="M17.9773 8.39618L26.0601 16.7922V18.7463" stroke="white" stroke-width="2"/>
<path d="M8.06006 10.8962L3.06006 15.8962V21.8962L5.06006 23.8962H12.0601L16.0601 27.8962H25.0601" stroke="white" stroke-width="2"/>
<path d="M26.3457 8.63916L33.06 15.2409V21.9761L34.0811 22.943" stroke="white" stroke-width="2"/>
<path d="M39.3583 37.9358V38.917M44.6061 27.3729V28.0164L39.453 33.1374L39.453 33.8652M46.8076 25.3292H50" stroke="white" stroke-width="2"/>
<mask id="path-28-outside-1_225_200" maskUnits="userSpaceOnUse" x="56.2011" y="27.8524" width="19" height="16" fill="black">
<rect fill="white" x="56.2011" y="27.8524" width="19" height="16"/>
<path d="M56.9021 28.6984V42.8524H57.9101V28.6984H56.9021ZM64.3348 42.8524H65.3428V29.5384H69.9628V28.6984H59.7148V29.5384H64.3348V42.8524ZM69.3605 36.6364V37.5184H74.3585V36.6364H69.3605Z"/>
</mask>
<path d="M56.9021 28.6984V42.8524H57.9101V28.6984H56.9021ZM64.3348 42.8524H65.3428V29.5384H69.9628V28.6984H59.7148V29.5384H64.3348V42.8524ZM69.3605 36.6364V37.5184H74.3585V36.6364H69.3605Z" fill="white"/>
<path d="M56.9021 28.6984V28.4984H56.7021V28.6984H56.9021ZM56.9021 42.8524H56.7021V43.0524H56.9021V42.8524ZM57.9101 42.8524V43.0524H58.1101V42.8524H57.9101ZM57.9101 28.6984H58.1101V28.4984H57.9101V28.6984ZM56.7021 28.6984V42.8524H57.1021V28.6984H56.7021ZM56.9021 43.0524H57.9101V42.6524H56.9021V43.0524ZM58.1101 42.8524V28.6984H57.7101V42.8524H58.1101ZM57.9101 28.4984H56.9021V28.8984H57.9101V28.4984ZM64.3348 42.8524H64.1348V43.0524H64.3348V42.8524ZM65.3428 42.8524V43.0524H65.5428V42.8524H65.3428ZM65.3428 29.5384V29.3384H65.1428V29.5384H65.3428ZM69.9628 29.5384V29.7384H70.1628V29.5384H69.9628ZM69.9628 28.6984H70.1628V28.4984H69.9628V28.6984ZM59.7148 28.6984V28.4984H59.5148V28.6984H59.7148ZM59.7148 29.5384H59.5148V29.7384H59.7148V29.5384ZM64.3348 29.5384H64.5348V29.3384H64.3348V29.5384ZM64.3348 43.0524H65.3428V42.6524H64.3348V43.0524ZM65.5428 42.8524V29.5384H65.1428V42.8524H65.5428ZM65.3428 29.7384H69.9628V29.3384H65.3428V29.7384ZM70.1628 29.5384V28.6984H69.7628V29.5384H70.1628ZM69.9628 28.4984H59.7148V28.8984H69.9628V28.4984ZM59.5148 28.6984V29.5384H59.9148V28.6984H59.5148ZM59.7148 29.7384H64.3348V29.3384H59.7148V29.7384ZM64.1348 29.5384V42.8524H64.5348V29.5384H64.1348ZM69.3605 36.6364V36.4364H69.1605V36.6364H69.3605ZM69.3605 37.5184H69.1605V37.7184H69.3605V37.5184ZM74.3585 37.5184V37.7184H74.5585V37.5184H74.3585ZM74.3585 36.6364H74.5585V36.4364H74.3585V36.6364ZM69.1605 36.6364V37.5184H69.5605V36.6364H69.1605ZM69.3605 37.7184H74.3585V37.3184H69.3605V37.7184ZM74.5585 37.5184V36.6364H74.1585V37.5184H74.5585ZM74.3585 36.4364H69.3605V36.8364H74.3585V36.4364Z" fill="white" mask="url(#path-28-outside-1_225_200)"/>
<mask id="path-30-outside-2_225_200" maskUnits="userSpaceOnUse" x="74.6529" y="27.6984" width="73" height="19" fill="black">
<rect fill="white" x="74.6529" y="27.6984" width="73" height="19"/>
<path d="M84.0109 37.8964L85.7959 42.8524H86.8249L81.7429 28.6984H80.7769L75.6529 42.8524H76.6819L78.4249 37.8964H84.0109ZM78.7399 37.0564L80.4619 32.2894C80.7769 31.3864 81.0079 30.6514 81.1969 29.8324H81.2599C81.4489 30.6304 81.6379 31.3444 81.9949 32.3314L83.7169 37.0564H78.7399Z"/>
<path d="M88.3151 32.7724V42.8524H89.3231V38.1274H89.7011C91.8431 38.1274 92.9561 38.9464 93.7961 40.8994C94.0901 41.5714 94.4891 42.4114 94.7621 42.8524H95.8121C95.3921 42.1174 95.0561 41.2564 94.8251 40.7104C93.9221 38.6524 92.7881 37.6234 90.8771 37.4554L95.7071 32.7724H94.3841L89.8061 37.3714H89.3231V32.7724H88.3151Z"/>
<path d="M103.519 36.5104C103.519 34.7254 102.952 32.5414 100.033 32.5414C99.1302 32.5414 97.9962 32.7934 97.0722 33.4024L97.3872 34.1374C98.1222 33.6124 99.0462 33.3814 99.9282 33.3814C102.322 33.3604 102.511 35.3554 102.511 36.3424V36.6154C98.3952 36.5734 96.3582 37.9804 96.3582 40.3114C96.3582 41.6554 97.2822 43.0834 99.3192 43.0834C100.936 43.0834 102.049 42.1804 102.553 41.4034H102.595L102.742 42.8524H103.666C103.54 42.0754 103.519 41.2564 103.519 40.4584V36.5104ZM102.511 39.6184C102.511 39.7864 102.49 40.0174 102.406 40.2274C102.07 41.2144 101.104 42.2434 99.4242 42.2434C98.3742 42.2434 97.4082 41.5924 97.4082 40.1434C97.4082 37.7284 100.306 37.3924 102.511 37.4554V39.6184Z"/>
<path d="M107.069 32.7724V35.4814C107.069 37.0984 106.88 38.5684 106.418 39.9754C106.187 40.6684 105.83 41.3404 105.41 42.0124H104.591L104.675 46.0024H105.515L105.578 42.8524H112.991L113.054 46.0024H113.894L113.978 42.0124H112.991V32.7724H107.069ZM107.972 33.6124H111.983V42.0124H106.502C106.817 41.4034 107.132 40.7944 107.363 40.0384C107.783 38.7364 107.972 37.2244 107.972 35.5654V33.6124Z"/>
<path d="M123.328 37.7074C123.37 37.5184 123.37 37.3714 123.37 37.0984C123.37 35.6494 122.74 32.5414 119.443 32.5414C116.839 32.5414 114.907 34.6414 114.907 38.0014C114.907 40.9624 116.713 43.0624 119.611 43.0624C121.375 43.0624 122.404 42.6214 122.782 42.4114L122.53 41.6344C121.963 41.9074 121.207 42.2014 119.737 42.2014C117.637 42.2014 115.894 40.9204 115.894 37.7074H123.328ZM115.936 36.9094C116.125 35.3554 117.091 33.3814 119.317 33.3814C121.753 33.3814 122.341 35.5024 122.32 36.9094H115.936Z"/>
<path d="M124.468 42.8524H125.476L125.791 37.5814C125.854 36.3214 125.938 35.0404 125.959 33.8854H126.043C126.316 34.8094 126.82 36.3004 127.177 37.2244L129.34 42.8524H130.075L132.364 37.1404C132.973 35.6284 133.393 34.5364 133.582 33.8854H133.645C133.708 35.1664 133.792 36.3214 133.855 37.5394L134.149 42.8524H135.157L134.401 32.7724H133.204L131.251 37.6654C130.789 38.8414 130.075 40.7524 129.802 41.5504H129.781C129.55 40.8364 129.025 39.4714 128.71 38.6314L126.421 32.7724H125.266L124.468 42.8524Z"/>
<path d="M138.091 42.8524V32.7724H137.083V42.8524H138.091Z"/>
<path d="M147.286 32.8774C146.425 32.7514 145.396 32.6674 144.43 32.6674C143.149 32.6674 142.015 32.8774 141.238 33.4024C140.629 33.8434 140.167 34.5154 140.167 35.4394C140.167 36.9514 141.448 37.7914 142.876 37.9594V38.0014C142.435 38.0644 142.099 38.2534 141.805 38.4634C140.734 39.2824 140.608 40.5844 140.104 41.6974C139.915 42.1384 139.705 42.5164 139.495 42.8524H140.587C140.713 42.6424 140.881 42.3274 141.007 42.0124C141.469 40.9204 141.742 39.4714 142.645 38.8204C143.065 38.5054 143.653 38.3374 144.472 38.3374H146.278V42.8524H147.286V32.8774ZM146.278 37.5184C145.774 37.5184 145.312 37.5184 144.388 37.5184C143.191 37.5184 141.196 37.0354 141.196 35.4814C141.196 33.7804 143.086 33.4444 144.472 33.4444C145.228 33.4444 145.711 33.4864 146.278 33.5704V37.5184Z"/>
</mask>
<path d="M84.0109 37.8964L85.7959 42.8524H86.8249L81.7429 28.6984H80.7769L75.6529 42.8524H76.6819L78.4249 37.8964H84.0109ZM78.7399 37.0564L80.4619 32.2894C80.7769 31.3864 81.0079 30.6514 81.1969 29.8324H81.2599C81.4489 30.6304 81.6379 31.3444 81.9949 32.3314L83.7169 37.0564H78.7399Z" fill="white"/>
<path d="M88.3151 32.7724V42.8524H89.3231V38.1274H89.7011C91.8431 38.1274 92.9561 38.9464 93.7961 40.8994C94.0901 41.5714 94.4891 42.4114 94.7621 42.8524H95.8121C95.3921 42.1174 95.0561 41.2564 94.8251 40.7104C93.9221 38.6524 92.7881 37.6234 90.8771 37.4554L95.7071 32.7724H94.3841L89.8061 37.3714H89.3231V32.7724H88.3151Z" fill="white"/>
<path d="M103.519 36.5104C103.519 34.7254 102.952 32.5414 100.033 32.5414C99.1302 32.5414 97.9962 32.7934 97.0722 33.4024L97.3872 34.1374C98.1222 33.6124 99.0462 33.3814 99.9282 33.3814C102.322 33.3604 102.511 35.3554 102.511 36.3424V36.6154C98.3952 36.5734 96.3582 37.9804 96.3582 40.3114C96.3582 41.6554 97.2822 43.0834 99.3192 43.0834C100.936 43.0834 102.049 42.1804 102.553 41.4034H102.595L102.742 42.8524H103.666C103.54 42.0754 103.519 41.2564 103.519 40.4584V36.5104ZM102.511 39.6184C102.511 39.7864 102.49 40.0174 102.406 40.2274C102.07 41.2144 101.104 42.2434 99.4242 42.2434C98.3742 42.2434 97.4082 41.5924 97.4082 40.1434C97.4082 37.7284 100.306 37.3924 102.511 37.4554V39.6184Z" fill="white"/>
<path d="M107.069 32.7724V35.4814C107.069 37.0984 106.88 38.5684 106.418 39.9754C106.187 40.6684 105.83 41.3404 105.41 42.0124H104.591L104.675 46.0024H105.515L105.578 42.8524H112.991L113.054 46.0024H113.894L113.978 42.0124H112.991V32.7724H107.069ZM107.972 33.6124H111.983V42.0124H106.502C106.817 41.4034 107.132 40.7944 107.363 40.0384C107.783 38.7364 107.972 37.2244 107.972 35.5654V33.6124Z" fill="white"/>
<path d="M123.328 37.7074C123.37 37.5184 123.37 37.3714 123.37 37.0984C123.37 35.6494 122.74 32.5414 119.443 32.5414C116.839 32.5414 114.907 34.6414 114.907 38.0014C114.907 40.9624 116.713 43.0624 119.611 43.0624C121.375 43.0624 122.404 42.6214 122.782 42.4114L122.53 41.6344C121.963 41.9074 121.207 42.2014 119.737 42.2014C117.637 42.2014 115.894 40.9204 115.894 37.7074H123.328ZM115.936 36.9094C116.125 35.3554 117.091 33.3814 119.317 33.3814C121.753 33.3814 122.341 35.5024 122.32 36.9094H115.936Z" fill="white"/>
<path d="M124.468 42.8524H125.476L125.791 37.5814C125.854 36.3214 125.938 35.0404 125.959 33.8854H126.043C126.316 34.8094 126.82 36.3004 127.177 37.2244L129.34 42.8524H130.075L132.364 37.1404C132.973 35.6284 133.393 34.5364 133.582 33.8854H133.645C133.708 35.1664 133.792 36.3214 133.855 37.5394L134.149 42.8524H135.157L134.401 32.7724H133.204L131.251 37.6654C130.789 38.8414 130.075 40.7524 129.802 41.5504H129.781C129.55 40.8364 129.025 39.4714 128.71 38.6314L126.421 32.7724H125.266L124.468 42.8524Z" fill="white"/>
<path d="M138.091 42.8524V32.7724H137.083V42.8524H138.091Z" fill="white"/>
<path d="M147.286 32.8774C146.425 32.7514 145.396 32.6674 144.43 32.6674C143.149 32.6674 142.015 32.8774 141.238 33.4024C140.629 33.8434 140.167 34.5154 140.167 35.4394C140.167 36.9514 141.448 37.7914 142.876 37.9594V38.0014C142.435 38.0644 142.099 38.2534 141.805 38.4634C140.734 39.2824 140.608 40.5844 140.104 41.6974C139.915 42.1384 139.705 42.5164 139.495 42.8524H140.587C140.713 42.6424 140.881 42.3274 141.007 42.0124C141.469 40.9204 141.742 39.4714 142.645 38.8204C143.065 38.5054 143.653 38.3374 144.472 38.3374H146.278V42.8524H147.286V32.8774ZM146.278 37.5184C145.774 37.5184 145.312 37.5184 144.388 37.5184C143.191 37.5184 141.196 37.0354 141.196 35.4814C141.196 33.7804 143.086 33.4444 144.472 33.4444C145.228 33.4444 145.711 33.4864 146.278 33.5704V37.5184Z" fill="white"/>
<path d="M84.0109 37.8964L85.7959 42.8524H86.8249L81.7429 28.6984H80.7769L75.6529 42.8524H76.6819L78.4249 37.8964H84.0109ZM78.7399 37.0564L80.4619 32.2894C80.7769 31.3864 81.0079 30.6514 81.1969 29.8324H81.2599C81.4489 30.6304 81.6379 31.3444 81.9949 32.3314L83.7169 37.0564H78.7399Z" stroke="white" stroke-width="0.4" mask="url(#path-30-outside-2_225_200)"/>
<path d="M88.3151 32.7724V42.8524H89.3231V38.1274H89.7011C91.8431 38.1274 92.9561 38.9464 93.7961 40.8994C94.0901 41.5714 94.4891 42.4114 94.7621 42.8524H95.8121C95.3921 42.1174 95.0561 41.2564 94.8251 40.7104C93.9221 38.6524 92.7881 37.6234 90.8771 37.4554L95.7071 32.7724H94.3841L89.8061 37.3714H89.3231V32.7724H88.3151Z" stroke="white" stroke-width="0.4" mask="url(#path-30-outside-2_225_200)"/>
<path d="M103.519 36.5104C103.519 34.7254 102.952 32.5414 100.033 32.5414C99.1302 32.5414 97.9962 32.7934 97.0722 33.4024L97.3872 34.1374C98.1222 33.6124 99.0462 33.3814 99.9282 33.3814C102.322 33.3604 102.511 35.3554 102.511 36.3424V36.6154C98.3952 36.5734 96.3582 37.9804 96.3582 40.3114C96.3582 41.6554 97.2822 43.0834 99.3192 43.0834C100.936 43.0834 102.049 42.1804 102.553 41.4034H102.595L102.742 42.8524H103.666C103.54 42.0754 103.519 41.2564 103.519 40.4584V36.5104ZM102.511 39.6184C102.511 39.7864 102.49 40.0174 102.406 40.2274C102.07 41.2144 101.104 42.2434 99.4242 42.2434C98.3742 42.2434 97.4082 41.5924 97.4082 40.1434C97.4082 37.7284 100.306 37.3924 102.511 37.4554V39.6184Z" stroke="white" stroke-width="0.4" mask="url(#path-30-outside-2_225_200)"/>
<path d="M107.069 32.7724V35.4814C107.069 37.0984 106.88 38.5684 106.418 39.9754C106.187 40.6684 105.83 41.3404 105.41 42.0124H104.591L104.675 46.0024H105.515L105.578 42.8524H112.991L113.054 46.0024H113.894L113.978 42.0124H112.991V32.7724H107.069ZM107.972 33.6124H111.983V42.0124H106.502C106.817 41.4034 107.132 40.7944 107.363 40.0384C107.783 38.7364 107.972 37.2244 107.972 35.5654V33.6124Z" stroke="white" stroke-width="0.4" mask="url(#path-30-outside-2_225_200)"/>
<path d="M123.328 37.7074C123.37 37.5184 123.37 37.3714 123.37 37.0984C123.37 35.6494 122.74 32.5414 119.443 32.5414C116.839 32.5414 114.907 34.6414 114.907 38.0014C114.907 40.9624 116.713 43.0624 119.611 43.0624C121.375 43.0624 122.404 42.6214 122.782 42.4114L122.53 41.6344C121.963 41.9074 121.207 42.2014 119.737 42.2014C117.637 42.2014 115.894 40.9204 115.894 37.7074H123.328ZM115.936 36.9094C116.125 35.3554 117.091 33.3814 119.317 33.3814C121.753 33.3814 122.341 35.5024 122.32 36.9094H115.936Z" stroke="white" stroke-width="0.4" mask="url(#path-30-outside-2_225_200)"/>
<path d="M124.468 42.8524H125.476L125.791 37.5814C125.854 36.3214 125.938 35.0404 125.959 33.8854H126.043C126.316 34.8094 126.82 36.3004 127.177 37.2244L129.34 42.8524H130.075L132.364 37.1404C132.973 35.6284 133.393 34.5364 133.582 33.8854H133.645C133.708 35.1664 133.792 36.3214 133.855 37.5394L134.149 42.8524H135.157L134.401 32.7724H133.204L131.251 37.6654C130.789 38.8414 130.075 40.7524 129.802 41.5504H129.781C129.55 40.8364 129.025 39.4714 128.71 38.6314L126.421 32.7724H125.266L124.468 42.8524Z" stroke="white" stroke-width="0.4" mask="url(#path-30-outside-2_225_200)"/>
<path d="M138.091 42.8524V32.7724H137.083V42.8524H138.091Z" stroke="white" stroke-width="0.4" mask="url(#path-30-outside-2_225_200)"/>
<path d="M147.286 32.8774C146.425 32.7514 145.396 32.6674 144.43 32.6674C143.149 32.6674 142.015 32.8774 141.238 33.4024C140.629 33.8434 140.167 34.5154 140.167 35.4394C140.167 36.9514 141.448 37.7914 142.876 37.9594V38.0014C142.435 38.0644 142.099 38.2534 141.805 38.4634C140.734 39.2824 140.608 40.5844 140.104 41.6974C139.915 42.1384 139.705 42.5164 139.495 42.8524H140.587C140.713 42.6424 140.881 42.3274 141.007 42.0124C141.469 40.9204 141.742 39.4714 142.645 38.8204C143.065 38.5054 143.653 38.3374 144.472 38.3374H146.278V42.8524H147.286V32.8774ZM146.278 37.5184C145.774 37.5184 145.312 37.5184 144.388 37.5184C143.191 37.5184 141.196 37.0354 141.196 35.4814C141.196 33.7804 143.086 33.4444 144.472 33.4444C145.228 33.4444 145.711 33.4864 146.278 33.5704V37.5184Z" stroke="white" stroke-width="0.4" mask="url(#path-30-outside-2_225_200)"/>
<path d="M138.587 30.5924C138.587 31.1446 138.139 31.5924 137.587 31.5924C137.035 31.5924 136.587 31.1446 136.587 30.5924C136.587 30.0401 137.035 29.5924 137.587 29.5924C138.139 29.5924 138.587 30.0401 138.587 30.5924ZM137.337 30.5924C137.337 30.7304 137.449 30.8424 137.587 30.8424C137.725 30.8424 137.837 30.7304 137.837 30.5924C137.837 30.4543 137.725 30.3424 137.587 30.3424C137.449 30.3424 137.337 30.4543 137.337 30.5924Z" fill="white"/>
<mask id="path-32-outside-3_225_200" maskUnits="userSpaceOnUse" x="56.2057" y="6.21227" width="92" height="19" fill="black">
<rect fill="white" x="56.2057" y="6.21227" width="92" height="19"/>
<path d="M57.2057 21.4503C57.7727 21.4923 58.5917 21.5763 59.6627 21.5763C61.6787 21.5763 63.2117 21.1773 64.1567 20.2323C64.7867 19.5603 65.2067 18.6783 65.2067 17.5233C65.2067 15.2133 63.4007 14.1843 62.2037 13.9113V13.8483C63.6107 13.3653 64.6397 12.1473 64.6397 10.6983C64.6397 9.71127 64.3457 8.95527 63.7577 8.38826C62.9807 7.59027 61.8257 7.21227 60.0617 7.21227C59.0117 7.21227 58.0037 7.33826 57.2057 7.52726V21.4503ZM58.2137 8.19926C58.5287 8.11526 59.0747 8.05226 59.9987 8.05226C62.0987 8.05226 63.6107 8.76626 63.6107 10.7613C63.6107 12.3153 62.3297 13.5333 60.2717 13.5333H58.2137V8.19926ZM58.2137 14.3523H59.9987C62.2457 14.3523 64.1567 15.3183 64.1567 17.5443C64.1567 19.9593 62.1197 20.7363 59.9567 20.7363C59.2007 20.7363 58.6337 20.7153 58.2137 20.6313V14.3523Z"/>
<path d="M69.4042 21.4713V11.3913H68.3962V21.4713H69.4042Z"/>
<path d="M73.2889 11.3913V21.4713H74.2969V16.5573H80.0929V21.4713H81.1009V11.3913H80.0929V15.7173H74.2969V11.3913H73.2889Z"/>
<path d="M84.9101 11.3913V21.4713H85.9181V16.5573H91.7141V21.4713H92.7221V11.3913H91.7141V15.7173H85.9181V11.3913H84.9101Z"/>
<path d="M96.5313 11.3913V21.4713H97.6023C98.9043 19.5603 100.227 17.5233 101.382 15.8643C102.096 14.7723 102.642 13.8903 103.461 12.4623H103.503C103.419 13.7643 103.398 14.7513 103.398 16.4313V21.4713H104.385V11.3913H103.293L99.4083 17.1663C98.5683 18.4473 98.1903 19.1193 97.4763 20.3793L97.4343 20.3583C97.5183 18.8673 97.5183 17.9433 97.5183 16.3683V11.3913H96.5313Z"/>
<path d="M108.214 11.3913V21.4713H115.816L115.879 24.6213H116.719L116.803 20.6313H115.816V11.3913H114.808V20.6313H109.222V11.3913H108.214Z"/>
<path d="M119.856 11.3913V21.4503C120.444 21.4923 121.242 21.5763 122.145 21.5763C123.615 21.5763 125.316 21.3243 126.303 20.3793C126.828 19.8543 127.143 19.2033 127.143 18.3003C127.143 15.6123 124.791 14.9403 122.586 14.9403C122.04 14.9403 121.305 14.9613 120.864 15.0453V11.3913H119.856ZM120.843 15.8853C121.368 15.8013 121.851 15.7593 122.355 15.7593C123.972 15.7593 126.135 16.2213 126.135 18.2793C126.135 20.2533 123.993 20.7783 122.418 20.7783C121.746 20.7783 121.263 20.7363 120.843 20.6943V15.8853Z"/>
<path d="M130.248 11.3913V21.4713H131.256V16.7463H131.634C133.776 16.7463 134.889 17.5653 135.729 19.5183C136.023 20.1903 136.422 21.0303 136.695 21.4713H137.745C137.325 20.7363 136.989 19.8753 136.758 19.3293C135.855 17.2713 134.721 16.2423 132.81 16.0743L137.64 11.3913H136.317L131.739 15.9903H131.256V11.3913H130.248Z"/>
<path d="M146.734 15.1293C146.734 13.3443 146.167 11.1603 143.248 11.1603C142.345 11.1603 141.211 11.4123 140.287 12.0213L140.602 12.7563C141.337 12.2313 142.261 12.0003 143.143 12.0003C145.537 11.9793 145.726 13.9743 145.726 14.9613V15.2343C141.61 15.1923 139.573 16.5993 139.573 18.9303C139.573 20.2743 140.497 21.7023 142.534 21.7023C144.151 21.7023 145.264 20.7993 145.768 20.0223H145.81L145.957 21.4713H146.881C146.755 20.6943 146.734 19.8753 146.734 19.0773V15.1293ZM145.726 18.2373C145.726 18.4053 145.705 18.6363 145.621 18.8463C145.285 19.8333 144.319 20.8623 142.639 20.8623C141.589 20.8623 140.623 20.2113 140.623 18.7623C140.623 16.3473 143.521 16.0113 145.726 16.0743V18.2373Z"/>
</mask>
<path d="M57.2057 21.4503C57.7727 21.4923 58.5917 21.5763 59.6627 21.5763C61.6787 21.5763 63.2117 21.1773 64.1567 20.2323C64.7867 19.5603 65.2067 18.6783 65.2067 17.5233C65.2067 15.2133 63.4007 14.1843 62.2037 13.9113V13.8483C63.6107 13.3653 64.6397 12.1473 64.6397 10.6983C64.6397 9.71127 64.3457 8.95527 63.7577 8.38826C62.9807 7.59027 61.8257 7.21227 60.0617 7.21227C59.0117 7.21227 58.0037 7.33826 57.2057 7.52726V21.4503ZM58.2137 8.19926C58.5287 8.11526 59.0747 8.05226 59.9987 8.05226C62.0987 8.05226 63.6107 8.76626 63.6107 10.7613C63.6107 12.3153 62.3297 13.5333 60.2717 13.5333H58.2137V8.19926ZM58.2137 14.3523H59.9987C62.2457 14.3523 64.1567 15.3183 64.1567 17.5443C64.1567 19.9593 62.1197 20.7363 59.9567 20.7363C59.2007 20.7363 58.6337 20.7153 58.2137 20.6313V14.3523Z" fill="white"/>
<path d="M69.4042 21.4713V11.3913H68.3962V21.4713H69.4042Z" fill="white"/>
<path d="M73.2889 11.3913V21.4713H74.2969V16.5573H80.0929V21.4713H81.1009V11.3913H80.0929V15.7173H74.2969V11.3913H73.2889Z" fill="white"/>
<path d="M84.9101 11.3913V21.4713H85.9181V16.5573H91.7141V21.4713H92.7221V11.3913H91.7141V15.7173H85.9181V11.3913H84.9101Z" fill="white"/>
<path d="M96.5313 11.3913V21.4713H97.6023C98.9043 19.5603 100.227 17.5233 101.382 15.8643C102.096 14.7723 102.642 13.8903 103.461 12.4623H103.503C103.419 13.7643 103.398 14.7513 103.398 16.4313V21.4713H104.385V11.3913H103.293L99.4083 17.1663C98.5683 18.4473 98.1903 19.1193 97.4763 20.3793L97.4343 20.3583C97.5183 18.8673 97.5183 17.9433 97.5183 16.3683V11.3913H96.5313Z" fill="white"/>
<path d="M108.214 11.3913V21.4713H115.816L115.879 24.6213H116.719L116.803 20.6313H115.816V11.3913H114.808V20.6313H109.222V11.3913H108.214Z" fill="white"/>
<path d="M119.856 11.3913V21.4503C120.444 21.4923 121.242 21.5763 122.145 21.5763C123.615 21.5763 125.316 21.3243 126.303 20.3793C126.828 19.8543 127.143 19.2033 127.143 18.3003C127.143 15.6123 124.791 14.9403 122.586 14.9403C122.04 14.9403 121.305 14.9613 120.864 15.0453V11.3913H119.856ZM120.843 15.8853C121.368 15.8013 121.851 15.7593 122.355 15.7593C123.972 15.7593 126.135 16.2213 126.135 18.2793C126.135 20.2533 123.993 20.7783 122.418 20.7783C121.746 20.7783 121.263 20.7363 120.843 20.6943V15.8853Z" fill="white"/>
<path d="M130.248 11.3913V21.4713H131.256V16.7463H131.634C133.776 16.7463 134.889 17.5653 135.729 19.5183C136.023 20.1903 136.422 21.0303 136.695 21.4713H137.745C137.325 20.7363 136.989 19.8753 136.758 19.3293C135.855 17.2713 134.721 16.2423 132.81 16.0743L137.64 11.3913H136.317L131.739 15.9903H131.256V11.3913H130.248Z" fill="white"/>
<path d="M146.734 15.1293C146.734 13.3443 146.167 11.1603 143.248 11.1603C142.345 11.1603 141.211 11.4123 140.287 12.0213L140.602 12.7563C141.337 12.2313 142.261 12.0003 143.143 12.0003C145.537 11.9793 145.726 13.9743 145.726 14.9613V15.2343C141.61 15.1923 139.573 16.5993 139.573 18.9303C139.573 20.2743 140.497 21.7023 142.534 21.7023C144.151 21.7023 145.264 20.7993 145.768 20.0223H145.81L145.957 21.4713H146.881C146.755 20.6943 146.734 19.8753 146.734 19.0773V15.1293ZM145.726 18.2373C145.726 18.4053 145.705 18.6363 145.621 18.8463C145.285 19.8333 144.319 20.8623 142.639 20.8623C141.589 20.8623 140.623 20.2113 140.623 18.7623C140.623 16.3473 143.521 16.0113 145.726 16.0743V18.2373Z" fill="white"/>
<path d="M57.2057 21.4503C57.7727 21.4923 58.5917 21.5763 59.6627 21.5763C61.6787 21.5763 63.2117 21.1773 64.1567 20.2323C64.7867 19.5603 65.2067 18.6783 65.2067 17.5233C65.2067 15.2133 63.4007 14.1843 62.2037 13.9113V13.8483C63.6107 13.3653 64.6397 12.1473 64.6397 10.6983C64.6397 9.71127 64.3457 8.95527 63.7577 8.38826C62.9807 7.59027 61.8257 7.21227 60.0617 7.21227C59.0117 7.21227 58.0037 7.33826 57.2057 7.52726V21.4503ZM58.2137 8.19926C58.5287 8.11526 59.0747 8.05226 59.9987 8.05226C62.0987 8.05226 63.6107 8.76626 63.6107 10.7613C63.6107 12.3153 62.3297 13.5333 60.2717 13.5333H58.2137V8.19926ZM58.2137 14.3523H59.9987C62.2457 14.3523 64.1567 15.3183 64.1567 17.5443C64.1567 19.9593 62.1197 20.7363 59.9567 20.7363C59.2007 20.7363 58.6337 20.7153 58.2137 20.6313V14.3523Z" stroke="white" mask="url(#path-32-outside-3_225_200)"/>
<path d="M69.4042 21.4713V11.3913H68.3962V21.4713H69.4042Z" stroke="white" mask="url(#path-32-outside-3_225_200)"/>
<path d="M73.2889 11.3913V21.4713H74.2969V16.5573H80.0929V21.4713H81.1009V11.3913H80.0929V15.7173H74.2969V11.3913H73.2889Z" stroke="white" mask="url(#path-32-outside-3_225_200)"/>
<path d="M84.9101 11.3913V21.4713H85.9181V16.5573H91.7141V21.4713H92.7221V11.3913H91.7141V15.7173H85.9181V11.3913H84.9101Z" stroke="white" mask="url(#path-32-outside-3_225_200)"/>
<path d="M96.5313 11.3913V21.4713H97.6023C98.9043 19.5603 100.227 17.5233 101.382 15.8643C102.096 14.7723 102.642 13.8903 103.461 12.4623H103.503C103.419 13.7643 103.398 14.7513 103.398 16.4313V21.4713H104.385V11.3913H103.293L99.4083 17.1663C98.5683 18.4473 98.1903 19.1193 97.4763 20.3793L97.4343 20.3583C97.5183 18.8673 97.5183 17.9433 97.5183 16.3683V11.3913H96.5313Z" stroke="white" mask="url(#path-32-outside-3_225_200)"/>
<path d="M108.214 11.3913V21.4713H115.816L115.879 24.6213H116.719L116.803 20.6313H115.816V11.3913H114.808V20.6313H109.222V11.3913H108.214Z" stroke="white" mask="url(#path-32-outside-3_225_200)"/>
<path d="M119.856 11.3913V21.4503C120.444 21.4923 121.242 21.5763 122.145 21.5763C123.615 21.5763 125.316 21.3243 126.303 20.3793C126.828 19.8543 127.143 19.2033 127.143 18.3003C127.143 15.6123 124.791 14.9403 122.586 14.9403C122.04 14.9403 121.305 14.9613 120.864 15.0453V11.3913H119.856ZM120.843 15.8853C121.368 15.8013 121.851 15.7593 122.355 15.7593C123.972 15.7593 126.135 16.2213 126.135 18.2793C126.135 20.2533 123.993 20.7783 122.418 20.7783C121.746 20.7783 121.263 20.7363 120.843 20.6943V15.8853Z" stroke="white" mask="url(#path-32-outside-3_225_200)"/>
<path d="M130.248 11.3913V21.4713H131.256V16.7463H131.634C133.776 16.7463 134.889 17.5653 135.729 19.5183C136.023 20.1903 136.422 21.0303 136.695 21.4713H137.745C137.325 20.7363 136.989 19.8753 136.758 19.3293C135.855 17.2713 134.721 16.2423 132.81 16.0743L137.64 11.3913H136.317L131.739 15.9903H131.256V11.3913H130.248Z" stroke="white" mask="url(#path-32-outside-3_225_200)"/>
<path d="M146.734 15.1293C146.734 13.3443 146.167 11.1603 143.248 11.1603C142.345 11.1603 141.211 11.4123 140.287 12.0213L140.602 12.7563C141.337 12.2313 142.261 12.0003 143.143 12.0003C145.537 11.9793 145.726 13.9743 145.726 14.9613V15.2343C141.61 15.1923 139.573 16.5993 139.573 18.9303C139.573 20.2743 140.497 21.7023 142.534 21.7023C144.151 21.7023 145.264 20.7993 145.768 20.0223H145.81L145.957 21.4713H146.881C146.755 20.6943 146.734 19.8753 146.734 19.0773V15.1293ZM145.726 18.2373C145.726 18.4053 145.705 18.6363 145.621 18.8463C145.285 19.8333 144.319 20.8623 142.639 20.8623C141.589 20.8623 140.623 20.2113 140.623 18.7623C140.623 16.3473 143.521 16.0113 145.726 16.0743V18.2373Z" stroke="white" mask="url(#path-32-outside-3_225_200)"/>
<path d="M70.4985 8.30824C70.4985 9.1919 69.7821 9.90824 68.8985 9.90824C68.0148 9.90824 67.2985 9.1919 67.2985 8.30824C67.2985 7.42459 68.0148 6.70824 68.8985 6.70824C69.7821 6.70824 70.4985 7.42459 70.4985 8.30824ZM68.4985 8.30824C68.4985 8.52916 68.6775 8.70824 68.8985 8.70824C69.1194 8.70824 69.2985 8.52916 69.2985 8.30824C69.2985 8.08733 69.1194 7.90824 68.8985 7.90824C68.6775 7.90824 68.4985 8.08733 68.4985 8.30824Z" fill="white"/>
<defs>
<linearGradient id="paint0_linear_225_200" x1="0" y1="25" x2="50" y2="25" gradientUnits="userSpaceOnUse">
<stop stop-color="#00C69F"/>
<stop offset="1" stop-color="#009CCA"/>
</linearGradient>
</defs>
</svg>
