<svg width="150" height="51" viewBox="0 0 150 51" fill="none" xmlns="http://www.w3.org/2000/svg">
<rect x="-7.62939e-06" y="0.690712" width="50" height="50" rx="5" fill="url(#paint0_linear_225_136)"/>
<path d="M36.8924 9.1457H40.0054L44.5791 14.0786V16.569" stroke="white" stroke-width="2"/>
<path d="M31.8663 36.627V41.6001" stroke="white" stroke-width="2"/>
<path d="M13.0124 32.626L15.4367 34.9357H19.0765" stroke="white" stroke-width="2"/>
<path d="M23.1776 34.9411H30.0154" stroke="white" stroke-width="2"/>
<path d="M12.1861 10.0659C12.1861 11.4466 11.0669 12.5659 9.68615 12.5659C8.30544 12.5659 7.18615 11.4466 7.18615 10.0659C7.18615 8.68515 8.30544 7.56586 9.68615 7.56586C11.0669 7.56586 12.1861 8.68515 12.1861 10.0659ZM9.18615 10.0659C9.18615 10.342 9.41001 10.5659 9.68615 10.5659C9.96229 10.5659 10.1861 10.342 10.1861 10.0659C10.1861 9.78972 9.96229 9.56586 9.68615 9.56586C9.41001 9.56586 9.18615 9.78972 9.18615 10.0659Z" fill="white"/>
<path d="M19.4568 8.03129C19.4568 9.412 18.3375 10.5313 16.9568 10.5313C15.5761 10.5313 14.4568 9.412 14.4568 8.03129C14.4568 6.65058 15.5761 5.53129 16.9568 5.53129C18.3375 5.53129 19.4568 6.65058 19.4568 8.03129ZM16.4568 8.03129C16.4568 8.30743 16.6807 8.53129 16.9568 8.53129C17.233 8.53129 17.4568 8.30743 17.4568 8.03129C17.4568 7.75515 17.233 7.53129 16.9568 7.53129C16.6807 7.53129 16.4568 7.75515 16.4568 8.03129Z" fill="white"/>
<path d="M27.5601 8.03129C27.5601 9.412 26.4408 10.5313 25.0601 10.5313C23.6793 10.5313 22.5601 9.412 22.5601 8.03129C22.5601 6.65058 23.6793 5.53129 25.0601 5.53129C26.4408 5.53129 27.5601 6.65058 27.5601 8.03129ZM24.5601 8.03129C24.5601 8.30743 24.7839 8.53129 25.0601 8.53129C25.3362 8.53129 25.5601 8.30743 25.5601 8.03129C25.5601 7.75515 25.3362 7.53129 25.0601 7.53129C24.7839 7.53129 24.5601 7.75515 24.5601 8.03129Z" fill="white"/>
<path d="M37.2478 9.22773C37.2478 10.6084 36.1285 11.7277 34.7478 11.7277C33.3671 11.7277 32.2478 10.6084 32.2478 9.22773C32.2478 7.84702 33.3671 6.72773 34.7478 6.72773C36.1285 6.72773 37.2478 7.84702 37.2478 9.22773ZM34.2478 9.22773C34.2478 9.50387 34.4717 9.72773 34.7478 9.72773C35.024 9.72773 35.2478 9.50387 35.2478 9.22773C35.2478 8.95159 35.024 8.72773 34.7478 8.72773C34.4717 8.72773 34.2478 8.95159 34.2478 9.22773Z" fill="white"/>
<path d="M47.1949 18.4746C47.1949 19.8553 46.0756 20.9746 44.6949 20.9746C43.3142 20.9746 42.1949 19.8553 42.1949 18.4746C42.1949 17.0939 43.3142 15.9746 44.6949 15.9746C46.0756 15.9746 47.1949 17.0939 47.1949 18.4746ZM44.1949 18.4746C44.1949 18.7507 44.4188 18.9746 44.6949 18.9746C44.9711 18.9746 45.1949 18.7507 45.1949 18.4746C45.1949 18.1984 44.9711 17.9746 44.6949 17.9746C44.4188 17.9746 44.1949 18.1984 44.1949 18.4746Z" fill="white"/>
<path d="M34.3609 43.3501C34.3609 44.7308 33.2416 45.8501 31.8609 45.8501C30.4802 45.8501 29.3609 44.7308 29.3609 43.3501C29.3609 41.9694 30.4802 40.8501 31.8609 40.8501C33.2416 40.8501 34.3609 41.9694 34.3609 43.3501ZM31.3609 43.3501C31.3609 43.6263 31.5848 43.8501 31.8609 43.8501C32.137 43.8501 32.3609 43.6263 32.3609 43.3501C32.3609 43.074 32.137 42.8501 31.8609 42.8501C31.5848 42.8501 31.3609 43.074 31.3609 43.3501Z" fill="white"/>
<path d="M34.3609 34.858C34.3609 36.2387 33.2416 37.358 31.8609 37.358C30.4802 37.358 29.3609 36.2387 29.3609 34.858C29.3609 33.4773 30.4802 32.358 31.8609 32.358C33.2416 32.358 34.3609 33.4773 34.3609 34.858ZM31.3609 34.858C31.3609 35.1342 31.5848 35.358 31.8609 35.358C32.137 35.358 32.3609 35.1342 32.3609 34.858C32.3609 34.5819 32.137 34.358 31.8609 34.358C31.5848 34.358 31.3609 34.5819 31.3609 34.858Z" fill="white"/>
<path d="M23.7854 34.858C23.7854 36.2387 22.6661 37.358 21.2854 37.358C19.9047 37.358 18.7854 36.2387 18.7854 34.858C18.7854 33.4773 19.9047 32.358 21.2854 32.358C22.6661 32.358 23.7854 33.4773 23.7854 34.858ZM20.7854 34.858C20.7854 35.1342 21.0093 35.358 21.2854 35.358C21.5615 35.358 21.7854 35.1342 21.7854 34.858C21.7854 34.5819 21.5615 34.358 21.2854 34.358C21.0093 34.358 20.7854 34.5819 20.7854 34.858Z" fill="white"/>
<path d="M13.8959 30.9843C13.8959 32.365 12.7766 33.4843 11.3959 33.4843C10.0152 33.4843 8.8959 32.365 8.8959 30.9843C8.8959 29.6036 10.0152 28.4843 11.3959 28.4843C12.7766 28.4843 13.8959 29.6036 13.8959 30.9843ZM10.8959 30.9843C10.8959 31.2604 11.1198 31.4843 11.3959 31.4843C11.672 31.4843 11.8959 31.2604 11.8959 30.9843C11.8959 30.7081 11.672 30.4843 11.3959 30.4843C11.1198 30.4843 10.8959 30.7081 10.8959 30.9843Z" fill="white"/>
<path d="M28.7854 28.5869C28.7854 29.9676 27.6661 31.0869 26.2854 31.0869C24.9047 31.0869 23.7854 29.9676 23.7854 28.5869C23.7854 27.2062 24.9047 26.0869 26.2854 26.0869C27.6661 26.0869 28.7854 27.2062 28.7854 28.5869ZM25.7854 28.5869C25.7854 28.863 26.0093 29.0869 26.2854 29.0869C26.5615 29.0869 26.7854 28.863 26.7854 28.5869C26.7854 28.3107 26.5615 28.0869 26.2854 28.0869C26.0093 28.0869 25.7854 28.3107 25.7854 28.5869Z" fill="white"/>
<path d="M14.8617 16.2357C14.8617 17.6164 13.7424 18.7357 12.3617 18.7357C10.9809 18.7357 9.86166 17.6164 9.86166 16.2357C9.86166 14.855 10.9809 13.7357 12.3617 13.7357C13.7424 13.7357 14.8617 14.855 14.8617 16.2357ZM11.8617 16.2357C11.8617 16.5118 12.0855 16.7357 12.3617 16.7357C12.6378 16.7357 12.8617 16.5118 12.8617 16.2357C12.8617 15.9596 12.6378 15.7357 12.3617 15.7357C12.0855 15.7357 11.8617 15.9596 11.8617 16.2357Z" fill="white"/>
<path d="M22.3301 23.8708C22.3301 25.2515 21.2108 26.3708 19.8301 26.3708C18.4494 26.3708 17.3301 25.2515 17.3301 23.8708C17.3301 22.4901 18.4494 21.3708 19.8301 21.3708C21.2108 21.3708 22.3301 22.4901 22.3301 23.8708ZM19.3301 23.8708C19.3301 24.147 19.554 24.3708 19.8301 24.3708C20.1063 24.3708 20.3301 24.147 20.3301 23.8708C20.3301 23.5947 20.1063 23.3708 19.8301 23.3708C19.554 23.3708 19.3301 23.5947 19.3301 23.8708Z" fill="white"/>
<path d="M28.7854 21.3708C28.7854 22.7515 27.6661 23.8708 26.2854 23.8708C24.9047 23.8708 23.7854 22.7515 23.7854 21.3708C23.7854 19.9901 24.9047 18.8708 26.2854 18.8708C27.6661 18.8708 28.7854 19.9901 28.7854 21.3708ZM25.7854 21.3708C25.7854 21.647 26.0093 21.8708 26.2854 21.8708C26.5615 21.8708 26.7854 21.647 26.7854 21.3708C26.7854 21.0947 26.5615 20.8708 26.2854 20.8708C26.0093 20.8708 25.7854 21.0947 25.7854 21.3708Z" fill="white"/>
<path d="M38.0601 25.0869C38.0601 26.4676 36.9408 27.5869 35.5601 27.5869C34.1793 27.5869 33.0601 26.4676 33.0601 25.0869C33.0601 23.7062 34.1793 22.5869 35.5601 22.5869C36.9408 22.5869 38.0601 23.7062 38.0601 25.0869ZM35.0601 25.0869C35.0601 25.363 35.2839 25.5869 35.5601 25.5869C35.8362 25.5869 36.0601 25.363 36.0601 25.0869C36.0601 24.8107 35.8362 24.5869 35.5601 24.5869C35.2839 24.5869 35.0601 24.8107 35.0601 25.0869Z" fill="white"/>
<path d="M41.844 41.844C41.844 43.2247 40.7247 44.344 39.344 44.344C37.9633 44.344 36.844 43.2247 36.844 41.844C36.844 40.4633 37.9633 39.344 39.344 39.344C40.7247 39.344 41.844 40.4633 41.844 41.844ZM38.844 41.844C38.844 42.1202 39.0678 42.344 39.344 42.344C39.6201 42.344 39.844 42.1202 39.844 41.844C39.844 41.5679 39.6201 41.344 39.344 41.344C39.0678 41.344 38.844 41.5679 38.844 41.844Z" fill="white"/>
<path d="M41.844 36.519C41.844 37.8997 40.7247 39.019 39.344 39.019C37.9633 39.019 36.844 37.8997 36.844 36.519C36.844 35.1383 37.9633 34.019 39.344 34.019C40.7247 34.019 41.844 35.1383 41.844 36.519ZM38.844 36.519C38.844 36.7952 39.0678 37.019 39.344 37.019C39.6201 37.019 39.844 36.7952 39.844 36.519C39.844 36.2429 39.6201 36.019 39.344 36.019C39.0678 36.019 38.844 36.2429 38.844 36.519Z" fill="white"/>
<path d="M47.1443 25.8846C47.1443 27.2653 46.0251 28.3846 44.6443 28.3846C43.2636 28.3846 42.1443 27.2653 42.1443 25.8846C42.1443 24.5039 43.2636 23.3846 44.6443 23.3846C46.0251 23.3846 47.1443 24.5039 47.1443 25.8846ZM44.1443 25.8846C44.1443 26.1608 44.3682 26.3846 44.6443 26.3846C44.9205 26.3846 45.1443 26.1608 45.1443 25.8846C45.1443 25.6085 44.9205 25.3846 44.6443 25.3846C44.3682 25.3846 44.1443 25.6085 44.1443 25.8846Z" fill="white"/>
<path d="M13.3592 17.3537L18.9043 22.8351" stroke="white" stroke-width="2"/>
<path d="M17.9773 9.08689L26.0601 17.4829V19.437" stroke="white" stroke-width="2"/>
<path d="M8.06005 11.5869L3.06005 16.5869V22.5869L5.06005 24.5869H12.0601L16.0601 28.5869H25.0601" stroke="white" stroke-width="2"/>
<path d="M26.3457 9.32987L33.06 15.9316V22.6668L34.0811 23.6337" stroke="white" stroke-width="2"/>
<path d="M39.3583 38.6265V39.6077M44.6061 28.0636V28.7071L39.453 33.8281L39.453 34.5559M46.8076 26.0199H50" stroke="white" stroke-width="2"/>
<mask id="path-28-outside-1_225_136" maskUnits="userSpaceOnUse" x="73.8676" y="28.3814" width="75" height="20" fill="black">
<rect fill="white" x="73.8676" y="28.3814" width="75" height="20"/>
<path d="M82.4276 38.6614L84.1276 43.3814H85.1076L80.2676 29.9014H79.3476L74.4676 43.3814H75.4476L77.1076 38.6614H82.4276ZM77.4076 37.8614L79.0476 33.3214C79.3476 32.4614 79.5676 31.7614 79.7476 30.9814H79.8076C79.9876 31.7414 80.1676 32.4214 80.5076 33.3614L82.1476 37.8614H77.4076ZM93.2115 42.2014C92.6915 42.4414 91.9515 42.7614 90.8115 42.7614C88.5915 42.7614 87.0115 41.1214 87.0115 38.6014C87.0115 36.3614 88.3315 34.3814 90.9115 34.3814C91.9715 34.3814 92.7115 34.6814 93.1715 34.9414L93.5115 34.1614C93.1515 33.9014 92.1715 33.5614 90.9915 33.5614C88.1315 33.5614 86.0515 35.6414 86.0515 38.6814C86.0515 41.5614 87.8915 43.5814 90.6515 43.5814C92.0515 43.5814 93.0515 43.1614 93.4715 42.9614L93.2115 42.2014ZM101.617 37.3414C101.617 35.6414 101.077 33.5614 98.2973 33.5614C97.4373 33.5614 96.3573 33.8014 95.4773 34.3814L95.7773 35.0814C96.4773 34.5814 97.3573 34.3614 98.1973 34.3614C100.477 34.3414 100.657 36.2414 100.657 37.1814V37.4414C96.7373 37.4014 94.7973 38.7414 94.7973 40.9614C94.7973 42.2414 95.6773 43.6014 97.6173 43.6014C99.1573 43.6014 100.217 42.7414 100.697 42.0014H100.737L100.877 43.3814H101.757C101.637 42.6414 101.617 41.8614 101.617 41.1014V37.3414ZM100.657 40.3014C100.657 40.4614 100.637 40.6814 100.557 40.8814C100.237 41.8214 99.3173 42.8014 97.7173 42.8014C96.7173 42.8014 95.7973 42.1814 95.7973 40.8014C95.7973 38.5014 98.5573 38.1814 100.657 38.2414V40.3014ZM111.279 29.1814V35.2614H111.239C110.819 34.4214 109.759 33.5614 108.099 33.5614C105.739 33.5614 103.759 35.5614 103.779 38.7614C103.779 41.6214 105.539 43.6014 107.919 43.6014C109.699 43.6014 110.839 42.6214 111.339 41.5614H111.379L111.459 43.3814H112.319C112.259 42.7014 112.239 41.8614 112.239 41.1414V29.1814H111.279ZM111.279 39.5014C111.279 39.8014 111.259 40.0414 111.179 40.3014C110.779 41.8814 109.479 42.8014 108.099 42.8014C105.819 42.8014 104.739 40.8214 104.739 38.6614C104.739 36.1814 106.059 34.3614 108.159 34.3614C109.719 34.3614 110.859 35.4214 111.179 36.7014C111.259 36.9614 111.279 37.3214 111.279 37.5814V39.5014ZM122.538 38.4814C122.578 38.3014 122.578 38.1614 122.578 37.9014C122.578 36.5214 121.978 33.5614 118.838 33.5614C116.358 33.5614 114.518 35.5614 114.518 38.7614C114.518 41.5814 116.238 43.5814 118.998 43.5814C120.678 43.5814 121.658 43.1614 122.018 42.9614L121.778 42.2214C121.238 42.4814 120.518 42.7614 119.118 42.7614C117.118 42.7614 115.458 41.5414 115.458 38.4814H122.538ZM115.498 37.7214C115.678 36.2414 116.598 34.3614 118.718 34.3614C121.038 34.3614 121.598 36.3814 121.578 37.7214H115.498ZM124.885 43.3814H125.845V37.4614C125.845 37.1414 125.905 36.8014 125.985 36.5414C126.345 35.4214 127.365 34.3814 128.645 34.3814C130.205 34.3814 131.025 35.6414 131.025 37.3814V43.3814H131.985V37.2214C131.985 36.8814 132.065 36.5614 132.145 36.2814C132.525 35.2614 133.465 34.3814 134.665 34.3814C136.325 34.3814 137.165 35.6614 137.165 37.8214V43.3814H138.125V37.7214C138.125 34.0814 135.925 33.5614 134.985 33.5614C133.965 33.5614 133.325 33.8414 132.705 34.3614C132.345 34.6614 131.985 35.0814 131.725 35.6614H131.685C131.265 34.4414 130.245 33.5614 128.925 33.5614C127.345 33.5614 126.425 34.3814 125.805 35.4814H125.765L125.705 33.7814H124.805C124.865 34.5414 124.885 35.2014 124.885 36.0814V43.3814ZM139.537 33.7814L143.097 42.6814C143.177 42.8814 143.217 43.0214 143.217 43.1014C143.217 43.2014 143.177 43.3214 143.097 43.5214C142.617 44.6614 141.977 45.4614 141.497 45.9414C140.937 46.4814 140.297 46.8214 139.817 47.0014L140.117 47.8014C140.357 47.7214 141.037 47.4414 141.797 46.8014C143.057 45.7014 143.877 43.9214 145.037 40.9414L147.917 33.7814H146.897L144.557 40.0014C144.257 40.7814 144.017 41.5414 143.817 42.1214H143.777C143.597 41.5214 143.337 40.7414 143.077 40.0614L140.557 33.7814H139.537Z"/>
</mask>
<path d="M82.4276 38.6614L84.1276 43.3814H85.1076L80.2676 29.9014H79.3476L74.4676 43.3814H75.4476L77.1076 38.6614H82.4276ZM77.4076 37.8614L79.0476 33.3214C79.3476 32.4614 79.5676 31.7614 79.7476 30.9814H79.8076C79.9876 31.7414 80.1676 32.4214 80.5076 33.3614L82.1476 37.8614H77.4076ZM93.2115 42.2014C92.6915 42.4414 91.9515 42.7614 90.8115 42.7614C88.5915 42.7614 87.0115 41.1214 87.0115 38.6014C87.0115 36.3614 88.3315 34.3814 90.9115 34.3814C91.9715 34.3814 92.7115 34.6814 93.1715 34.9414L93.5115 34.1614C93.1515 33.9014 92.1715 33.5614 90.9915 33.5614C88.1315 33.5614 86.0515 35.6414 86.0515 38.6814C86.0515 41.5614 87.8915 43.5814 90.6515 43.5814C92.0515 43.5814 93.0515 43.1614 93.4715 42.9614L93.2115 42.2014ZM101.617 37.3414C101.617 35.6414 101.077 33.5614 98.2973 33.5614C97.4373 33.5614 96.3573 33.8014 95.4773 34.3814L95.7773 35.0814C96.4773 34.5814 97.3573 34.3614 98.1973 34.3614C100.477 34.3414 100.657 36.2414 100.657 37.1814V37.4414C96.7373 37.4014 94.7973 38.7414 94.7973 40.9614C94.7973 42.2414 95.6773 43.6014 97.6173 43.6014C99.1573 43.6014 100.217 42.7414 100.697 42.0014H100.737L100.877 43.3814H101.757C101.637 42.6414 101.617 41.8614 101.617 41.1014V37.3414ZM100.657 40.3014C100.657 40.4614 100.637 40.6814 100.557 40.8814C100.237 41.8214 99.3173 42.8014 97.7173 42.8014C96.7173 42.8014 95.7973 42.1814 95.7973 40.8014C95.7973 38.5014 98.5573 38.1814 100.657 38.2414V40.3014ZM111.279 29.1814V35.2614H111.239C110.819 34.4214 109.759 33.5614 108.099 33.5614C105.739 33.5614 103.759 35.5614 103.779 38.7614C103.779 41.6214 105.539 43.6014 107.919 43.6014C109.699 43.6014 110.839 42.6214 111.339 41.5614H111.379L111.459 43.3814H112.319C112.259 42.7014 112.239 41.8614 112.239 41.1414V29.1814H111.279ZM111.279 39.5014C111.279 39.8014 111.259 40.0414 111.179 40.3014C110.779 41.8814 109.479 42.8014 108.099 42.8014C105.819 42.8014 104.739 40.8214 104.739 38.6614C104.739 36.1814 106.059 34.3614 108.159 34.3614C109.719 34.3614 110.859 35.4214 111.179 36.7014C111.259 36.9614 111.279 37.3214 111.279 37.5814V39.5014ZM122.538 38.4814C122.578 38.3014 122.578 38.1614 122.578 37.9014C122.578 36.5214 121.978 33.5614 118.838 33.5614C116.358 33.5614 114.518 35.5614 114.518 38.7614C114.518 41.5814 116.238 43.5814 118.998 43.5814C120.678 43.5814 121.658 43.1614 122.018 42.9614L121.778 42.2214C121.238 42.4814 120.518 42.7614 119.118 42.7614C117.118 42.7614 115.458 41.5414 115.458 38.4814H122.538ZM115.498 37.7214C115.678 36.2414 116.598 34.3614 118.718 34.3614C121.038 34.3614 121.598 36.3814 121.578 37.7214H115.498ZM124.885 43.3814H125.845V37.4614C125.845 37.1414 125.905 36.8014 125.985 36.5414C126.345 35.4214 127.365 34.3814 128.645 34.3814C130.205 34.3814 131.025 35.6414 131.025 37.3814V43.3814H131.985V37.2214C131.985 36.8814 132.065 36.5614 132.145 36.2814C132.525 35.2614 133.465 34.3814 134.665 34.3814C136.325 34.3814 137.165 35.6614 137.165 37.8214V43.3814H138.125V37.7214C138.125 34.0814 135.925 33.5614 134.985 33.5614C133.965 33.5614 133.325 33.8414 132.705 34.3614C132.345 34.6614 131.985 35.0814 131.725 35.6614H131.685C131.265 34.4414 130.245 33.5614 128.925 33.5614C127.345 33.5614 126.425 34.3814 125.805 35.4814H125.765L125.705 33.7814H124.805C124.865 34.5414 124.885 35.2014 124.885 36.0814V43.3814ZM139.537 33.7814L143.097 42.6814C143.177 42.8814 143.217 43.0214 143.217 43.1014C143.217 43.2014 143.177 43.3214 143.097 43.5214C142.617 44.6614 141.977 45.4614 141.497 45.9414C140.937 46.4814 140.297 46.8214 139.817 47.0014L140.117 47.8014C140.357 47.7214 141.037 47.4414 141.797 46.8014C143.057 45.7014 143.877 43.9214 145.037 40.9414L147.917 33.7814H146.897L144.557 40.0014C144.257 40.7814 144.017 41.5414 143.817 42.1214H143.777C143.597 41.5214 143.337 40.7414 143.077 40.0614L140.557 33.7814H139.537Z" fill="white"/>
<path d="M82.4276 38.6614L82.6158 38.5937L82.5682 38.4614H82.4276V38.6614ZM84.1276 43.3814L83.9394 43.4492L83.9871 43.5814H84.1276V43.3814ZM85.1076 43.3814V43.5814H85.3919L85.2958 43.3138L85.1076 43.3814ZM80.2676 29.9014L80.4558 29.8338L80.4083 29.7014H80.2676V29.9014ZM79.3476 29.9014V29.7014H79.2073L79.1596 29.8333L79.3476 29.9014ZM74.4676 43.3814L74.2796 43.3133L74.1825 43.5814H74.4676V43.3814ZM75.4476 43.3814V43.5814H75.5893L75.6363 43.4478L75.4476 43.3814ZM77.1076 38.6614V38.4614H76.9659L76.9189 38.5951L77.1076 38.6614ZM77.4076 37.8614L77.2195 37.7935L77.1227 38.0614H77.4076V37.8614ZM79.0476 33.3214L79.2357 33.3894L79.2365 33.3873L79.0476 33.3214ZM79.7476 30.9814V30.7814H79.5885L79.5527 30.9365L79.7476 30.9814ZM79.8076 30.9814L80.0022 30.9353L79.9658 30.7814H79.8076V30.9814ZM80.5076 33.3614L80.3195 33.4295L80.3197 33.4299L80.5076 33.3614ZM82.1476 37.8614V38.0614H82.4334L82.3355 37.7929L82.1476 37.8614ZM82.2394 38.7292L83.9394 43.4492L84.3158 43.3137L82.6158 38.5937L82.2394 38.7292ZM84.1276 43.5814H85.1076V43.1814H84.1276V43.5814ZM85.2958 43.3138L80.4558 29.8338L80.0794 29.969L84.9194 43.449L85.2958 43.3138ZM80.2676 29.7014H79.3476V30.1014H80.2676V29.7014ZM79.1596 29.8333L74.2796 43.3133L74.6557 43.4495L79.5357 29.9695L79.1596 29.8333ZM74.4676 43.5814H75.4476V43.1814H74.4676V43.5814ZM75.6363 43.4478L77.2963 38.7278L76.9189 38.5951L75.2589 43.3151L75.6363 43.4478ZM77.1076 38.8614H82.4276V38.4614H77.1076V38.8614ZM77.5957 37.9294L79.2357 33.3894L78.8595 33.2535L77.2195 37.7935L77.5957 37.9294ZM79.2365 33.3873C79.5376 32.524 79.7602 31.8164 79.9425 31.0264L79.5527 30.9365C79.375 31.7065 79.1576 32.3988 78.8588 33.2555L79.2365 33.3873ZM79.7476 31.1814H79.8076V30.7814H79.7476V31.1814ZM79.613 31.0275C79.7941 31.7922 79.9761 32.48 80.3195 33.4295L80.6957 33.2934C80.3591 32.3628 80.1811 31.6907 80.0022 30.9353L79.613 31.0275ZM80.3197 33.4299L81.9597 37.9299L82.3355 37.7929L80.6955 33.2929L80.3197 33.4299ZM82.1476 37.6614H77.4076V38.0614H82.1476V37.6614ZM93.2115 42.2014L93.4008 42.1367L93.329 41.9269L93.1277 42.0198L93.2115 42.2014ZM93.1715 34.9414L93.0731 35.1155L93.2662 35.2247L93.3549 35.0213L93.1715 34.9414ZM93.5115 34.1614L93.6949 34.2413L93.7592 34.0936L93.6286 33.9993L93.5115 34.1614ZM93.4715 42.9614L93.5575 43.142L93.7185 43.0654L93.6608 42.8967L93.4715 42.9614ZM93.1277 42.0198C92.618 42.2551 91.909 42.5614 90.8115 42.5614V42.9614C91.994 42.9614 92.765 42.6278 93.2953 42.383L93.1277 42.0198ZM90.8115 42.5614C89.753 42.5614 88.8575 42.1716 88.2257 41.4904C87.5928 40.8082 87.2115 39.8195 87.2115 38.6014H86.8115C86.8115 39.9034 87.2202 40.9947 87.9324 41.7624C88.6455 42.5312 89.6501 42.9614 90.8115 42.9614V42.5614ZM87.2115 38.6014C87.2115 37.5187 87.5307 36.5123 88.147 35.7802C88.7597 35.0526 89.6776 34.5814 90.9115 34.5814V34.1814C89.5654 34.1814 88.5334 34.7003 87.841 35.5226C87.1524 36.3406 86.8115 37.4441 86.8115 38.6014H87.2115ZM90.9115 34.5814C91.9312 34.5814 92.6376 34.8694 93.0731 35.1155L93.2699 34.7673C92.7854 34.4934 92.0118 34.1814 90.9115 34.1814V34.5814ZM93.3549 35.0213L93.6949 34.2413L93.3282 34.0815L92.9882 34.8615L93.3549 35.0213ZM93.6286 33.9993C93.4208 33.8492 93.0596 33.6913 92.6109 33.5708C92.1576 33.449 91.6002 33.3614 90.9915 33.3614V33.7614C91.5628 33.7614 92.0854 33.8438 92.5071 33.9571C92.9334 34.0716 93.2423 34.2137 93.3944 34.3236L93.6286 33.9993ZM90.9915 33.3614C89.5115 33.3614 88.2236 33.9005 87.3058 34.8418C86.3882 35.7829 85.8515 37.1148 85.8515 38.6814H86.2515C86.2515 37.208 86.7548 35.9799 87.5922 35.121C88.4294 34.2624 89.6115 33.7614 90.9915 33.7614V33.3614ZM85.8515 38.6814C85.8515 40.1641 86.3256 41.4402 87.1701 42.3477C88.0158 43.2564 89.2203 43.7814 90.6515 43.7814V43.3814C89.3227 43.3814 88.2272 42.8964 87.4629 42.0752C86.6974 41.2526 86.2515 40.0788 86.2515 38.6814H85.8515ZM90.6515 43.7814C92.092 43.7814 93.1224 43.3492 93.5575 43.142L93.3855 42.7809C92.9806 42.9737 92.011 43.3814 90.6515 43.3814V43.7814ZM93.6608 42.8967L93.4008 42.1367L93.0223 42.2662L93.2823 43.0262L93.6608 42.8967ZM95.4773 34.3814L95.3672 34.2144L95.2276 34.3065L95.2935 34.4602L95.4773 34.3814ZM95.7773 35.0814L95.5935 35.1602L95.6914 35.3886L95.8935 35.2442L95.7773 35.0814ZM98.1973 34.3614V34.5614L98.1991 34.5614L98.1973 34.3614ZM100.657 37.4414L100.655 37.6414L100.857 37.6435V37.4414H100.657ZM100.697 42.0014V41.8014H100.589L100.53 41.8926L100.697 42.0014ZM100.737 42.0014L100.936 41.9812L100.918 41.8014H100.737V42.0014ZM100.877 43.3814L100.678 43.4016L100.697 43.5814H100.877V43.3814ZM101.757 43.3814V43.5814H101.992L101.955 43.3494L101.757 43.3814ZM100.557 40.8814L100.371 40.807L100.368 40.817L100.557 40.8814ZM100.657 38.2414H100.857V38.0471L100.663 38.0415L100.657 38.2414ZM101.817 37.3414C101.817 36.4768 101.681 35.4848 101.167 34.7039C100.643 33.9081 99.7455 33.3614 98.2973 33.3614V33.7614C99.6291 33.7614 100.392 34.2548 100.833 34.9239C101.283 35.6081 101.417 36.5061 101.417 37.3414H101.817ZM98.2973 33.3614C97.4057 33.3614 96.2857 33.6091 95.3672 34.2144L95.5874 34.5484C96.4289 33.9938 97.4689 33.7614 98.2973 33.7614V33.3614ZM95.2935 34.4602L95.5935 35.1602L95.9611 35.0026L95.6611 34.3026L95.2935 34.4602ZM95.8935 35.2442C96.5526 34.7734 97.3894 34.5614 98.1973 34.5614V34.1614C97.3252 34.1614 96.402 34.3894 95.6611 34.9187L95.8935 35.2442ZM98.1991 34.5614C98.7409 34.5567 99.1438 34.6659 99.4454 34.8357C99.7465 35.0052 99.9581 35.2415 100.108 35.5091C100.411 36.0518 100.457 36.7176 100.457 37.1814H100.857C100.857 36.7053 100.813 35.9511 100.457 35.3138C100.277 34.9914 100.016 34.6976 99.6417 34.4871C99.2683 34.2769 98.7937 34.1562 98.1955 34.1614L98.1991 34.5614ZM100.457 37.1814V37.4414H100.857V37.1814H100.457ZM100.659 37.2414C98.6815 37.2213 97.1726 37.548 96.1515 38.1842C95.1181 38.8281 94.5973 39.7821 94.5973 40.9614H94.9973C94.9973 39.9207 95.4465 39.0948 96.3631 38.5237C97.292 37.9448 98.7131 37.6216 100.655 37.6414L100.659 37.2414ZM94.5973 40.9614C94.5973 41.6454 94.8322 42.3559 95.333 42.8972C95.837 43.4421 96.5971 43.8014 97.6173 43.8014V43.4014C96.6975 43.4014 96.0477 43.0808 95.6266 42.6256C95.2024 42.167 94.9973 41.5574 94.9973 40.9614H94.5973ZM97.6173 43.8014C99.2363 43.8014 100.355 42.897 100.865 42.1103L100.53 41.8926C100.08 42.5859 99.0783 43.4014 97.6173 43.4014V43.8014ZM100.697 42.2014H100.737V41.8014H100.697V42.2014ZM100.538 42.0216L100.678 43.4016L101.076 43.3612L100.936 41.9812L100.538 42.0216ZM100.877 43.5814H101.757V43.1814H100.877V43.5814ZM101.955 43.3494C101.837 42.6261 101.817 41.8595 101.817 41.1014H101.417C101.417 41.8633 101.437 42.6567 101.56 43.4134L101.955 43.3494ZM101.817 41.1014V37.3414H101.417V41.1014H101.817ZM100.457 40.3014C100.457 40.4484 100.438 40.6401 100.372 40.8071L100.743 40.9557C100.836 40.7228 100.857 40.4744 100.857 40.3014H100.457ZM100.368 40.817C100.072 41.6873 99.2203 42.6014 97.7173 42.6014V43.0014C99.4143 43.0014 100.403 41.9556 100.747 40.9459L100.368 40.817ZM97.7173 42.6014C97.2572 42.6014 96.829 42.4589 96.5179 42.1719C96.2099 41.8878 95.9973 41.4443 95.9973 40.8014H95.5973C95.5973 41.5386 95.8447 42.095 96.2467 42.4659C96.6456 42.834 97.1774 43.0014 97.7173 43.0014V42.6014ZM95.9973 40.8014C95.9973 40.2699 96.1555 39.8645 96.4155 39.5501C96.6782 39.2325 97.0554 38.9955 97.5105 38.8235C98.4252 38.4778 99.6078 38.4115 100.652 38.4413L100.663 38.0415C99.6068 38.0113 98.3594 38.075 97.3691 38.4493C96.8717 38.6373 96.4276 38.9079 96.1073 39.2952C95.7841 39.6859 95.5973 40.183 95.5973 40.8014H95.9973ZM100.457 38.2414V40.3014H100.857V38.2414H100.457ZM111.279 29.1814V28.9814H111.079V29.1814H111.279ZM111.279 35.2614V35.4614H111.479V35.2614H111.279ZM111.239 35.2614L111.06 35.3509L111.116 35.4614H111.239V35.2614ZM103.779 38.7614H103.979L103.979 38.7602L103.779 38.7614ZM111.339 41.5614V41.3614H111.213L111.158 41.4761L111.339 41.5614ZM111.379 41.5614L111.579 41.5526L111.571 41.3614H111.379V41.5614ZM111.459 43.3814L111.26 43.3902L111.268 43.5814H111.459V43.3814ZM112.319 43.3814V43.5814H112.538L112.519 43.3638L112.319 43.3814ZM112.239 29.1814H112.439V28.9814H112.239V29.1814ZM111.179 40.3014L110.988 40.2425L110.985 40.2523L111.179 40.3014ZM111.179 36.7014L110.985 36.75L110.988 36.7602L111.179 36.7014ZM111.079 29.1814V35.2614H111.479V29.1814H111.079ZM111.279 35.0614H111.239V35.4614H111.279V35.0614ZM111.418 35.172C110.963 34.2625 109.833 33.3614 108.099 33.3614V33.7614C109.686 33.7614 110.675 34.5803 111.06 35.3509L111.418 35.172ZM108.099 33.3614C105.605 33.3614 103.559 35.4765 103.579 38.7627L103.979 38.7602C103.96 35.6464 105.874 33.7614 108.099 33.7614V33.3614ZM103.579 38.7614C103.579 41.7037 105.403 43.8014 107.919 43.8014V43.4014C105.676 43.4014 103.979 41.5392 103.979 38.7614H103.579ZM107.919 43.8014C109.783 43.8014 110.99 42.771 111.52 41.6467L111.158 41.4761C110.689 42.4719 109.616 43.4014 107.919 43.4014V43.8014ZM111.339 41.7614H111.379V41.3614H111.339V41.7614ZM111.18 41.5702L111.26 43.3902L111.659 43.3726L111.579 41.5526L111.18 41.5702ZM111.459 43.5814H112.319V43.1814H111.459V43.5814ZM112.519 43.3638C112.459 42.6924 112.439 41.859 112.439 41.1414H112.039C112.039 41.8638 112.059 42.7105 112.12 43.399L112.519 43.3638ZM112.439 41.1414V29.1814H112.039V41.1414H112.439ZM112.239 28.9814H111.279V29.3814H112.239V28.9814ZM111.079 39.5014C111.079 39.7918 111.06 40.0095 110.988 40.2426L111.37 40.3602C111.459 40.0733 111.479 39.811 111.479 39.5014H111.079ZM110.985 40.2523C110.608 41.7441 109.387 42.6014 108.099 42.6014V43.0014C109.571 43.0014 110.951 42.0188 111.373 40.3505L110.985 40.2523ZM108.099 42.6014C107.026 42.6014 106.245 42.1391 105.726 41.424C105.202 40.7019 104.939 39.7115 104.939 38.6614H104.539C104.539 39.7714 104.816 40.851 105.402 41.6589C105.994 42.4738 106.893 43.0014 108.099 43.0014V42.6014ZM104.939 38.6614C104.939 37.4549 105.261 36.4261 105.82 35.7039C106.376 34.986 107.173 34.5614 108.159 34.5614V34.1614C107.045 34.1614 106.133 34.6468 105.504 35.459C104.878 36.2668 104.539 37.388 104.539 38.6614H104.939ZM108.159 34.5614C109.62 34.5614 110.686 35.5515 110.985 36.7499L111.373 36.6529C111.033 35.2913 109.819 34.1614 108.159 34.1614V34.5614ZM110.988 36.7602C111.059 36.99 111.079 37.3246 111.079 37.5814H111.479C111.479 37.3182 111.46 36.9329 111.37 36.6426L110.988 36.7602ZM111.079 37.5814V39.5014H111.479V37.5814H111.079ZM122.538 38.4814V38.6814H122.699L122.733 38.5248L122.538 38.4814ZM122.018 42.9614L122.115 43.1363L122.259 43.0563L122.208 42.8997L122.018 42.9614ZM121.778 42.2214L121.968 42.1597L121.898 41.9419L121.691 42.0412L121.778 42.2214ZM115.458 38.4814V38.2814H115.258V38.4814H115.458ZM115.498 37.7214L115.3 37.6973L115.272 37.9214H115.498V37.7214ZM121.578 37.7214V37.9214H121.775L121.778 37.7244L121.578 37.7214ZM122.733 38.5248C122.779 38.3199 122.778 38.158 122.778 37.9014H122.378C122.378 38.1648 122.377 38.2829 122.343 38.438L122.733 38.5248ZM122.778 37.9014C122.778 37.19 122.625 36.0656 122.058 35.1117C121.483 34.145 120.486 33.3614 118.838 33.3614V33.7614C120.331 33.7614 121.204 34.4579 121.714 35.3161C122.232 36.1872 122.378 37.2328 122.378 37.9014H122.778ZM118.838 33.3614C117.541 33.3614 116.405 33.8861 115.596 34.8314C114.789 35.7746 114.318 37.1238 114.318 38.7614H114.718C114.718 37.199 115.167 35.9482 115.9 35.0914C116.631 34.2367 117.656 33.7614 118.838 33.7614V33.3614ZM114.318 38.7614C114.318 40.2116 114.761 41.4676 115.575 42.3635C116.392 43.2614 117.567 43.7814 118.998 43.7814V43.3814C117.669 43.3814 116.605 42.9015 115.871 42.0944C115.136 41.2853 114.718 40.1313 114.718 38.7614H114.318ZM118.998 43.7814C120.712 43.7814 121.726 43.3527 122.115 43.1363L121.921 42.7866C121.591 42.9702 120.644 43.3814 118.998 43.3814V43.7814ZM122.208 42.8997L121.968 42.1597L121.588 42.2831L121.828 43.0231L122.208 42.8997ZM121.691 42.0412C121.175 42.2899 120.485 42.5614 119.118 42.5614V42.9614C120.552 42.9614 121.301 42.673 121.865 42.4016L121.691 42.0412ZM119.118 42.5614C118.159 42.5614 117.301 42.2695 116.682 41.6299C116.063 40.9901 115.658 39.9761 115.658 38.4814H115.258C115.258 40.0468 115.683 41.1728 116.394 41.908C117.106 42.6434 118.078 42.9614 119.118 42.9614V42.5614ZM115.458 38.6814H122.538V38.2814H115.458V38.6814ZM115.697 37.7456C115.784 37.0319 116.049 36.2295 116.538 35.6104C117.022 34.9976 117.726 34.5614 118.718 34.5614V34.1614C117.59 34.1614 116.775 34.6653 116.224 35.3624C115.678 36.0534 115.393 36.931 115.3 37.6973L115.697 37.7456ZM118.718 34.5614C119.808 34.5614 120.465 35.0302 120.857 35.6462C121.256 36.2746 121.388 37.0717 121.378 37.7184L121.778 37.7244C121.789 37.0311 121.65 36.1482 121.195 35.4316C120.731 34.7027 119.948 34.1614 118.718 34.1614V34.5614ZM121.578 37.5214H115.498V37.9214H121.578V37.5214ZM124.885 43.3814H124.685V43.5814H124.885V43.3814ZM125.845 43.3814V43.5814H126.045V43.3814H125.845ZM125.985 36.5414L125.795 36.4802L125.794 36.4826L125.985 36.5414ZM131.025 43.3814H130.825V43.5814H131.025V43.3814ZM131.985 43.3814V43.5814H132.185V43.3814H131.985ZM132.145 36.2814L131.958 36.2116L131.955 36.2189L131.953 36.2265L132.145 36.2814ZM137.165 43.3814H136.965V43.5814H137.165V43.3814ZM138.125 43.3814V43.5814H138.325V43.3814H138.125ZM132.705 34.3614L132.833 34.5151L132.834 34.5147L132.705 34.3614ZM131.725 35.6614V35.8614H131.855L131.908 35.7432L131.725 35.6614ZM131.685 35.6614L131.496 35.7265L131.543 35.8614H131.685V35.6614ZM125.805 35.4814V35.6814H125.922L125.979 35.5796L125.805 35.4814ZM125.765 35.4814L125.565 35.4885L125.572 35.6814H125.765V35.4814ZM125.705 33.7814L125.905 33.7744L125.898 33.5814H125.705V33.7814ZM124.805 33.7814V33.5814H124.589L124.606 33.7972L124.805 33.7814ZM124.885 43.5814H125.845V43.1814H124.885V43.5814ZM126.045 43.3814V37.4614H125.645V43.3814H126.045ZM126.045 37.4614C126.045 37.1635 126.102 36.8433 126.176 36.6002L125.794 36.4826C125.709 36.7595 125.645 37.1193 125.645 37.4614H126.045ZM126.176 36.6026C126.518 35.5368 127.479 34.5814 128.645 34.5814V34.1814C127.252 34.1814 126.172 35.306 125.795 36.4802L126.176 36.6026ZM128.645 34.5814C129.365 34.5814 129.899 34.8685 130.26 35.349C130.627 35.8365 130.825 36.5397 130.825 37.3814H131.225C131.225 36.4832 131.014 35.6863 130.58 35.1088C130.141 34.5243 129.486 34.1814 128.645 34.1814V34.5814ZM130.825 37.3814V43.3814H131.225V37.3814H130.825ZM131.025 43.5814H131.985V43.1814H131.025V43.5814ZM132.185 43.3814V37.2214H131.785V43.3814H132.185ZM132.185 37.2214C132.185 36.9109 132.258 36.6134 132.338 36.3364L131.953 36.2265C131.872 36.5094 131.785 36.8519 131.785 37.2214H132.185ZM132.333 36.3512C132.692 35.3872 133.57 34.5814 134.665 34.5814V34.1814C133.36 34.1814 132.359 35.1356 131.958 36.2116L132.333 36.3512ZM134.665 34.5814C135.436 34.5814 135.998 34.8747 136.375 35.4069C136.759 35.9497 136.965 36.7625 136.965 37.8214H137.365C137.365 36.7203 137.152 35.8131 136.701 35.1759C136.243 34.5281 135.554 34.1814 134.665 34.1814V34.5814ZM136.965 37.8214V43.3814H137.365V37.8214H136.965ZM137.165 43.5814H138.125V43.1814H137.165V43.5814ZM138.325 43.3814V37.7214H137.925V43.3814H138.325ZM138.325 37.7214C138.325 35.8593 137.761 34.7581 137.04 34.126C136.324 33.4991 135.486 33.3614 134.985 33.3614V33.7614C135.424 33.7614 136.156 33.8837 136.776 34.4268C137.39 34.9647 137.925 35.9435 137.925 37.7214H138.325ZM134.985 33.3614C133.917 33.3614 133.232 33.659 132.577 34.2082L132.834 34.5147C133.419 34.0239 134.014 33.7614 134.985 33.7614V33.3614ZM132.577 34.2078C132.197 34.5249 131.817 34.9687 131.543 35.5796L131.908 35.7432C132.154 35.1942 132.494 34.7979 132.833 34.5151L132.577 34.2078ZM131.725 35.4614H131.685V35.8614H131.725V35.4614ZM131.874 35.5963C131.432 34.311 130.346 33.3614 128.925 33.3614V33.7614C130.145 33.7614 131.099 34.5719 131.496 35.7265L131.874 35.5963ZM128.925 33.3614C128.098 33.3614 127.434 33.5768 126.893 33.9434C126.355 34.3084 125.951 34.8156 125.631 35.3832L125.979 35.5796C126.28 35.0472 126.646 34.5944 127.118 34.2744C127.587 33.956 128.172 33.7614 128.925 33.7614V33.3614ZM125.805 35.2814H125.765V35.6814H125.805V35.2814ZM125.965 35.4744L125.905 33.7744L125.505 33.7885L125.565 35.4885L125.965 35.4744ZM125.705 33.5814H124.805V33.9814H125.705V33.5814ZM124.606 33.7972C124.665 34.5505 124.685 35.2051 124.685 36.0814H125.085C125.085 35.1978 125.065 34.5323 125.005 33.7657L124.606 33.7972ZM124.685 36.0814V43.3814H125.085V36.0814H124.685ZM139.537 33.7814V33.5814H139.241L139.351 33.8557L139.537 33.7814ZM143.097 42.6814L143.282 42.6071L143.097 42.6814ZM143.097 43.5214L143.281 43.599L143.282 43.5957L143.097 43.5214ZM141.497 45.9414L141.636 46.0854L141.638 46.0828L141.497 45.9414ZM139.817 47.0014L139.746 46.8142L139.559 46.8844L139.629 47.0716L139.817 47.0014ZM140.117 47.8014L139.929 47.8716L139.997 48.0521L140.18 47.9912L140.117 47.8014ZM141.797 46.8014L141.926 46.9544L141.928 46.9521L141.797 46.8014ZM145.037 40.9414L144.851 40.8668L144.85 40.8689L145.037 40.9414ZM147.917 33.7814L148.102 33.8561L148.213 33.5814H147.917V33.7814ZM146.897 33.7814V33.5814H146.758L146.709 33.711L146.897 33.7814ZM144.557 40.0014L144.743 40.0732L144.744 40.0718L144.557 40.0014ZM143.817 42.1214V42.3214H143.959L144.006 42.1866L143.817 42.1214ZM143.777 42.1214L143.585 42.1789L143.628 42.3214H143.777V42.1214ZM143.077 40.0614L143.264 39.99L143.262 39.9869L143.077 40.0614ZM140.557 33.7814L140.742 33.7069L140.692 33.5814H140.557V33.7814ZM139.351 33.8557L142.911 42.7557L143.282 42.6071L139.722 33.7071L139.351 33.8557ZM142.911 42.7557C142.95 42.8521 142.977 42.9302 142.994 42.9914C143.013 43.0556 143.017 43.0894 143.017 43.1014H143.417C143.417 43.0335 143.401 42.9573 143.379 42.8815C143.356 42.8026 143.324 42.7108 143.282 42.6071L142.911 42.7557ZM143.017 43.1014C143.017 43.1562 142.994 43.2399 142.911 43.4471L143.282 43.5957C143.359 43.403 143.417 43.2466 143.417 43.1014H143.017ZM142.912 43.4438C142.444 44.5562 141.82 45.3351 141.355 45.8L141.638 46.0828C142.133 45.5877 142.789 44.7667 143.281 43.599L142.912 43.4438ZM141.358 45.7975C140.821 46.3149 140.206 46.6417 139.746 46.8142L139.887 47.1887C140.387 47.0011 141.052 46.648 141.636 46.0854L141.358 45.7975ZM139.629 47.0716L139.929 47.8716L140.304 47.7312L140.004 46.9312L139.629 47.0716ZM140.18 47.9912C140.44 47.9044 141.143 47.613 141.926 46.9544L141.668 46.6484C140.93 47.2698 140.273 47.5385 140.053 47.6117L140.18 47.9912ZM141.928 46.9521C143.232 45.8142 144.067 43.9845 145.223 41.014L144.85 40.8689C143.687 43.8583 142.882 45.5887 141.665 46.6508L141.928 46.9521ZM145.222 41.0161L148.102 33.8561L147.731 33.7068L144.851 40.8668L145.222 41.0161ZM147.917 33.5814H146.897V33.9814H147.917V33.5814ZM146.709 33.711L144.369 39.931L144.744 40.0718L147.084 33.8518L146.709 33.711ZM144.37 39.9296C144.068 40.7139 143.825 41.4828 143.628 42.0562L144.006 42.1866C144.208 41.6 144.445 40.849 144.743 40.0732L144.37 39.9296ZM143.817 41.9214H143.777V42.3214H143.817V41.9214ZM143.968 42.064C143.787 41.4599 143.525 40.6752 143.263 39.99L142.89 40.1329C143.148 40.8077 143.406 41.583 143.585 42.1789L143.968 42.064ZM143.262 39.9869L140.742 33.7069L140.371 33.8559L142.891 40.1359L143.262 39.9869ZM140.557 33.5814H139.537V33.9814H140.557V33.5814Z" fill="white" mask="url(#path-28-outside-1_225_136)"/>
<mask id="path-30-outside-2_225_136" maskUnits="userSpaceOnUse" x="57" y="29.3814" width="14" height="15" fill="black">
<rect fill="white" x="57" y="29.3814" width="14" height="15"/>
<path d="M57.62 29.9014V43.3814H58.58V29.9014H57.62ZM64.6988 43.3814H65.6588V30.7014H70.0588V29.9014H60.2988V30.7014H64.6988V43.3814Z"/>
</mask>
<path d="M57.62 29.9014V43.3814H58.58V29.9014H57.62ZM64.6988 43.3814H65.6588V30.7014H70.0588V29.9014H60.2988V30.7014H64.6988V43.3814Z" fill="white"/>
<path d="M57.62 29.9014V29.7014H57.42V29.9014H57.62ZM57.62 43.3814H57.42V43.5814H57.62V43.3814ZM58.58 43.3814V43.5814H58.78V43.3814H58.58ZM58.58 29.9014H58.78V29.7014H58.58V29.9014ZM57.42 29.9014V43.3814H57.82V29.9014H57.42ZM57.62 43.5814H58.58V43.1814H57.62V43.5814ZM58.78 43.3814V29.9014H58.38V43.3814H58.78ZM58.58 29.7014H57.62V30.1014H58.58V29.7014ZM64.6988 43.3814H64.4988V43.5814H64.6988V43.3814ZM65.6588 43.3814V43.5814H65.8588V43.3814H65.6588ZM65.6588 30.7014V30.5014H65.4587V30.7014H65.6588ZM70.0588 30.7014V30.9014H70.2588V30.7014H70.0588ZM70.0588 29.9014H70.2588V29.7014H70.0588V29.9014ZM60.2988 29.9014V29.7014H60.0988V29.9014H60.2988ZM60.2988 30.7014H60.0988V30.9014H60.2988V30.7014ZM64.6988 30.7014H64.8988V30.5014H64.6988V30.7014ZM64.6988 43.5814H65.6588V43.1814H64.6988V43.5814ZM65.8588 43.3814V30.7014H65.4587V43.3814H65.8588ZM65.6588 30.9014H70.0588V30.5014H65.6588V30.9014ZM70.2588 30.7014V29.9014H69.8588V30.7014H70.2588ZM70.0588 29.7014H60.2988V30.1014H70.0588V29.7014ZM60.0988 29.9014V30.7014H60.4988V29.9014H60.0988ZM60.2988 30.9014H64.6988V30.5014H60.2988V30.9014ZM64.4988 30.7014V43.3814H64.8988V30.7014H64.4988Z" fill="white" mask="url(#path-30-outside-2_225_136)"/>
<mask id="path-32-outside-3_225_136" maskUnits="userSpaceOnUse" x="57.2569" y="7.03671" width="91" height="21" fill="black">
<rect fill="white" x="57.2569" y="7.03671" width="91" height="21"/>
<path d="M63.9059 22.1907L69.1559 8.03671H68.0849L65.3339 15.6177C64.5989 17.6127 63.9479 19.4397 63.5279 21.0357H63.4649C63.0659 19.4607 62.4779 17.6757 61.8059 15.6177L59.3069 8.03671H58.2569L62.9609 22.1907H63.9059Z"/>
<path d="M73.4609 22.1907V12.1107H72.4529V22.1907H73.4609Z"/>
<path d="M78.8366 22.1907H79.8446V15.9537C79.8446 15.6387 79.9076 15.3027 79.9706 15.0507C80.3696 13.7487 81.5876 12.7407 82.9946 12.7407C85.0736 12.7407 85.7876 14.3997 85.7876 16.2267V22.1907H86.7956V16.1427C86.7956 12.3627 84.2336 11.8797 83.2676 11.8797C81.6296 11.8797 80.3486 12.8037 79.8026 13.9377H79.7606L79.6976 12.1107H78.7526C78.8156 12.9087 78.8366 13.6017 78.8366 14.5257V22.1907Z"/>
<path d="M92.0904 22.1907H93.0984V15.9537C93.0984 15.6387 93.1614 15.3027 93.2244 15.0507C93.6234 13.7487 94.8414 12.7407 96.2484 12.7407C98.3274 12.7407 99.0414 14.3997 99.0414 16.2267V22.1907H100.049V16.1427C100.049 12.3627 97.4874 11.8797 96.5214 11.8797C94.8834 11.8797 93.6024 12.8037 93.0564 13.9377H93.0144L92.9514 12.1107H92.0064C92.0694 12.9087 92.0904 13.6017 92.0904 14.5257V22.1907Z"/>
<path d="M103.669 12.1107L107.407 21.4557C107.491 21.6657 107.533 21.8127 107.533 21.8967C107.533 22.0017 107.491 22.1277 107.407 22.3377C106.903 23.5347 106.231 24.3747 105.727 24.8787C105.139 25.4457 104.467 25.8027 103.963 25.9917L104.278 26.8317C104.53 26.7477 105.244 26.4537 106.042 25.7817C107.365 24.6267 108.226 22.7577 109.444 19.6287L112.468 12.1107H111.397L108.94 18.6417C108.625 19.4607 108.373 20.2587 108.163 20.8677H108.121C107.932 20.2377 107.659 19.4187 107.386 18.7047L104.74 12.1107H103.669Z"/>
<path d="M116.761 10.2627V12.1107H115.06V12.9297H116.761V19.2927C116.761 20.3217 116.929 21.1827 117.391 21.7077C117.769 22.1907 118.378 22.4217 119.113 22.4217C119.722 22.4217 120.184 22.3167 120.52 22.1697L120.394 21.4137C120.142 21.4977 119.764 21.5607 119.239 21.5607C118.168 21.5607 117.769 20.7627 117.769 19.4817V12.9297H120.646V12.1107H117.769V9.88471L116.761 10.2627Z"/>
<path d="M124.082 21.7077C124.754 22.1277 125.678 22.4007 126.644 22.4007C128.702 22.4007 130.046 21.2457 130.046 19.5237C130.046 17.9907 129.08 17.1717 127.442 16.5417C126.077 15.9747 125.363 15.5127 125.363 14.4627C125.363 13.5387 126.035 12.7197 127.316 12.7197C128.324 12.7197 128.975 13.0767 129.332 13.3287L129.71 12.5097C129.206 12.1527 128.408 11.8797 127.484 11.8797C125.531 11.8797 124.376 13.1607 124.376 14.6097C124.376 15.8277 125.279 16.7307 126.938 17.3607C128.387 17.9487 129.059 18.5367 129.059 19.6497C129.059 20.6997 128.303 21.5607 126.707 21.5607C125.804 21.5607 124.985 21.2037 124.439 20.8677L124.082 21.7077Z"/>
<path d="M135.696 22.1907V12.1107H134.688V22.1907H135.696Z"/>
<path d="M147.35 15.8487C147.35 14.0637 146.783 11.8797 143.864 11.8797C142.961 11.8797 141.827 12.1317 140.903 12.7407L141.218 13.4757C141.953 12.9507 142.877 12.7197 143.759 12.7197C146.153 12.6987 146.342 14.6937 146.342 15.6807V15.9537C142.226 15.9117 140.189 17.3187 140.189 19.6497C140.189 20.9937 141.113 22.4217 143.15 22.4217C144.767 22.4217 145.88 21.5187 146.384 20.7417H146.426L146.573 22.1907H147.497C147.371 21.4137 147.35 20.5947 147.35 19.7967V15.8487ZM146.342 18.9567C146.342 19.1247 146.321 19.3557 146.237 19.5657C145.901 20.5527 144.935 21.5817 143.255 21.5817C142.205 21.5817 141.239 20.9307 141.239 19.4817C141.239 17.0667 144.137 16.7307 146.342 16.7937V18.9567Z"/>
</mask>
<path d="M63.9059 22.1907L69.1559 8.03671H68.0849L65.3339 15.6177C64.5989 17.6127 63.9479 19.4397 63.5279 21.0357H63.4649C63.0659 19.4607 62.4779 17.6757 61.8059 15.6177L59.3069 8.03671H58.2569L62.9609 22.1907H63.9059Z" fill="white"/>
<path d="M73.4609 22.1907V12.1107H72.4529V22.1907H73.4609Z" fill="white"/>
<path d="M78.8366 22.1907H79.8446V15.9537C79.8446 15.6387 79.9076 15.3027 79.9706 15.0507C80.3696 13.7487 81.5876 12.7407 82.9946 12.7407C85.0736 12.7407 85.7876 14.3997 85.7876 16.2267V22.1907H86.7956V16.1427C86.7956 12.3627 84.2336 11.8797 83.2676 11.8797C81.6296 11.8797 80.3486 12.8037 79.8026 13.9377H79.7606L79.6976 12.1107H78.7526C78.8156 12.9087 78.8366 13.6017 78.8366 14.5257V22.1907Z" fill="white"/>
<path d="M92.0904 22.1907H93.0984V15.9537C93.0984 15.6387 93.1614 15.3027 93.2244 15.0507C93.6234 13.7487 94.8414 12.7407 96.2484 12.7407C98.3274 12.7407 99.0414 14.3997 99.0414 16.2267V22.1907H100.049V16.1427C100.049 12.3627 97.4874 11.8797 96.5214 11.8797C94.8834 11.8797 93.6024 12.8037 93.0564 13.9377H93.0144L92.9514 12.1107H92.0064C92.0694 12.9087 92.0904 13.6017 92.0904 14.5257V22.1907Z" fill="white"/>
<path d="M103.669 12.1107L107.407 21.4557C107.491 21.6657 107.533 21.8127 107.533 21.8967C107.533 22.0017 107.491 22.1277 107.407 22.3377C106.903 23.5347 106.231 24.3747 105.727 24.8787C105.139 25.4457 104.467 25.8027 103.963 25.9917L104.278 26.8317C104.53 26.7477 105.244 26.4537 106.042 25.7817C107.365 24.6267 108.226 22.7577 109.444 19.6287L112.468 12.1107H111.397L108.94 18.6417C108.625 19.4607 108.373 20.2587 108.163 20.8677H108.121C107.932 20.2377 107.659 19.4187 107.386 18.7047L104.74 12.1107H103.669Z" fill="white"/>
<path d="M116.761 10.2627V12.1107H115.06V12.9297H116.761V19.2927C116.761 20.3217 116.929 21.1827 117.391 21.7077C117.769 22.1907 118.378 22.4217 119.113 22.4217C119.722 22.4217 120.184 22.3167 120.52 22.1697L120.394 21.4137C120.142 21.4977 119.764 21.5607 119.239 21.5607C118.168 21.5607 117.769 20.7627 117.769 19.4817V12.9297H120.646V12.1107H117.769V9.88471L116.761 10.2627Z" fill="white"/>
<path d="M124.082 21.7077C124.754 22.1277 125.678 22.4007 126.644 22.4007C128.702 22.4007 130.046 21.2457 130.046 19.5237C130.046 17.9907 129.08 17.1717 127.442 16.5417C126.077 15.9747 125.363 15.5127 125.363 14.4627C125.363 13.5387 126.035 12.7197 127.316 12.7197C128.324 12.7197 128.975 13.0767 129.332 13.3287L129.71 12.5097C129.206 12.1527 128.408 11.8797 127.484 11.8797C125.531 11.8797 124.376 13.1607 124.376 14.6097C124.376 15.8277 125.279 16.7307 126.938 17.3607C128.387 17.9487 129.059 18.5367 129.059 19.6497C129.059 20.6997 128.303 21.5607 126.707 21.5607C125.804 21.5607 124.985 21.2037 124.439 20.8677L124.082 21.7077Z" fill="white"/>
<path d="M135.696 22.1907V12.1107H134.688V22.1907H135.696Z" fill="white"/>
<path d="M147.35 15.8487C147.35 14.0637 146.783 11.8797 143.864 11.8797C142.961 11.8797 141.827 12.1317 140.903 12.7407L141.218 13.4757C141.953 12.9507 142.877 12.7197 143.759 12.7197C146.153 12.6987 146.342 14.6937 146.342 15.6807V15.9537C142.226 15.9117 140.189 17.3187 140.189 19.6497C140.189 20.9937 141.113 22.4217 143.15 22.4217C144.767 22.4217 145.88 21.5187 146.384 20.7417H146.426L146.573 22.1907H147.497C147.371 21.4137 147.35 20.5947 147.35 19.7967V15.8487ZM146.342 18.9567C146.342 19.1247 146.321 19.3557 146.237 19.5657C145.901 20.5527 144.935 21.5817 143.255 21.5817C142.205 21.5817 141.239 20.9307 141.239 19.4817C141.239 17.0667 144.137 16.7307 146.342 16.7937V18.9567Z" fill="white"/>
<path d="M63.9059 22.1907L69.1559 8.03671H68.0849L65.3339 15.6177C64.5989 17.6127 63.9479 19.4397 63.5279 21.0357H63.4649C63.0659 19.4607 62.4779 17.6757 61.8059 15.6177L59.3069 8.03671H58.2569L62.9609 22.1907H63.9059Z" stroke="white" stroke-width="1.2" mask="url(#path-32-outside-3_225_136)"/>
<path d="M73.4609 22.1907V12.1107H72.4529V22.1907H73.4609Z" stroke="white" stroke-width="1.2" mask="url(#path-32-outside-3_225_136)"/>
<path d="M78.8366 22.1907H79.8446V15.9537C79.8446 15.6387 79.9076 15.3027 79.9706 15.0507C80.3696 13.7487 81.5876 12.7407 82.9946 12.7407C85.0736 12.7407 85.7876 14.3997 85.7876 16.2267V22.1907H86.7956V16.1427C86.7956 12.3627 84.2336 11.8797 83.2676 11.8797C81.6296 11.8797 80.3486 12.8037 79.8026 13.9377H79.7606L79.6976 12.1107H78.7526C78.8156 12.9087 78.8366 13.6017 78.8366 14.5257V22.1907Z" stroke="white" stroke-width="1.2" mask="url(#path-32-outside-3_225_136)"/>
<path d="M92.0904 22.1907H93.0984V15.9537C93.0984 15.6387 93.1614 15.3027 93.2244 15.0507C93.6234 13.7487 94.8414 12.7407 96.2484 12.7407C98.3274 12.7407 99.0414 14.3997 99.0414 16.2267V22.1907H100.049V16.1427C100.049 12.3627 97.4874 11.8797 96.5214 11.8797C94.8834 11.8797 93.6024 12.8037 93.0564 13.9377H93.0144L92.9514 12.1107H92.0064C92.0694 12.9087 92.0904 13.6017 92.0904 14.5257V22.1907Z" stroke="white" stroke-width="1.2" mask="url(#path-32-outside-3_225_136)"/>
<path d="M103.669 12.1107L107.407 21.4557C107.491 21.6657 107.533 21.8127 107.533 21.8967C107.533 22.0017 107.491 22.1277 107.407 22.3377C106.903 23.5347 106.231 24.3747 105.727 24.8787C105.139 25.4457 104.467 25.8027 103.963 25.9917L104.278 26.8317C104.53 26.7477 105.244 26.4537 106.042 25.7817C107.365 24.6267 108.226 22.7577 109.444 19.6287L112.468 12.1107H111.397L108.94 18.6417C108.625 19.4607 108.373 20.2587 108.163 20.8677H108.121C107.932 20.2377 107.659 19.4187 107.386 18.7047L104.74 12.1107H103.669Z" stroke="white" stroke-width="1.2" mask="url(#path-32-outside-3_225_136)"/>
<path d="M116.761 10.2627V12.1107H115.06V12.9297H116.761V19.2927C116.761 20.3217 116.929 21.1827 117.391 21.7077C117.769 22.1907 118.378 22.4217 119.113 22.4217C119.722 22.4217 120.184 22.3167 120.52 22.1697L120.394 21.4137C120.142 21.4977 119.764 21.5607 119.239 21.5607C118.168 21.5607 117.769 20.7627 117.769 19.4817V12.9297H120.646V12.1107H117.769V9.88471L116.761 10.2627Z" stroke="white" stroke-width="1.2" mask="url(#path-32-outside-3_225_136)"/>
<path d="M124.082 21.7077C124.754 22.1277 125.678 22.4007 126.644 22.4007C128.702 22.4007 130.046 21.2457 130.046 19.5237C130.046 17.9907 129.08 17.1717 127.442 16.5417C126.077 15.9747 125.363 15.5127 125.363 14.4627C125.363 13.5387 126.035 12.7197 127.316 12.7197C128.324 12.7197 128.975 13.0767 129.332 13.3287L129.71 12.5097C129.206 12.1527 128.408 11.8797 127.484 11.8797C125.531 11.8797 124.376 13.1607 124.376 14.6097C124.376 15.8277 125.279 16.7307 126.938 17.3607C128.387 17.9487 129.059 18.5367 129.059 19.6497C129.059 20.6997 128.303 21.5607 126.707 21.5607C125.804 21.5607 124.985 21.2037 124.439 20.8677L124.082 21.7077Z" stroke="white" stroke-width="1.2" mask="url(#path-32-outside-3_225_136)"/>
<path d="M135.696 22.1907V12.1107H134.688V22.1907H135.696Z" stroke="white" stroke-width="1.2" mask="url(#path-32-outside-3_225_136)"/>
<path d="M147.35 15.8487C147.35 14.0637 146.783 11.8797 143.864 11.8797C142.961 11.8797 141.827 12.1317 140.903 12.7407L141.218 13.4757C141.953 12.9507 142.877 12.7197 143.759 12.7197C146.153 12.6987 146.342 14.6937 146.342 15.6807V15.9537C142.226 15.9117 140.189 17.3187 140.189 19.6497C140.189 20.9937 141.113 22.4217 143.15 22.4217C144.767 22.4217 145.88 21.5187 146.384 20.7417H146.426L146.573 22.1907H147.497C147.371 21.4137 147.35 20.5947 147.35 19.7967V15.8487ZM146.342 18.9567C146.342 19.1247 146.321 19.3557 146.237 19.5657C145.901 20.5527 144.935 21.5817 143.255 21.5817C142.205 21.5817 141.239 20.9307 141.239 19.4817C141.239 17.0667 144.137 16.7307 146.342 16.7937V18.9567Z" stroke="white" stroke-width="1.2" mask="url(#path-32-outside-3_225_136)"/>
<path d="M74.5589 8.85123C74.5589 9.70064 73.8425 10.3892 72.9589 10.3892C72.0752 10.3892 71.3589 9.70064 71.3589 8.85123C71.3589 8.00182 72.0752 7.31323 72.9589 7.31323C73.8425 7.31323 74.5589 8.00182 74.5589 8.85123ZM72.5589 8.85123C72.5589 9.06358 72.7379 9.23573 72.9589 9.23573C73.1798 9.23573 73.3589 9.06358 73.3589 8.85123C73.3589 8.63888 73.1798 8.46673 72.9589 8.46673C72.7379 8.46673 72.5589 8.63888 72.5589 8.85123Z" fill="white"/>
<path d="M136.77 8.85122C136.77 9.70063 136.053 10.3892 135.17 10.3892C134.286 10.3892 133.57 9.70063 133.57 8.85122C133.57 8.00181 134.286 7.31322 135.17 7.31322C136.053 7.31322 136.77 8.00181 136.77 8.85122ZM134.77 8.85122C134.77 9.06357 134.949 9.23572 135.17 9.23572C135.391 9.23572 135.57 9.06357 135.57 8.85122C135.57 8.63887 135.391 8.46672 135.17 8.46672C134.949 8.46672 134.77 8.63887 134.77 8.85122Z" fill="white"/>
<defs>
<linearGradient id="paint0_linear_225_136" x1="-7.62939e-06" y1="25.6907" x2="50" y2="25.6907" gradientUnits="userSpaceOnUse">
<stop stop-color="#00C69F"/>
<stop offset="1" stop-color="#009CCA"/>
</linearGradient>
</defs>
</svg>
