<svg width="167" height="52" viewBox="0 0 167 52" fill="none" xmlns="http://www.w3.org/2000/svg">
<rect width="52" height="52" rx="8" fill="url(#paint0_linear_126_453)"/>
<path d="M24.2956 6.23077C22.6752 7.00382 22.2991 9.00002 23.5529 10.2232C24.0738 10.7222 24.5175 10.8886 25.3469 10.8886H26.051L29.0699 13.9514L32.0792 17.0044V20.2629C32.0792 22.8952 32.1082 23.5704 32.2143 23.7857C32.2914 23.9324 32.6097 24.3043 32.928 24.6272L33.5067 25.1948L33.4585 25.7721C33.362 26.7702 33.9118 27.7487 34.8184 28.238C35.6576 28.6881 36.9018 28.4435 37.6059 27.6998C37.9917 27.2986 38.3486 26.4766 38.3389 26.0069C38.3293 25.185 37.7891 24.2945 37.0175 23.8346C36.6221 23.5997 36.4581 23.5606 35.7926 23.5606C35.0499 23.5606 35.0113 23.5508 34.6641 23.2083L34.2976 22.8561V19.4899V16.1335L30.9315 12.6989L27.5653 9.27401L27.6135 8.73582C27.71 7.62029 27.2567 6.79832 26.2825 6.29927C25.5398 5.91764 24.9997 5.90786 24.2956 6.23077ZM25.6074 8.26612C25.7424 8.50097 25.7424 8.54011 25.5784 8.72603C25.1444 9.2153 24.4499 8.68689 24.8165 8.15849C25.019 7.86493 25.4241 7.92364 25.6074 8.26612ZM36.2073 25.684C36.352 25.8112 36.3617 26.1733 36.2073 26.3298C36.1398 26.3983 35.9759 26.4473 35.8408 26.4473C35.3779 26.4473 35.1946 26.0069 35.5225 25.6449C35.6865 25.4687 35.9469 25.4785 36.2073 25.684Z" fill="white"/>
<path d="M16.174 6.29941C15.7592 6.46576 15.1033 7.07245 14.8911 7.49322C14.5922 8.06077 14.5922 9.1078 14.8815 9.67535C15.3734 10.6245 16.3958 11.1725 17.3892 11.0355L17.8522 10.9768L21.5945 14.7246L25.3368 18.4724L25.3272 19.1476V19.813L24.8835 20.2142C23.4946 21.4569 23.7647 23.4629 25.4526 24.3631C25.9059 24.6078 26.909 24.5784 27.4009 24.324C28.3075 23.8445 28.7898 23.0617 28.7994 22.0831C28.7994 21.3492 28.4618 20.6056 27.9217 20.1652L27.5455 19.8619V18.9421C27.5455 18.3843 27.4973 17.9048 27.4105 17.7091C27.3334 17.533 25.6069 15.7031 23.3596 13.4329L19.4436 9.46986L19.5015 8.92188C19.5497 8.52068 19.5208 8.22712 19.3954 7.86506C19.1832 7.21923 18.4888 6.47554 17.939 6.30919C17.4664 6.1722 16.5019 6.16241 16.174 6.29941ZM17.4182 8.28583C17.5918 8.51089 17.4953 8.86317 17.206 9.01973C16.9745 9.15673 16.9359 9.15673 16.7527 8.99037C16.5308 8.78488 16.4922 8.4424 16.6659 8.26626C16.8298 8.09991 17.2735 8.11948 17.4182 8.28583ZM26.6003 21.6722C26.9475 21.9657 26.8511 22.5333 26.446 22.5333C26.0313 22.5333 25.9059 22.4354 25.9059 22.0831C25.9059 21.633 26.2724 21.4177 26.6003 21.6722Z" fill="white"/>
<path d="M34.0304 7.41499C32.873 7.92383 32.2364 9.25463 32.603 10.3799C33.0273 11.6716 34.3584 12.4153 35.6219 12.0532C35.9691 11.9652 36.2295 11.7793 36.6443 11.3585L37.2133 10.7909H38.4865H39.7596L41.7562 12.8165L43.7527 14.8323V15.8793V16.9361L43.4151 17.1905C43.01 17.5037 42.6435 18.1299 42.5085 18.7171C42.2963 19.676 42.8171 20.7622 43.7527 21.3004C44.9294 21.9658 46.4437 21.5059 47.0996 20.2631C47.2153 20.0381 47.2635 19.7249 47.2732 19.2063C47.2732 18.3159 47.0224 17.7385 46.3955 17.2101L45.9807 16.8578L45.9904 15.4292L46 14.0005L45.5274 13.5113C45.267 13.2373 44.0999 12.0532 42.9329 10.879C41.3318 9.25463 40.7338 8.70666 40.4734 8.63816C40.2901 8.58923 39.4799 8.54031 38.6697 8.54031H37.2037L36.6925 8.02168C36.3645 7.69877 36.027 7.46392 35.7762 7.38564C35.2554 7.22907 34.4259 7.23886 34.0304 7.41499ZM35.3229 9.46991C35.5929 9.8809 35.0046 10.4191 34.6284 10.106C34.4645 9.95918 34.4548 9.49927 34.6091 9.3427C34.7827 9.16657 35.1686 9.23506 35.3229 9.46991ZM45.1995 18.8149C45.5467 19.1672 45.3442 19.6369 44.8715 19.5782C44.235 19.5097 44.2928 18.7366 44.9391 18.629C44.9776 18.629 45.0934 18.7073 45.1995 18.8149Z" fill="white"/>
<path d="M8.9619 8.27611C8.44106 8.47182 7.89129 8.96108 7.61158 9.46992C7.3801 9.89069 7.34152 10.0668 7.34152 10.7127V11.4759L4.68911 14.1669L2.0367 16.8579L2.00776 20.1653C1.98847 21.9756 2.00776 23.5706 2.0367 23.7076C2.10422 23.9816 4.2165 26.1931 4.61195 26.4083C4.82414 26.516 5.54752 26.5453 8.42177 26.5453H11.9712L13.9195 28.522L15.8774 30.5084L20.0152 30.5573L24.1626 30.6062L24.5098 31.0172C24.6931 31.2423 25.0885 31.5456 25.3875 31.6924C26.95 32.4655 28.8019 31.2227 28.8019 29.3929C28.8019 28.473 28.0496 27.4456 27.1719 27.1422C26.2556 26.8291 25.2236 27.1227 24.5677 27.8859L24.1915 28.3165L20.5167 28.336L16.842 28.3556L14.8647 26.3496L12.8875 24.3436L9.19338 24.3143L5.50894 24.2849L4.86272 23.6293L4.20685 22.9835V20.3806V17.7875L6.5892 15.3705L8.9619 12.9633L9.47309 13.0122C10.2736 13.1003 10.8234 12.8948 11.4118 12.2979C12.4148 11.2802 12.3956 9.7537 11.3442 8.80452C10.6691 8.18804 9.7528 7.98255 8.9619 8.27611ZM10.0711 10.2234C10.2351 10.3897 10.2158 10.6931 10.0229 10.9084C9.82996 11.1236 9.62741 11.1334 9.39593 10.9182C9.20302 10.742 9.17409 10.5659 9.31877 10.2919C9.43451 10.0766 9.88783 10.0375 10.0711 10.2234ZM26.7861 29.2461C26.8536 29.4418 26.8439 29.5592 26.7282 29.7354C26.4774 30.1365 25.9084 29.9702 25.9084 29.5005C25.9084 29.1482 26.0723 28.9917 26.4099 28.9917C26.6221 28.9917 26.7089 29.0504 26.7861 29.2461Z" fill="white"/>
<path d="M11.5853 14.6266C10.8426 14.8908 10.1674 15.6834 9.98419 16.5152C9.82022 17.2784 10.0614 18.0123 10.7172 18.6777C11.2959 19.2649 11.8361 19.4606 12.6559 19.3725L13.196 19.3138L15.3951 21.5155L17.5942 23.7172L17.546 24.2847C17.3531 26.369 19.5714 27.7585 21.2497 26.6137C22.5614 25.7232 22.7736 24.0988 21.7319 22.9539C21.1725 22.3277 20.671 22.1222 19.8222 22.1515L19.1374 22.1711L16.948 19.9498L14.7585 17.7384L14.7971 17.0534C14.826 16.5054 14.7971 16.2901 14.6235 15.9379C14.3631 15.3899 13.6976 14.7734 13.196 14.6266C12.7427 14.4896 11.9807 14.4896 11.5853 14.6266ZM12.733 16.6228C12.9356 16.8185 12.926 16.9849 12.7041 17.2589C12.5498 17.4546 12.4823 17.4742 12.2508 17.3959C11.7589 17.2197 11.8457 16.4663 12.3665 16.4663C12.4823 16.4663 12.6559 16.5348 12.733 16.6228ZM20.2948 24.2162C20.4202 24.3435 20.4491 24.6762 20.3334 24.8523C20.208 25.0578 19.774 25.1067 19.6004 24.9306C19.2724 24.5979 19.4653 24.0988 19.9283 24.0988C20.0633 24.0988 20.2273 24.1477 20.2948 24.2162Z" fill="white"/>
<path d="M43.8366 24.5392C43.3254 24.8034 42.8239 25.3513 42.6214 25.8406C42.4092 26.3494 42.4477 27.2203 42.6985 27.7585C42.8143 28.0129 43.1036 28.3946 43.3447 28.6098L43.7884 29.0013L41.2228 31.6139C39.8146 33.0524 38.609 34.3245 38.5511 34.4419C38.4932 34.5593 38.445 34.8138 38.445 34.9997C38.445 35.2443 38.3871 35.3715 38.2521 35.4498C38.146 35.5085 37.8856 35.7727 37.6831 36.0369C37.1719 36.6925 37.0175 37.3873 37.2297 38.1212C37.3937 38.6887 37.7699 39.2465 38.175 39.5205C38.4064 39.6868 38.445 39.7749 38.445 40.1957C38.445 40.6654 38.4161 40.7143 38.0206 41.047C36.352 42.4757 37.2876 45.2743 39.4674 45.3526C40.2294 45.3721 40.7309 45.1764 41.2421 44.6578C41.7244 44.1685 42.0137 43.4738 42.0137 42.8475C42.0041 42.1821 41.4929 41.2427 40.9527 40.8807C40.702 40.7143 40.6634 40.6262 40.6634 40.2348C40.6634 39.8336 40.702 39.7553 41.0492 39.4716C41.2614 39.3052 41.5507 38.9529 41.6954 38.6985C41.9269 38.3169 41.9655 38.131 41.9655 37.5536C41.9558 36.7415 41.7147 36.1837 41.1167 35.6161L40.7213 35.2443L43.3447 32.5827C44.8494 31.0464 45.9779 29.833 45.9779 29.7254C45.9875 29.6177 45.9971 29.4122 46.0068 29.2655C46.0164 29.0893 46.1804 28.8643 46.4987 28.5609L46.9713 28.1108H51.4852H52V26.4864V25.3709H51.4852H46.9713L46.6337 25.0186C46.1611 24.5098 45.6596 24.2945 44.9072 24.3043C44.4346 24.3043 44.1742 24.363 43.8366 24.5392ZM45.3123 26.4864C45.4377 26.6626 45.3991 26.8289 45.1966 27.0344C44.9651 27.2693 44.7819 27.279 44.5793 27.0736C44.2128 26.7017 44.5986 26.0363 45.0423 26.2712C45.158 26.3299 45.2738 26.4277 45.3123 26.4864ZM39.94 37.2112C40.2004 37.4949 40.0365 37.9353 39.6699 37.9744C39.1684 38.0331 38.9369 37.5732 39.2841 37.1916C39.4867 36.9567 39.7182 36.9665 39.94 37.2112ZM39.8918 42.5931C40.1522 42.8573 40.1329 43.1411 39.8436 43.3368C39.6217 43.4836 39.5831 43.4836 39.3613 43.3368C39.0527 43.1313 39.043 42.7594 39.3324 42.554C39.6121 42.3582 39.6603 42.3582 39.8918 42.5931Z" fill="white"/>
<path d="M10.8393 29.52C10.1834 29.6961 9.55651 30.2245 9.25751 30.8214C8.90064 31.5455 8.8717 31.9663 9.12248 32.6415C9.38289 33.3363 9.68189 33.7081 10.2702 34.0604C10.6464 34.2854 10.82 34.3246 11.4759 34.3246H12.2378L13.4531 35.5673C14.1186 36.2425 14.7649 36.8492 14.8806 36.9079C15.0156 36.9764 15.8162 37.0155 17.0701 37.0155H19.0569L19.6164 37.5831C20.224 38.1996 20.6484 38.3855 21.4393 38.3855C22.0662 38.3855 22.8185 38.0039 23.2815 37.4461L23.6287 37.0155H26.7345H29.8402L30.0138 37.2798C30.1971 37.5733 30.7275 38.0919 30.8529 38.0919C30.8915 38.0919 30.9204 39.0411 30.9204 40.1958V42.2898L30.5829 42.5638C29.1168 43.7381 29.3097 45.9202 30.9397 46.7422C32.1743 47.3684 33.6114 46.8205 34.2866 45.4603C34.7303 44.56 34.4313 43.3564 33.5825 42.6323L33.1388 42.2605V40.1958V38.1311L33.5536 37.8375C34.3638 37.2504 34.711 35.9881 34.3059 35.0389C33.5536 33.258 31.2484 32.9155 30.1488 34.4322L29.9077 34.7551L26.7538 34.7649H23.5902L23.0886 34.2365C22.5292 33.6592 22.1434 33.4928 21.3236 33.4928C20.6773 33.4928 19.9443 33.8549 19.5392 34.3637L19.2209 34.7649H17.5234H15.8258L14.7842 33.7179L13.7425 32.6806L13.81 32.2599C13.9547 31.2618 13.3856 30.1854 12.479 29.7353C11.8135 29.4221 11.3987 29.3634 10.8393 29.52ZM11.7942 31.7119C11.8713 32.0446 11.717 32.2599 11.3601 32.299C11.0226 32.3382 10.8007 32.0544 10.9068 31.7217C11.0419 31.3009 11.6881 31.2911 11.7942 31.7119ZM21.6804 35.6162C21.8926 35.8119 21.9023 36.0174 21.6901 36.2523C21.3718 36.6143 20.8895 36.3795 20.8895 35.8707C20.8895 35.4695 21.3525 35.3129 21.6804 35.6162ZM32.3286 35.6162C32.5215 35.8804 32.4926 36.2131 32.2611 36.3306C31.9621 36.4969 31.6053 36.3697 31.5377 36.0762C31.422 35.5967 32.0393 35.2346 32.3286 35.6162ZM32.2804 44.1588C32.4926 44.2763 32.5312 44.7362 32.3479 44.9221C32.0779 45.1961 31.4992 44.9417 31.4992 44.5503C31.4992 44.335 31.7499 44.061 31.9428 44.061C32.0296 44.061 32.1743 44.1099 32.2804 44.1588Z" fill="white"/>
<path d="M63.0352 11.3496H59.4316L59.4121 9.83594H62.6836C63.224 9.83594 63.696 9.74479 64.0996 9.5625C64.5033 9.38021 64.8158 9.11979 65.0371 8.78125C65.265 8.4362 65.3789 8.02604 65.3789 7.55078C65.3789 7.02995 65.278 6.60677 65.0762 6.28125C64.8809 5.94922 64.5781 5.70833 64.168 5.55859C63.7643 5.40234 63.25 5.32422 62.625 5.32422H59.8516V18H57.9668V3.78125H62.625C63.3542 3.78125 64.0052 3.85612 64.5781 4.00586C65.151 4.14909 65.6361 4.37695 66.0332 4.68945C66.4368 4.99544 66.7428 5.38607 66.9512 5.86133C67.1595 6.33659 67.2637 6.90625 67.2637 7.57031C67.2637 8.15625 67.1139 8.68685 66.8145 9.16211C66.515 9.63086 66.0983 10.015 65.5645 10.3145C65.0371 10.6139 64.4186 10.806 63.709 10.8906L63.0352 11.3496ZM62.9473 18H58.6895L59.7539 16.4668H62.9473C63.5462 16.4668 64.054 16.3626 64.4707 16.1543C64.8939 15.946 65.2161 15.653 65.4375 15.2754C65.6589 14.8913 65.7695 14.4388 65.7695 13.918C65.7695 13.3906 65.6751 12.9349 65.4863 12.5508C65.2975 12.1667 65.0013 11.8704 64.5977 11.6621C64.194 11.4538 63.6732 11.3496 63.0352 11.3496H60.3496L60.3691 9.83594H64.041L64.4414 10.3828C65.125 10.4414 65.7044 10.6367 66.1797 10.9688C66.6549 11.2943 67.0163 11.7109 67.2637 12.2188C67.5176 12.7266 67.6445 13.2865 67.6445 13.8984C67.6445 14.7839 67.4492 15.5326 67.0586 16.1445C66.6745 16.75 66.1309 17.2122 65.4277 17.5312C64.7246 17.8438 63.8978 18 62.9473 18ZM72.1172 7.43359V18H70.3008V7.43359H72.1172ZM70.1641 4.63086C70.1641 4.33789 70.252 4.09049 70.4277 3.88867C70.61 3.68685 70.877 3.58594 71.2285 3.58594C71.5736 3.58594 71.8372 3.68685 72.0195 3.88867C72.2083 4.09049 72.3027 4.33789 72.3027 4.63086C72.3027 4.91081 72.2083 5.15169 72.0195 5.35352C71.8372 5.54883 71.5736 5.64648 71.2285 5.64648C70.877 5.64648 70.61 5.54883 70.4277 5.35352C70.252 5.15169 70.1641 4.91081 70.1641 4.63086ZM82.1855 12.0137V13.4785H76.5996V12.0137H82.1855ZM76.9805 7.43359V18H75.1738V7.43359H76.9805ZM83.6504 7.43359V18H81.834V7.43359H83.6504ZM93.7285 12.0137V13.4785H88.1426V12.0137H93.7285ZM88.5234 7.43359V18H86.7168V7.43359H88.5234ZM95.1934 7.43359V18H93.377V7.43359H95.1934ZM100.057 15.1387L104.93 7.43359H106.746V18H104.93V10.2949L100.057 18H98.2598V7.43359H100.057V15.1387ZM109.803 18V7.43359H111.609V16.5156H116.473V7.43359H118.289V18H109.803ZM119.539 16.5156L119.363 21.1348H117.752V18H116.375V16.5156H119.539ZM122.986 11.0664H126.16C127.013 11.0664 127.732 11.2161 128.318 11.5156C128.904 11.8086 129.347 12.2155 129.646 12.7363C129.952 13.2507 130.105 13.8366 130.105 14.4941C130.105 14.9824 130.021 15.4414 129.852 15.8711C129.682 16.2943 129.428 16.6654 129.09 16.9844C128.758 17.3034 128.344 17.554 127.85 17.7363C127.361 17.9121 126.798 18 126.16 18H121.668V7.43359H123.475V16.5156H126.16C126.681 16.5156 127.098 16.4212 127.41 16.2324C127.723 16.0436 127.947 15.7995 128.084 15.5C128.221 15.2005 128.289 14.888 128.289 14.5625C128.289 14.2435 128.221 13.931 128.084 13.625C127.947 13.319 127.723 13.0651 127.41 12.8633C127.098 12.6549 126.681 12.5508 126.16 12.5508H122.986V11.0664ZM134.324 7.43359V18H132.518V7.43359H134.324ZM141.258 7.43359L136.248 13.4883H133.719L133.445 11.9062H135.516L139.061 7.43359H141.258ZM139.314 18L135.428 13.2148L136.59 11.9062L141.609 18H139.314ZM149.412 16.1934V10.7539C149.412 10.3372 149.327 9.97591 149.158 9.66992C148.995 9.35742 148.748 9.11654 148.416 8.94727C148.084 8.77799 147.674 8.69336 147.186 8.69336C146.73 8.69336 146.329 8.77148 145.984 8.92773C145.646 9.08398 145.379 9.28906 145.184 9.54297C144.995 9.79688 144.9 10.0703 144.9 10.3633H143.094C143.094 9.98568 143.191 9.61133 143.387 9.24023C143.582 8.86914 143.862 8.53385 144.227 8.23438C144.598 7.92839 145.04 7.6875 145.555 7.51172C146.076 7.32943 146.655 7.23828 147.293 7.23828C148.061 7.23828 148.738 7.36849 149.324 7.62891C149.917 7.88932 150.379 8.2832 150.711 8.81055C151.049 9.33138 151.219 9.98568 151.219 10.7734V15.6953C151.219 16.0469 151.248 16.4212 151.307 16.8184C151.372 17.2155 151.466 17.5573 151.59 17.8438V18H149.705C149.614 17.7917 149.542 17.515 149.49 17.1699C149.438 16.8184 149.412 16.4928 149.412 16.1934ZM149.725 11.5938L149.744 12.8633H147.918C147.404 12.8633 146.945 12.9056 146.541 12.9902C146.137 13.0684 145.799 13.1888 145.525 13.3516C145.252 13.5143 145.044 13.7194 144.9 13.9668C144.757 14.2077 144.686 14.4909 144.686 14.8164C144.686 15.1484 144.76 15.4512 144.91 15.7246C145.06 15.998 145.285 16.2161 145.584 16.3789C145.89 16.5352 146.264 16.6133 146.707 16.6133C147.26 16.6133 147.749 16.4961 148.172 16.2617C148.595 16.0273 148.93 15.7409 149.178 15.4023C149.432 15.0638 149.568 14.735 149.588 14.416L150.359 15.2852C150.314 15.5586 150.19 15.8613 149.988 16.1934C149.786 16.5254 149.516 16.8444 149.178 17.1504C148.846 17.4499 148.449 17.7005 147.986 17.9023C147.531 18.0977 147.016 18.1953 146.443 18.1953C145.727 18.1953 145.099 18.0553 144.559 17.7754C144.025 17.4954 143.608 17.1211 143.309 16.6523C143.016 16.1771 142.869 15.6465 142.869 15.0605C142.869 14.4941 142.98 13.9961 143.201 13.5664C143.423 13.1302 143.742 12.7689 144.158 12.4824C144.575 12.1895 145.076 11.9681 145.662 11.8184C146.248 11.6686 146.902 11.5938 147.625 11.5938H149.725Z" fill="white"/>
<path d="M60.7891 31.7812V46H58.9043V31.7812H60.7891ZM69.1777 31.7812V46H67.3223V31.7812H69.1777ZM73.748 31.7812V33.3242H62.7617V31.7812H73.748ZM85.6914 33.041L80.9844 46H79.0605L84.4805 31.7812H85.7207L85.6914 33.041ZM89.6367 46L84.9199 33.041L84.8906 31.7812H86.1309L91.5703 46H89.6367ZM89.3926 40.7363V42.2793H81.4043V40.7363H89.3926ZM95.1641 35.4336V46H93.3574V35.4336H95.1641ZM102.098 35.4336L97.0879 41.4883H94.5586L94.2852 39.9062H96.3555L99.9004 35.4336H102.098ZM100.154 46L96.2676 41.2148L97.4297 39.9062L102.449 46H100.154ZM110.252 44.1934V38.7539C110.252 38.3372 110.167 37.9759 109.998 37.6699C109.835 37.3574 109.588 37.1165 109.256 36.9473C108.924 36.778 108.514 36.6934 108.025 36.6934C107.57 36.6934 107.169 36.7715 106.824 36.9277C106.486 37.084 106.219 37.2891 106.023 37.543C105.835 37.7969 105.74 38.0703 105.74 38.3633H103.934C103.934 37.9857 104.031 37.6113 104.227 37.2402C104.422 36.8691 104.702 36.5339 105.066 36.2344C105.438 35.9284 105.88 35.6875 106.395 35.5117C106.915 35.3294 107.495 35.2383 108.133 35.2383C108.901 35.2383 109.578 35.3685 110.164 35.6289C110.757 35.8893 111.219 36.2832 111.551 36.8105C111.889 37.3314 112.059 37.9857 112.059 38.7734V43.6953C112.059 44.0469 112.088 44.4212 112.146 44.8184C112.212 45.2155 112.306 45.5573 112.43 45.8438V46H110.545C110.454 45.7917 110.382 45.515 110.33 45.1699C110.278 44.8184 110.252 44.4928 110.252 44.1934ZM110.564 39.5938L110.584 40.8633H108.758C108.243 40.8633 107.785 40.9056 107.381 40.9902C106.977 41.0684 106.639 41.1888 106.365 41.3516C106.092 41.5143 105.883 41.7194 105.74 41.9668C105.597 42.2077 105.525 42.4909 105.525 42.8164C105.525 43.1484 105.6 43.4512 105.75 43.7246C105.9 43.998 106.124 44.2161 106.424 44.3789C106.73 44.5352 107.104 44.6133 107.547 44.6133C108.1 44.6133 108.589 44.4961 109.012 44.2617C109.435 44.0273 109.77 43.7409 110.018 43.4023C110.271 43.0638 110.408 42.735 110.428 42.416L111.199 43.2852C111.154 43.5586 111.03 43.8613 110.828 44.1934C110.626 44.5254 110.356 44.8444 110.018 45.1504C109.686 45.4499 109.288 45.7005 108.826 45.9023C108.37 46.0977 107.856 46.1953 107.283 46.1953C106.567 46.1953 105.939 46.0553 105.398 45.7754C104.865 45.4954 104.448 45.1211 104.148 44.6523C103.855 44.1771 103.709 43.6465 103.709 43.0605C103.709 42.4941 103.82 41.9961 104.041 41.5664C104.262 41.1302 104.581 40.7689 104.998 40.4824C105.415 40.1895 105.916 39.9681 106.502 39.8184C107.088 39.6686 107.742 39.5938 108.465 39.5938H110.564ZM116.805 35.4336H118.611L118.455 39.3887C118.416 40.3913 118.302 41.2572 118.113 41.9863C117.924 42.7155 117.684 43.3372 117.391 43.8516C117.098 44.3594 116.769 44.7858 116.404 45.1309C116.046 45.4759 115.675 45.7656 115.291 46H114.393L114.441 44.5254L114.812 44.5156C115.027 44.2617 115.236 44.0013 115.438 43.7344C115.639 43.4609 115.825 43.1387 115.994 42.7676C116.163 42.39 116.303 41.931 116.414 41.3906C116.531 40.8438 116.606 40.1764 116.639 39.3887L116.805 35.4336ZM117.254 35.4336H123.611V46H121.805V37.1035H117.254V35.4336ZM113.982 44.5156H124.969V49.1152H123.162V46H115.789V49.1152H113.973L113.982 44.5156ZM131.355 46.1953C130.62 46.1953 129.952 46.0716 129.354 45.8242C128.761 45.5703 128.25 45.2155 127.82 44.7598C127.397 44.304 127.072 43.7637 126.844 43.1387C126.616 42.5137 126.502 41.8301 126.502 41.0879V40.6777C126.502 39.8184 126.629 39.0534 126.883 38.3828C127.137 37.7057 127.482 37.1328 127.918 36.6641C128.354 36.1953 128.849 35.8405 129.402 35.5996C129.956 35.3587 130.529 35.2383 131.121 35.2383C131.876 35.2383 132.527 35.3685 133.074 35.6289C133.628 35.8893 134.08 36.2539 134.432 36.7227C134.783 37.1849 135.044 37.7318 135.213 38.3633C135.382 38.9883 135.467 39.6719 135.467 40.4141V41.2246H127.576V39.75H133.66V39.6133C133.634 39.1445 133.536 38.6888 133.367 38.2461C133.204 37.8034 132.944 37.4388 132.586 37.1523C132.228 36.8659 131.74 36.7227 131.121 36.7227C130.711 36.7227 130.333 36.8105 129.988 36.9863C129.643 37.1556 129.347 37.4095 129.1 37.748C128.852 38.0866 128.66 38.5 128.523 38.9883C128.387 39.4766 128.318 40.0397 128.318 40.6777V41.0879C128.318 41.5892 128.387 42.0612 128.523 42.5039C128.667 42.9401 128.872 43.3242 129.139 43.6562C129.412 43.9883 129.741 44.2487 130.125 44.4375C130.516 44.6263 130.958 44.7207 131.453 44.7207C132.091 44.7207 132.632 44.5905 133.074 44.3301C133.517 44.0697 133.904 43.7214 134.236 43.2852L135.33 44.1543C135.102 44.4993 134.812 44.8281 134.461 45.1406C134.109 45.4531 133.676 45.707 133.162 45.9023C132.654 46.0977 132.052 46.1953 131.355 46.1953ZM143.65 43.5977L147.244 35.4336H148.982L144.275 46H143.025L138.338 35.4336H140.076L143.65 43.5977ZM139.549 35.4336V46H137.742V35.4336H139.549ZM147.693 46V35.4336H149.51V46H147.693ZM154.383 35.4336V46H152.566V35.4336H154.383ZM152.43 32.6309C152.43 32.3379 152.518 32.0905 152.693 31.8887C152.876 31.6868 153.143 31.5859 153.494 31.5859C153.839 31.5859 154.103 31.6868 154.285 31.8887C154.474 32.0905 154.568 32.3379 154.568 32.6309C154.568 32.9108 154.474 33.1517 154.285 33.3535C154.103 33.5488 153.839 33.6465 153.494 33.6465C153.143 33.6465 152.876 33.5488 152.693 33.3535C152.518 33.1517 152.43 32.9108 152.43 32.6309ZM159.422 40.9609H161.375L158.318 46H156.365L159.422 40.9609ZM160.936 35.4336H165.35V46H163.543V36.8984H160.936C160.421 36.8984 160.001 36.9863 159.676 37.1621C159.35 37.3314 159.113 37.5527 158.963 37.8262C158.813 38.0996 158.738 38.3828 158.738 38.6758C158.738 38.9622 158.807 39.2389 158.943 39.5059C159.08 39.7663 159.295 39.9811 159.588 40.1504C159.881 40.3197 160.258 40.4043 160.721 40.4043H164.031V41.8887H160.721C160.115 41.8887 159.578 41.8073 159.109 41.6445C158.641 41.4818 158.243 41.2572 157.918 40.9707C157.592 40.6777 157.345 40.3359 157.176 39.9453C157.007 39.5482 156.922 39.1185 156.922 38.6562C156.922 38.194 157.01 37.7676 157.186 37.377C157.368 36.9863 157.628 36.6445 157.967 36.3516C158.312 36.0586 158.732 35.834 159.227 35.6777C159.728 35.515 160.298 35.4336 160.936 35.4336Z" fill="white"/>
<defs>
<linearGradient id="paint0_linear_126_453" x1="7.82584e-07" y1="26.4906" x2="52" y2="26.4906" gradientUnits="userSpaceOnUse">
<stop stop-color="#00C99F"/>
<stop offset="1" stop-color="#009ACB"/>
</linearGradient>
</defs>
</svg>
