<svg width="50" height="50" viewBox="0 0 50 50" fill="none" xmlns="http://www.w3.org/2000/svg">
<rect width="50" height="50" rx="5" fill="url(#paint0_linear_225_171)"/>
<path d="M36.8924 8.45499H40.0054L44.5791 13.3879V15.8783" stroke="white" stroke-width="2"/>
<path d="M31.8663 35.9363V40.9094" stroke="white" stroke-width="2"/>
<path d="M13.0124 31.9353L15.4367 34.2449H19.0765" stroke="white" stroke-width="2"/>
<path d="M23.1776 34.2504H30.0154" stroke="white" stroke-width="2"/>
<path d="M12.1862 9.37515C12.1862 10.7559 11.0669 11.8752 9.68616 11.8752C8.30545 11.8752 7.18616 10.7559 7.18616 9.37515C7.18616 7.99444 8.30545 6.87515 9.68616 6.87515C11.0669 6.87515 12.1862 7.99444 12.1862 9.37515ZM9.18616 9.37515C9.18616 9.65129 9.41001 9.87515 9.68616 9.87515C9.9623 9.87515 10.1862 9.65129 10.1862 9.37515C10.1862 9.09901 9.9623 8.87515 9.68616 8.87515C9.41001 8.87515 9.18616 9.09901 9.18616 9.37515Z" fill="white"/>
<path d="M19.4568 7.34058C19.4568 8.72129 18.3376 9.84058 16.9568 9.84058C15.5761 9.84058 14.4568 8.72129 14.4568 7.34058C14.4568 5.95986 15.5761 4.84058 16.9568 4.84058C18.3376 4.84058 19.4568 5.95986 19.4568 7.34058ZM16.4568 7.34058C16.4568 7.61672 16.6807 7.84058 16.9568 7.84058C17.233 7.84058 17.4568 7.61672 17.4568 7.34058C17.4568 7.06443 17.233 6.84058 16.9568 6.84058C16.6807 6.84058 16.4568 7.06443 16.4568 7.34058Z" fill="white"/>
<path d="M27.5601 7.34058C27.5601 8.72129 26.4408 9.84058 25.0601 9.84058C23.6793 9.84058 22.5601 8.72129 22.5601 7.34058C22.5601 5.95986 23.6793 4.84058 25.0601 4.84058C26.4408 4.84058 27.5601 5.95986 27.5601 7.34058ZM24.5601 7.34058C24.5601 7.61672 24.7839 7.84058 25.0601 7.84058C25.3362 7.84058 25.5601 7.61672 25.5601 7.34058C25.5601 7.06443 25.3362 6.84058 25.0601 6.84058C24.7839 6.84058 24.5601 7.06443 24.5601 7.34058Z" fill="white"/>
<path d="M37.2478 8.53702C37.2478 9.91773 36.1285 11.037 34.7478 11.037C33.3671 11.037 32.2478 9.91773 32.2478 8.53702C32.2478 7.15631 33.3671 6.03702 34.7478 6.03702C36.1285 6.03702 37.2478 7.15631 37.2478 8.53702ZM34.2478 8.53702C34.2478 8.81316 34.4717 9.03702 34.7478 9.03702C35.0239 9.03702 35.2478 8.81316 35.2478 8.53702C35.2478 8.26088 35.0239 8.03702 34.7478 8.03702C34.4717 8.03702 34.2478 8.26088 34.2478 8.53702Z" fill="white"/>
<path d="M47.1949 17.7839C47.1949 19.1646 46.0756 20.2839 44.6949 20.2839C43.3142 20.2839 42.1949 19.1646 42.1949 17.7839C42.1949 16.4032 43.3142 15.2839 44.6949 15.2839C46.0756 15.2839 47.1949 16.4032 47.1949 17.7839ZM44.1949 17.7839C44.1949 18.06 44.4188 18.2839 44.6949 18.2839C44.9711 18.2839 45.1949 18.06 45.1949 17.7839C45.1949 17.5077 44.9711 17.2839 44.6949 17.2839C44.4188 17.2839 44.1949 17.5077 44.1949 17.7839Z" fill="white"/>
<path d="M34.3609 42.6594C34.3609 44.0401 33.2416 45.1594 31.8609 45.1594C30.4802 45.1594 29.3609 44.0401 29.3609 42.6594C29.3609 41.2787 30.4802 40.1594 31.8609 40.1594C33.2416 40.1594 34.3609 41.2787 34.3609 42.6594ZM31.3609 42.6594C31.3609 42.9356 31.5848 43.1594 31.8609 43.1594C32.137 43.1594 32.3609 42.9356 32.3609 42.6594C32.3609 42.3833 32.137 42.1594 31.8609 42.1594C31.5848 42.1594 31.3609 42.3833 31.3609 42.6594Z" fill="white"/>
<path d="M34.3609 34.1673C34.3609 35.548 33.2416 36.6673 31.8609 36.6673C30.4802 36.6673 29.3609 35.548 29.3609 34.1673C29.3609 32.7866 30.4802 31.6673 31.8609 31.6673C33.2416 31.6673 34.3609 32.7866 34.3609 34.1673ZM31.3609 34.1673C31.3609 34.4434 31.5848 34.6673 31.8609 34.6673C32.137 34.6673 32.3609 34.4434 32.3609 34.1673C32.3609 33.8912 32.137 33.6673 31.8609 33.6673C31.5848 33.6673 31.3609 33.8912 31.3609 34.1673Z" fill="white"/>
<path d="M23.7854 34.1673C23.7854 35.548 22.6661 36.6673 21.2854 36.6673C19.9047 36.6673 18.7854 35.548 18.7854 34.1673C18.7854 32.7866 19.9047 31.6673 21.2854 31.6673C22.6661 31.6673 23.7854 32.7866 23.7854 34.1673ZM20.7854 34.1673C20.7854 34.4434 21.0093 34.6673 21.2854 34.6673C21.5615 34.6673 21.7854 34.4434 21.7854 34.1673C21.7854 33.8912 21.5615 33.6673 21.2854 33.6673C21.0093 33.6673 20.7854 33.8912 20.7854 34.1673Z" fill="white"/>
<path d="M13.8959 30.2936C13.8959 31.6743 12.7766 32.7936 11.3959 32.7936C10.0152 32.7936 8.8959 31.6743 8.8959 30.2936C8.8959 28.9129 10.0152 27.7936 11.3959 27.7936C12.7766 27.7936 13.8959 28.9129 13.8959 30.2936ZM10.8959 30.2936C10.8959 30.5697 11.1198 30.7936 11.3959 30.7936C11.672 30.7936 11.8959 30.5697 11.8959 30.2936C11.8959 30.0174 11.672 29.7936 11.3959 29.7936C11.1198 29.7936 10.8959 30.0174 10.8959 30.2936Z" fill="white"/>
<path d="M28.7854 27.8962C28.7854 29.2769 27.6661 30.3962 26.2854 30.3962C24.9047 30.3962 23.7854 29.2769 23.7854 27.8962C23.7854 26.5155 24.9047 25.3962 26.2854 25.3962C27.6661 25.3962 28.7854 26.5155 28.7854 27.8962ZM25.7854 27.8962C25.7854 28.1723 26.0093 28.3962 26.2854 28.3962C26.5615 28.3962 26.7854 28.1723 26.7854 27.8962C26.7854 27.62 26.5615 27.3962 26.2854 27.3962C26.0093 27.3962 25.7854 27.62 25.7854 27.8962Z" fill="white"/>
<path d="M14.8617 15.545C14.8617 16.9257 13.7424 18.045 12.3617 18.045C10.981 18.045 9.86166 16.9257 9.86166 15.545C9.86166 14.1643 10.981 13.045 12.3617 13.045C13.7424 13.045 14.8617 14.1643 14.8617 15.545ZM11.8617 15.545C11.8617 15.8211 12.0855 16.045 12.3617 16.045C12.6378 16.045 12.8617 15.8211 12.8617 15.545C12.8617 15.2688 12.6378 15.045 12.3617 15.045C12.0855 15.045 11.8617 15.2688 11.8617 15.545Z" fill="white"/>
<path d="M22.3301 23.1801C22.3301 24.5608 21.2109 25.6801 19.8301 25.6801C18.4494 25.6801 17.3301 24.5608 17.3301 23.1801C17.3301 21.7994 18.4494 20.6801 19.8301 20.6801C21.2109 20.6801 22.3301 21.7994 22.3301 23.1801ZM19.3301 23.1801C19.3301 23.4563 19.554 23.6801 19.8301 23.6801C20.1063 23.6801 20.3301 23.4563 20.3301 23.1801C20.3301 22.904 20.1063 22.6801 19.8301 22.6801C19.554 22.6801 19.3301 22.904 19.3301 23.1801Z" fill="white"/>
<path d="M28.7854 20.6801C28.7854 22.0608 27.6661 23.1801 26.2854 23.1801C24.9047 23.1801 23.7854 22.0608 23.7854 20.6801C23.7854 19.2994 24.9047 18.1801 26.2854 18.1801C27.6661 18.1801 28.7854 19.2994 28.7854 20.6801ZM25.7854 20.6801C25.7854 20.9563 26.0093 21.1801 26.2854 21.1801C26.5615 21.1801 26.7854 20.9563 26.7854 20.6801C26.7854 20.404 26.5615 20.1801 26.2854 20.1801C26.0093 20.1801 25.7854 20.404 25.7854 20.6801Z" fill="white"/>
<path d="M38.0601 24.3962C38.0601 25.7769 36.9408 26.8962 35.5601 26.8962C34.1793 26.8962 33.0601 25.7769 33.0601 24.3962C33.0601 23.0155 34.1793 21.8962 35.5601 21.8962C36.9408 21.8962 38.0601 23.0155 38.0601 24.3962ZM35.0601 24.3962C35.0601 24.6723 35.2839 24.8962 35.5601 24.8962C35.8362 24.8962 36.0601 24.6723 36.0601 24.3962C36.0601 24.12 35.8362 23.8962 35.5601 23.8962C35.2839 23.8962 35.0601 24.12 35.0601 24.3962Z" fill="white"/>
<path d="M41.844 41.1533C41.844 42.534 40.7247 43.6533 39.344 43.6533C37.9633 43.6533 36.844 42.534 36.844 41.1533C36.844 39.7726 37.9633 38.6533 39.344 38.6533C40.7247 38.6533 41.844 39.7726 41.844 41.1533ZM38.844 41.1533C38.844 41.4295 39.0679 41.6533 39.344 41.6533C39.6201 41.6533 39.844 41.4295 39.844 41.1533C39.844 40.8772 39.6201 40.6533 39.344 40.6533C39.0679 40.6533 38.844 40.8772 38.844 41.1533Z" fill="white"/>
<path d="M41.844 35.8283C41.844 37.209 40.7247 38.3283 39.344 38.3283C37.9633 38.3283 36.844 37.209 36.844 35.8283C36.844 34.4476 37.9633 33.3283 39.344 33.3283C40.7247 33.3283 41.844 34.4476 41.844 35.8283ZM38.844 35.8283C38.844 36.1045 39.0679 36.3283 39.344 36.3283C39.6201 36.3283 39.844 36.1045 39.844 35.8283C39.844 35.5522 39.6201 35.3283 39.344 35.3283C39.0679 35.3283 38.844 35.5522 38.844 35.8283Z" fill="white"/>
<path d="M47.1443 25.1939C47.1443 26.5746 46.0251 27.6939 44.6443 27.6939C43.2636 27.6939 42.1443 26.5746 42.1443 25.1939C42.1443 23.8132 43.2636 22.6939 44.6443 22.6939C46.0251 22.6939 47.1443 23.8132 47.1443 25.1939ZM44.1443 25.1939C44.1443 25.4701 44.3682 25.6939 44.6443 25.6939C44.9205 25.6939 45.1443 25.4701 45.1443 25.1939C45.1443 24.9178 44.9205 24.6939 44.6443 24.6939C44.3682 24.6939 44.1443 24.9178 44.1443 25.1939Z" fill="white"/>
<path d="M13.3593 16.663L18.9044 22.1444" stroke="white" stroke-width="2"/>
<path d="M17.9773 8.39618L26.0601 16.7922V18.7463" stroke="white" stroke-width="2"/>
<path d="M8.06006 10.8962L3.06006 15.8962V21.8962L5.06006 23.8962H12.0601L16.0601 27.8962H25.0601" stroke="white" stroke-width="2"/>
<path d="M26.3457 8.63916L33.06 15.2409V21.9761L34.0811 22.943" stroke="white" stroke-width="2"/>
<path d="M39.3583 37.9358V38.917M44.6061 27.3729V28.0164L39.453 33.1374L39.453 33.8652M46.8076 25.3292H50" stroke="white" stroke-width="2"/>
<defs>
<linearGradient id="paint0_linear_225_171" x1="0" y1="25" x2="50" y2="25" gradientUnits="userSpaceOnUse">
<stop stop-color="#00C69F"/>
<stop offset="1" stop-color="#009CCA"/>
</linearGradient>
</defs>
</svg>
